<svg width="1400" height="996" viewBox="0 0 1400 996" fill="none" xmlns="http://www.w3.org/2000/svg">
<rect width="1400" height="995.556" transform="translate(0 0.222229)" fill="#F05F5F"/>
<path d="M35 36.1945L48.115 47.3036L61.23 36.1945" stroke="#F99999" stroke-width="30.8588" stroke-linecap="round" style="mix-blend-mode:screen"/>
<path d="M35 188.204L48.115 199.313L61.23 188.204" stroke="#F99999" stroke-width="30.8588" stroke-linecap="round" style="mix-blend-mode:screen"/>
<path d="M94.3056 112.028L107.421 123.137L120.536 112.028" stroke="#F99999" stroke-width="30.8588" stroke-linecap="round" style="mix-blend-mode:screen"/>
<path d="M94.3056 273.417L107.421 284.526L120.536 273.417" stroke="#F99999" stroke-width="30.8588" stroke-linecap="round" style="mix-blend-mode:screen"/>
<path d="M94.3056 416.333L107.421 427.443L120.536 416.333" stroke="#F99999" stroke-width="30.8588" stroke-linecap="round" style="mix-blend-mode:screen"/>
<path d="M94.3056 568L107.421 579.109L120.536 568" stroke="#F99999" stroke-width="30.8588" stroke-linecap="round" style="mix-blend-mode:screen"/>
<path d="M94.3056 719.667L107.421 730.776L120.536 719.667" stroke="#F99999" stroke-width="30.8588" stroke-linecap="round" style="mix-blend-mode:screen"/>
<path d="M94.3056 872.306L107.421 883.415L120.536 872.306" stroke="#F99999" stroke-width="30.8588" stroke-linecap="round" style="mix-blend-mode:screen"/>
<path d="M35 340.213L48.115 351.322L61.23 340.213" stroke="#F99999" stroke-width="30.8588" stroke-linecap="round" style="mix-blend-mode:screen"/>
<path d="M35 492.222L48.115 503.331L61.23 492.222" stroke="#F99999" stroke-width="30.8588" stroke-linecap="round" style="mix-blend-mode:screen"/>
<path d="M35 644.231L48.115 655.34L61.23 644.231" stroke="#F99999" stroke-width="30.8588" stroke-linecap="round" style="mix-blend-mode:screen"/>
<path d="M35 796.241L48.115 807.35L61.23 796.241" stroke="#F99999" stroke-width="30.8588" stroke-linecap="round" style="mix-blend-mode:screen"/>
<path d="M35 948.25L48.115 959.359L61.23 948.25" stroke="#F99999" stroke-width="30.8588" stroke-linecap="round" style="mix-blend-mode:screen"/>
<path d="M508.932 36.1945L522.047 47.3036L535.162 36.1945" stroke="#F99999" stroke-width="30.8588" stroke-linecap="round" style="mix-blend-mode:screen"/>
<path d="M508.932 188.204L522.047 199.313L535.162 188.204" stroke="#F99999" stroke-width="30.8588" stroke-linecap="round" style="mix-blend-mode:screen"/>
<path d="M568.238 112.028L581.353 123.137L594.468 112.028" stroke="#F99999" stroke-width="30.8588" stroke-linecap="round" style="mix-blend-mode:screen"/>
<path d="M568.238 273.417L581.353 284.526L594.468 273.417" stroke="#F99999" stroke-width="30.8588" stroke-linecap="round" style="mix-blend-mode:screen"/>
<path d="M568.238 416.333L581.353 427.443L594.468 416.333" stroke="#F99999" stroke-width="30.8588" stroke-linecap="round" style="mix-blend-mode:screen"/>
<path d="M568.238 568L581.353 579.109L594.468 568" stroke="#F99999" stroke-width="30.8588" stroke-linecap="round" style="mix-blend-mode:screen"/>
<path d="M568.238 719.667L581.353 730.776L594.468 719.667" stroke="#F99999" stroke-width="30.8588" stroke-linecap="round" style="mix-blend-mode:screen"/>
<path d="M568.238 872.306L581.353 883.415L594.468 872.306" stroke="#F99999" stroke-width="30.8588" stroke-linecap="round" style="mix-blend-mode:screen"/>
<path d="M508.932 340.213L522.047 351.322L535.162 340.213" stroke="#F99999" stroke-width="30.8588" stroke-linecap="round" style="mix-blend-mode:screen"/>
<path d="M508.932 492.222L522.047 503.331L535.162 492.222" stroke="#F99999" stroke-width="30.8588" stroke-linecap="round" style="mix-blend-mode:screen"/>
<path d="M508.932 644.231L522.047 655.34L535.162 644.231" stroke="#F99999" stroke-width="30.8588" stroke-linecap="round" style="mix-blend-mode:screen"/>
<path d="M508.932 796.241L522.047 807.35L535.162 796.241" stroke="#F99999" stroke-width="30.8588" stroke-linecap="round" style="mix-blend-mode:screen"/>
<path d="M508.932 948.25L522.047 959.359L535.162 948.25" stroke="#F99999" stroke-width="30.8588" stroke-linecap="round" style="mix-blend-mode:screen"/>
<path d="M982.864 36.1945L995.979 47.3036L1009.09 36.1945" stroke="#F99999" stroke-width="30.8588" stroke-linecap="round" style="mix-blend-mode:screen"/>
<path d="M982.864 188.204L995.979 199.313L1009.09 188.204" stroke="#F99999" stroke-width="30.8588" stroke-linecap="round" style="mix-blend-mode:screen"/>
<path d="M1042.17 112.028L1055.28 123.137L1068.4 112.028" stroke="#F99999" stroke-width="30.8588" stroke-linecap="round" style="mix-blend-mode:screen"/>
<path d="M1042.17 273.417L1055.28 284.526L1068.4 273.417" stroke="#F99999" stroke-width="30.8588" stroke-linecap="round" style="mix-blend-mode:screen"/>
<path d="M1042.17 416.333L1055.28 427.443L1068.4 416.333" stroke="#F99999" stroke-width="30.8588" stroke-linecap="round" style="mix-blend-mode:screen"/>
<path d="M1042.17 568L1055.28 579.109L1068.4 568" stroke="#F99999" stroke-width="30.8588" stroke-linecap="round" style="mix-blend-mode:screen"/>
<path d="M1042.17 719.667L1055.28 730.776L1068.4 719.667" stroke="#F99999" stroke-width="30.8588" stroke-linecap="round" style="mix-blend-mode:screen"/>
<path d="M1042.17 872.306L1055.28 883.415L1068.4 872.306" stroke="#F99999" stroke-width="30.8588" stroke-linecap="round" style="mix-blend-mode:screen"/>
<path d="M982.864 340.213L995.979 351.322L1009.09 340.213" stroke="#F99999" stroke-width="30.8588" stroke-linecap="round" style="mix-blend-mode:screen"/>
<path d="M982.864 492.222L995.979 503.331L1009.09 492.222" stroke="#F99999" stroke-width="30.8588" stroke-linecap="round" style="mix-blend-mode:screen"/>
<path d="M982.864 644.231L995.979 655.34L1009.09 644.231" stroke="#F99999" stroke-width="30.8588" stroke-linecap="round" style="mix-blend-mode:screen"/>
<path d="M982.864 796.241L995.979 807.35L1009.09 796.241" stroke="#F99999" stroke-width="30.8588" stroke-linecap="round" style="mix-blend-mode:screen"/>
<path d="M982.864 948.25L995.979 959.359L1009.09 948.25" stroke="#F99999" stroke-width="30.8588" stroke-linecap="round" style="mix-blend-mode:screen"/>
<path d="M153.498 36.1945L166.613 47.3036L179.728 36.1945" stroke="#F99999" stroke-width="30.8588" stroke-linecap="round" style="mix-blend-mode:screen"/>
<path d="M153.498 188.204L166.613 199.313L179.728 188.204" stroke="#F99999" stroke-width="30.8588" stroke-linecap="round" style="mix-blend-mode:screen"/>
<path d="M212.803 112.028L225.918 123.137L239.033 112.028" stroke="#F99999" stroke-width="30.8588" stroke-linecap="round" style="mix-blend-mode:screen"/>
<path d="M212.803 273.417L225.918 284.526L239.033 273.417" stroke="#F99999" stroke-width="30.8588" stroke-linecap="round" style="mix-blend-mode:screen"/>
<path d="M212.803 416.333L225.918 427.443L239.033 416.333" stroke="#F99999" stroke-width="30.8588" stroke-linecap="round" style="mix-blend-mode:screen"/>
<path d="M212.803 568L225.918 579.109L239.033 568" stroke="#F99999" stroke-width="30.8588" stroke-linecap="round" style="mix-blend-mode:screen"/>
<path d="M212.803 719.667L225.918 730.776L239.033 719.667" stroke="#F99999" stroke-width="30.8588" stroke-linecap="round" style="mix-blend-mode:screen"/>
<path d="M212.803 872.306L225.918 883.415L239.033 872.306" stroke="#F99999" stroke-width="30.8588" stroke-linecap="round" style="mix-blend-mode:screen"/>
<path d="M153.498 340.213L166.613 351.322L179.728 340.213" stroke="#F99999" stroke-width="30.8588" stroke-linecap="round" style="mix-blend-mode:screen"/>
<path d="M153.498 492.222L166.613 503.331L179.728 492.222" stroke="#F99999" stroke-width="30.8588" stroke-linecap="round" style="mix-blend-mode:screen"/>
<path d="M153.498 644.231L166.613 655.34L179.728 644.231" stroke="#F99999" stroke-width="30.8588" stroke-linecap="round" style="mix-blend-mode:screen"/>
<path d="M153.498 796.241L166.613 807.35L179.728 796.241" stroke="#F99999" stroke-width="30.8588" stroke-linecap="round" style="mix-blend-mode:screen"/>
<path d="M153.498 948.25L166.613 959.359L179.728 948.25" stroke="#F99999" stroke-width="30.8588" stroke-linecap="round" style="mix-blend-mode:screen"/>
<path d="M627.43 36.1945L640.545 47.3036L653.66 36.1945" stroke="#F99999" stroke-width="30.8588" stroke-linecap="round" style="mix-blend-mode:screen"/>
<path d="M627.43 188.204L640.545 199.313L653.66 188.204" stroke="#F99999" stroke-width="30.8588" stroke-linecap="round" style="mix-blend-mode:screen"/>
<path d="M686.735 112.028L699.85 123.137L712.965 112.028" stroke="#F99999" stroke-width="30.8588" stroke-linecap="round" style="mix-blend-mode:screen"/>
<path d="M686.735 273.417L699.85 284.526L712.965 273.417" stroke="#F99999" stroke-width="30.8588" stroke-linecap="round" style="mix-blend-mode:screen"/>
<path d="M686.735 416.333L699.85 427.443L712.965 416.333" stroke="#F99999" stroke-width="30.8588" stroke-linecap="round" style="mix-blend-mode:screen"/>
<path d="M686.735 568L699.85 579.109L712.965 568" stroke="#F99999" stroke-width="30.8588" stroke-linecap="round" style="mix-blend-mode:screen"/>
<path d="M686.735 719.667L699.85 730.776L712.965 719.667" stroke="#F99999" stroke-width="30.8588" stroke-linecap="round" style="mix-blend-mode:screen"/>
<path d="M686.735 872.306L699.85 883.415L712.965 872.306" stroke="#F99999" stroke-width="30.8588" stroke-linecap="round" style="mix-blend-mode:screen"/>
<path d="M627.43 340.213L640.545 351.322L653.66 340.213" stroke="#F99999" stroke-width="30.8588" stroke-linecap="round" style="mix-blend-mode:screen"/>
<path d="M627.43 492.222L640.545 503.331L653.66 492.222" stroke="#F99999" stroke-width="30.8588" stroke-linecap="round" style="mix-blend-mode:screen"/>
<path d="M627.43 644.231L640.545 655.34L653.66 644.231" stroke="#F99999" stroke-width="30.8588" stroke-linecap="round" style="mix-blend-mode:screen"/>
<path d="M627.43 796.241L640.545 807.35L653.66 796.241" stroke="#F99999" stroke-width="30.8588" stroke-linecap="round" style="mix-blend-mode:screen"/>
<path d="M627.43 948.25L640.545 959.359L653.66 948.25" stroke="#F99999" stroke-width="30.8588" stroke-linecap="round" style="mix-blend-mode:screen"/>
<path d="M1101.36 36.1945L1114.48 47.3036L1127.59 36.1945" stroke="#F99999" stroke-width="30.8588" stroke-linecap="round" style="mix-blend-mode:screen"/>
<path d="M1101.36 188.204L1114.48 199.313L1127.59 188.204" stroke="#F99999" stroke-width="30.8588" stroke-linecap="round" style="mix-blend-mode:screen"/>
<path d="M1160.67 112.028L1173.78 123.137L1186.9 112.028" stroke="#F99999" stroke-width="30.8588" stroke-linecap="round" style="mix-blend-mode:screen"/>
<path d="M1160.67 273.417L1173.78 284.526L1186.9 273.417" stroke="#F99999" stroke-width="30.8588" stroke-linecap="round" style="mix-blend-mode:screen"/>
<path d="M1160.67 416.333L1173.78 427.443L1186.9 416.333" stroke="#F99999" stroke-width="30.8588" stroke-linecap="round" style="mix-blend-mode:screen"/>
<path d="M1160.67 568L1173.78 579.109L1186.9 568" stroke="#F99999" stroke-width="30.8588" stroke-linecap="round" style="mix-blend-mode:screen"/>
<path d="M1160.67 719.667L1173.78 730.776L1186.9 719.667" stroke="#F99999" stroke-width="30.8588" stroke-linecap="round" style="mix-blend-mode:screen"/>
<path d="M1160.67 872.306L1173.78 883.415L1186.9 872.306" stroke="#F99999" stroke-width="30.8588" stroke-linecap="round" style="mix-blend-mode:screen"/>
<path d="M1101.36 340.213L1114.48 351.322L1127.59 340.213" stroke="#F99999" stroke-width="30.8588" stroke-linecap="round" style="mix-blend-mode:screen"/>
<path d="M1101.36 492.222L1114.48 503.331L1127.59 492.222" stroke="#F99999" stroke-width="30.8588" stroke-linecap="round" style="mix-blend-mode:screen"/>
<path d="M1101.36 644.231L1114.48 655.34L1127.59 644.231" stroke="#F99999" stroke-width="30.8588" stroke-linecap="round" style="mix-blend-mode:screen"/>
<path d="M1101.36 796.241L1114.48 807.35L1127.59 796.241" stroke="#F99999" stroke-width="30.8588" stroke-linecap="round" style="mix-blend-mode:screen"/>
<path d="M1101.36 948.25L1114.48 959.359L1127.59 948.25" stroke="#F99999" stroke-width="30.8588" stroke-linecap="round" style="mix-blend-mode:screen"/>
<path d="M271.996 36.1945L285.111 47.3036L298.226 36.1945" stroke="#F99999" stroke-width="30.8588" stroke-linecap="round" style="mix-blend-mode:screen"/>
<path d="M271.996 188.204L285.111 199.313L298.226 188.204" stroke="#F99999" stroke-width="30.8588" stroke-linecap="round" style="mix-blend-mode:screen"/>
<path d="M331.301 112.028L344.416 123.137L357.531 112.028" stroke="#F99999" stroke-width="30.8588" stroke-linecap="round" style="mix-blend-mode:screen"/>
<path d="M331.301 273.417L344.416 284.526L357.531 273.417" stroke="#F99999" stroke-width="30.8588" stroke-linecap="round" style="mix-blend-mode:screen"/>
<path d="M331.301 416.333L344.416 427.443L357.531 416.333" stroke="#F99999" stroke-width="30.8588" stroke-linecap="round" style="mix-blend-mode:screen"/>
<path d="M331.301 568L344.416 579.109L357.531 568" stroke="#F99999" stroke-width="30.8588" stroke-linecap="round" style="mix-blend-mode:screen"/>
<path d="M331.301 719.667L344.416 730.776L357.531 719.667" stroke="#F99999" stroke-width="30.8588" stroke-linecap="round" style="mix-blend-mode:screen"/>
<path d="M331.301 872.306L344.416 883.415L357.531 872.306" stroke="#F99999" stroke-width="30.8588" stroke-linecap="round" style="mix-blend-mode:screen"/>
<path d="M271.996 340.213L285.111 351.322L298.226 340.213" stroke="#F99999" stroke-width="30.8588" stroke-linecap="round" style="mix-blend-mode:screen"/>
<path d="M271.996 492.222L285.111 503.331L298.226 492.222" stroke="#F99999" stroke-width="30.8588" stroke-linecap="round" style="mix-blend-mode:screen"/>
<path d="M271.996 644.231L285.111 655.34L298.226 644.231" stroke="#F99999" stroke-width="30.8588" stroke-linecap="round" style="mix-blend-mode:screen"/>
<path d="M271.996 796.241L285.111 807.35L298.226 796.241" stroke="#F99999" stroke-width="30.8588" stroke-linecap="round" style="mix-blend-mode:screen"/>
<path d="M271.996 948.25L285.111 959.359L298.226 948.25" stroke="#F99999" stroke-width="30.8588" stroke-linecap="round" style="mix-blend-mode:screen"/>
<path d="M745.928 36.1945L759.043 47.3036L772.158 36.1945" stroke="#F99999" stroke-width="30.8588" stroke-linecap="round" style="mix-blend-mode:screen"/>
<path d="M745.928 188.204L759.043 199.313L772.158 188.204" stroke="#F99999" stroke-width="30.8588" stroke-linecap="round" style="mix-blend-mode:screen"/>
<path d="M805.233 112.028L818.348 123.137L831.463 112.028" stroke="#F99999" stroke-width="30.8588" stroke-linecap="round" style="mix-blend-mode:screen"/>
<path d="M805.233 273.417L818.348 284.526L831.463 273.417" stroke="#F99999" stroke-width="30.8588" stroke-linecap="round" style="mix-blend-mode:screen"/>
<path d="M805.233 416.333L818.348 427.443L831.463 416.333" stroke="#F99999" stroke-width="30.8588" stroke-linecap="round" style="mix-blend-mode:screen"/>
<path d="M805.233 568L818.348 579.109L831.463 568" stroke="#F99999" stroke-width="30.8588" stroke-linecap="round" style="mix-blend-mode:screen"/>
<path d="M805.233 719.667L818.348 730.776L831.463 719.667" stroke="#F99999" stroke-width="30.8588" stroke-linecap="round" style="mix-blend-mode:screen"/>
<path d="M805.233 872.306L818.348 883.415L831.463 872.306" stroke="#F99999" stroke-width="30.8588" stroke-linecap="round" style="mix-blend-mode:screen"/>
<path d="M745.928 340.213L759.043 351.322L772.158 340.213" stroke="#F99999" stroke-width="30.8588" stroke-linecap="round" style="mix-blend-mode:screen"/>
<path d="M745.928 492.222L759.043 503.331L772.158 492.222" stroke="#F99999" stroke-width="30.8588" stroke-linecap="round" style="mix-blend-mode:screen"/>
<path d="M745.928 644.231L759.043 655.34L772.158 644.231" stroke="#F99999" stroke-width="30.8588" stroke-linecap="round" style="mix-blend-mode:screen"/>
<path d="M745.928 796.241L759.043 807.35L772.158 796.241" stroke="#F99999" stroke-width="30.8588" stroke-linecap="round" style="mix-blend-mode:screen"/>
<path d="M745.928 948.25L759.043 959.359L772.158 948.25" stroke="#F99999" stroke-width="30.8588" stroke-linecap="round" style="mix-blend-mode:screen"/>
<path d="M1219.86 36.1945L1232.97 47.3036L1246.09 36.1945" stroke="#F99999" stroke-width="30.8588" stroke-linecap="round" style="mix-blend-mode:screen"/>
<path d="M1219.86 188.204L1232.97 199.313L1246.09 188.204" stroke="#F99999" stroke-width="30.8588" stroke-linecap="round" style="mix-blend-mode:screen"/>
<path d="M1279.17 112.028L1292.28 123.137L1305.4 112.028" stroke="#F99999" stroke-width="30.8588" stroke-linecap="round" style="mix-blend-mode:screen"/>
<path d="M1279.17 273.417L1292.28 284.526L1305.4 273.417" stroke="#F99999" stroke-width="30.8588" stroke-linecap="round" style="mix-blend-mode:screen"/>
<path d="M1279.17 416.333L1292.28 427.443L1305.4 416.333" stroke="#F99999" stroke-width="30.8588" stroke-linecap="round" style="mix-blend-mode:screen"/>
<path d="M1279.17 568L1292.28 579.109L1305.4 568" stroke="#F99999" stroke-width="30.8588" stroke-linecap="round" style="mix-blend-mode:screen"/>
<path d="M1279.17 719.667L1292.28 730.776L1305.4 719.667" stroke="#F99999" stroke-width="30.8588" stroke-linecap="round" style="mix-blend-mode:screen"/>
<path d="M1279.17 872.306L1292.28 883.415L1305.4 872.306" stroke="#F99999" stroke-width="30.8588" stroke-linecap="round" style="mix-blend-mode:screen"/>
<path d="M1219.86 340.213L1232.97 351.322L1246.09 340.213" stroke="#F99999" stroke-width="30.8588" stroke-linecap="round" style="mix-blend-mode:screen"/>
<path d="M1219.86 492.222L1232.97 503.331L1246.09 492.222" stroke="#F99999" stroke-width="30.8588" stroke-linecap="round" style="mix-blend-mode:screen"/>
<path d="M1219.86 644.231L1232.97 655.34L1246.09 644.231" stroke="#F99999" stroke-width="30.8588" stroke-linecap="round" style="mix-blend-mode:screen"/>
<path d="M1219.86 796.241L1232.97 807.35L1246.09 796.241" stroke="#F99999" stroke-width="30.8588" stroke-linecap="round" style="mix-blend-mode:screen"/>
<path d="M1219.86 948.25L1232.97 959.359L1246.09 948.25" stroke="#F99999" stroke-width="30.8588" stroke-linecap="round" style="mix-blend-mode:screen"/>
<path d="M390.493 36.1945L403.608 47.3036L416.723 36.1945" stroke="#F99999" stroke-width="30.8588" stroke-linecap="round" style="mix-blend-mode:screen"/>
<path d="M390.493 188.204L403.608 199.313L416.723 188.204" stroke="#F99999" stroke-width="30.8588" stroke-linecap="round" style="mix-blend-mode:screen"/>
<path d="M449.799 112.028L462.914 123.137L476.029 112.028" stroke="#F99999" stroke-width="30.8588" stroke-linecap="round" style="mix-blend-mode:screen"/>
<path d="M449.799 273.417L462.914 284.526L476.029 273.417" stroke="#F99999" stroke-width="30.8588" stroke-linecap="round" style="mix-blend-mode:screen"/>
<path d="M449.799 416.333L462.914 427.443L476.029 416.333" stroke="#F99999" stroke-width="30.8588" stroke-linecap="round" style="mix-blend-mode:screen"/>
<path d="M449.799 568L462.914 579.109L476.029 568" stroke="#F99999" stroke-width="30.8588" stroke-linecap="round" style="mix-blend-mode:screen"/>
<path d="M449.799 719.667L462.914 730.776L476.029 719.667" stroke="#F99999" stroke-width="30.8588" stroke-linecap="round" style="mix-blend-mode:screen"/>
<path d="M449.799 872.306L462.914 883.415L476.029 872.306" stroke="#F99999" stroke-width="30.8588" stroke-linecap="round" style="mix-blend-mode:screen"/>
<path d="M390.493 340.213L403.608 351.322L416.723 340.213" stroke="#F99999" stroke-width="30.8588" stroke-linecap="round" style="mix-blend-mode:screen"/>
<path d="M390.493 492.222L403.608 503.331L416.723 492.222" stroke="#F99999" stroke-width="30.8588" stroke-linecap="round" style="mix-blend-mode:screen"/>
<path d="M390.493 644.231L403.608 655.34L416.723 644.231" stroke="#F99999" stroke-width="30.8588" stroke-linecap="round" style="mix-blend-mode:screen"/>
<path d="M390.493 796.241L403.608 807.35L416.723 796.241" stroke="#F99999" stroke-width="30.8588" stroke-linecap="round" style="mix-blend-mode:screen"/>
<path d="M390.493 948.25L403.608 959.359L416.723 948.25" stroke="#F99999" stroke-width="30.8588" stroke-linecap="round" style="mix-blend-mode:screen"/>
<path d="M864.425 36.1945L877.54 47.3036L890.655 36.1945" stroke="#F99999" stroke-width="30.8588" stroke-linecap="round" style="mix-blend-mode:screen"/>
<path d="M864.425 188.204L877.54 199.313L890.655 188.204" stroke="#F99999" stroke-width="30.8588" stroke-linecap="round" style="mix-blend-mode:screen"/>
<path d="M923.731 112.028L936.846 123.137L949.961 112.028" stroke="#F99999" stroke-width="30.8588" stroke-linecap="round" style="mix-blend-mode:screen"/>
<path d="M923.731 273.417L936.846 284.526L949.961 273.417" stroke="#F99999" stroke-width="30.8588" stroke-linecap="round" style="mix-blend-mode:screen"/>
<path d="M923.731 416.333L936.846 427.443L949.961 416.333" stroke="#F99999" stroke-width="30.8588" stroke-linecap="round" style="mix-blend-mode:screen"/>
<path d="M923.731 568L936.846 579.109L949.961 568" stroke="#F99999" stroke-width="30.8588" stroke-linecap="round" style="mix-blend-mode:screen"/>
<path d="M923.731 719.667L936.846 730.776L949.961 719.667" stroke="#F99999" stroke-width="30.8588" stroke-linecap="round" style="mix-blend-mode:screen"/>
<path d="M923.731 872.306L936.846 883.415L949.961 872.306" stroke="#F99999" stroke-width="30.8588" stroke-linecap="round" style="mix-blend-mode:screen"/>
<path d="M864.425 340.213L877.54 351.322L890.655 340.213" stroke="#F99999" stroke-width="30.8588" stroke-linecap="round" style="mix-blend-mode:screen"/>
<path d="M864.425 492.222L877.54 503.331L890.655 492.222" stroke="#F99999" stroke-width="30.8588" stroke-linecap="round" style="mix-blend-mode:screen"/>
<path d="M864.425 644.231L877.54 655.34L890.655 644.231" stroke="#F99999" stroke-width="30.8588" stroke-linecap="round" style="mix-blend-mode:screen"/>
<path d="M864.425 796.241L877.54 807.35L890.655 796.241" stroke="#F99999" stroke-width="30.8588" stroke-linecap="round" style="mix-blend-mode:screen"/>
<path d="M864.425 948.25L877.54 959.359L890.655 948.25" stroke="#F99999" stroke-width="30.8588" stroke-linecap="round" style="mix-blend-mode:screen"/>
<path d="M1338.36 36.1945L1351.47 47.3036L1364.59 36.1945" stroke="#F99999" stroke-width="30.8588" stroke-linecap="round" style="mix-blend-mode:screen"/>
<path d="M1338.36 188.204L1351.47 199.313L1364.59 188.204" stroke="#F99999" stroke-width="30.8588" stroke-linecap="round" style="mix-blend-mode:screen"/>
<path d="M1338.36 340.213L1351.47 351.322L1364.59 340.213" stroke="#F99999" stroke-width="30.8588" stroke-linecap="round" style="mix-blend-mode:screen"/>
<path d="M1338.36 492.222L1351.47 503.331L1364.59 492.222" stroke="#F99999" stroke-width="30.8588" stroke-linecap="round" style="mix-blend-mode:screen"/>
<path d="M1338.36 644.231L1351.47 655.34L1364.59 644.231" stroke="#F99999" stroke-width="30.8588" stroke-linecap="round" style="mix-blend-mode:screen"/>
<path d="M1338.36 796.241L1351.47 807.35L1364.59 796.241" stroke="#F99999" stroke-width="30.8588" stroke-linecap="round" style="mix-blend-mode:screen"/>
<path d="M1338.36 948.25L1351.47 959.359L1364.59 948.25" stroke="#F99999" stroke-width="30.8588" stroke-linecap="round" style="mix-blend-mode:screen"/>
</svg>
