<svg width="2087" height="1059" viewBox="0 0 2087 1059" fill="none" xmlns="http://www.w3.org/2000/svg">
<g clip-path="url(#clip0_1_2)">
<rect x="391" y="-23" width="1696" height="1082" fill="#000807"/>
<path d="M739.905 138L740.689 144.864L748 145.955L741.388 150.981L742.762 163L736.825 154.45L728.567 160.727L733.841 150.154L728.952 143.114L736.772 144.28L739.905 138Z" fill="white"/>
<path d="M728 161.864L728.567 160.727M728.567 160.727L739.905 138L742.762 163L728.952 143.114L748 145.955L728.567 160.727Z" stroke="white"/>
<path d="M733.095 686L733.958 692.864L742 693.955L734.727 698.981L736.238 711L729.707 702.45L720.624 708.727L726.426 698.154L721.048 691.114L729.649 692.28L733.095 686Z" fill="white"/>
<path d="M720 709.864L720.624 708.727M720.624 708.727L733.095 686L736.238 711L721.048 691.114L742 693.955L720.624 708.727Z" stroke="white"/>
<path d="M754.905 819L755.689 826.139L763 827.273L756.388 832.5L757.762 845L751.825 836.108L743.567 842.636L748.841 831.64L743.952 824.318L751.772 825.531L754.905 819Z" fill="white"/>
<path d="M743 843.818L743.567 842.636M743.567 842.636L754.905 819L757.762 845L743.952 824.318L763 827.273L743.567 842.636Z" stroke="white"/>
<path d="M701.5 566L702.324 573.139L710 574.273L703.058 579.5L704.5 592L698.266 583.108L689.595 589.636L695.134 578.64L690 571.318L698.211 572.531L701.5 566Z" fill="white"/>
<path d="M689 590.818L689.595 589.636M689.595 589.636L701.5 566L704.5 592L690 571.318L710 574.273L689.595 589.636Z" stroke="white"/>
<path d="M1127.5 127L1128.32 134.139L1136 135.273L1129.06 140.5L1130.5 153L1124.27 144.108L1115.6 150.636L1121.13 139.64L1116 132.318L1124.21 133.531L1127.5 127Z" fill="white"/>
<path d="M1115 151.818L1115.6 150.636M1115.6 150.636L1127.5 127L1130.5 153L1116 132.318L1136 135.273L1115.6 150.636Z" stroke="white"/>
<path d="M1294.5 605L1295.32 612.139L1303 613.273L1296.06 618.5L1297.5 631L1291.27 622.108L1282.6 628.636L1288.13 617.64L1283 610.318L1291.21 611.531L1294.5 605Z" fill="white"/>
<path d="M1282 629.818L1282.6 628.636M1282.6 628.636L1294.5 605L1297.5 631L1283 610.318L1303 613.273L1282.6 628.636Z" stroke="white"/>
<path d="M1516.9 118L1517.69 124.864L1525 125.955L1518.39 130.981L1519.76 143L1513.82 134.45L1505.57 140.727L1510.84 130.154L1505.95 123.114L1513.77 124.28L1516.9 118Z" fill="white"/>
<path d="M1505 141.864L1505.57 140.727M1505.57 140.727L1516.9 118L1519.76 143L1505.95 123.114L1525 125.955L1505.57 140.727Z" stroke="white"/>
<path d="M1137.5 750L1138.32 756.864L1146 757.955L1139.06 762.981L1140.5 775L1134.27 766.45L1125.6 772.727L1131.13 762.154L1126 755.114L1134.21 756.28L1137.5 750Z" fill="white"/>
<path d="M1125 773.864L1125.6 772.727M1125.6 772.727L1137.5 750L1140.5 775L1126 755.114L1146 757.955L1125.6 772.727Z" stroke="white"/>
<path d="M1903.5 107L1904.32 113.59L1912 114.636L1905.06 119.461L1906.5 131L1900.27 122.792L1891.6 128.818L1897.13 118.668L1892 111.909L1900.21 113.029L1903.5 107Z" fill="white"/>
<path d="M1891 129.909L1891.6 128.818M1891.6 128.818L1903.5 107L1906.5 131L1892 111.909L1912 114.636L1891.6 128.818Z" stroke="white"/>
<path d="M1902.9 647L1903.69 653.864L1911 654.955L1904.39 659.981L1905.76 672L1899.82 663.45L1891.57 669.727L1896.84 659.154L1891.95 652.114L1899.77 653.28L1902.9 647Z" fill="white"/>
<path d="M1891 670.864L1891.57 669.727M1891.57 669.727L1902.9 647L1905.76 672L1891.95 652.114L1911 654.955L1891.57 669.727Z" stroke="white"/>
<path d="M915.5 31L916.324 37.8642L924 38.9545L917.058 43.9807L918.5 56L912.266 47.4499L903.595 53.7273L909.134 43.1542L904 36.1136L912.211 37.2799L915.5 31Z" fill="white"/>
<path d="M903 54.8636L903.595 53.7273M903.595 53.7273L915.5 31L918.5 56L904 36.1136L924 38.9545L903.595 53.7273Z" stroke="white"/>
<path d="M906.905 580L907.689 586.864L915 587.955L908.388 592.981L909.762 605L903.825 596.45L895.567 602.727L900.841 592.154L895.952 585.114L903.772 586.28L906.905 580Z" fill="white"/>
<path d="M895 603.864L895.567 602.727M895.567 602.727L906.905 580L909.762 605L895.952 585.114L915 587.955L895.567 602.727Z" stroke="white"/>
<path d="M1304.5 20L1305.32 27.1387L1313 28.2727L1306.06 33.4999L1307.5 46L1301.27 37.1079L1292.6 43.6364L1298.13 32.6403L1293 25.3182L1301.21 26.5311L1304.5 20Z" fill="white"/>
<path d="M1292 44.8182L1292.6 43.6364M1292.6 43.6364L1304.5 20L1307.5 46L1293 25.3182L1313 28.2727L1292.6 43.6364Z" stroke="white"/>
<path d="M1270.1 357L1270.96 364.139L1279 365.273L1271.73 370.5L1273.24 383L1266.71 374.108L1257.62 380.636L1263.43 369.64L1258.05 362.318L1266.65 363.531L1270.1 357Z" fill="white"/>
<path d="M1257 381.818L1257.62 380.636M1257.62 380.636L1270.1 357L1273.24 383L1258.05 362.318L1279 365.273L1257.62 380.636Z" stroke="white"/>
<path d="M1689.9 10L1690.69 16.8642L1698 17.9545L1691.39 22.9807L1692.76 35L1686.82 26.4499L1678.57 32.7273L1683.84 22.1542L1678.95 15.1136L1686.77 16.2799L1689.9 10Z" fill="white"/>
<path d="M1678 33.8636L1678.57 32.7273M1678.57 32.7273L1689.9 10L1692.76 35L1678.95 15.1136L1698 17.9545L1678.57 32.7273Z" stroke="white"/>
<path d="M1683.5 559L1684.32 565.864L1692 566.955L1685.06 571.981L1686.5 584L1680.27 575.45L1671.6 581.727L1677.13 571.154L1672 564.114L1680.21 565.28L1683.5 559Z" fill="white"/>
<path d="M1671 582.864L1671.6 581.727M1671.6 581.727L1683.5 559L1686.5 584L1672 564.114L1692 566.955L1671.6 581.727Z" stroke="white"/>
<path d="M2078.5 0L2079.32 6.86416L2087 7.95455L2080.06 12.9807L2081.5 25L2075.27 16.4499L2066.6 22.7273L2072.13 12.1542L2067 5.11364L2075.21 6.2799L2078.5 0Z" fill="white"/>
<path d="M2066 23.8636L2066.6 22.7273M2066.6 22.7273L2078.5 0L2081.5 25L2067 5.11364L2087 7.95455L2066.6 22.7273Z" stroke="white"/>
<path d="M2071.9 549L2072.69 556.139L2080 557.273L2073.39 562.5L2074.76 575L2068.82 566.108L2060.57 572.636L2065.84 561.64L2060.95 554.318L2068.77 555.531L2071.9 549Z" fill="white"/>
<path d="M2060 573.818L2060.57 572.636M2060.57 572.636L2071.9 549L2074.76 575L2060.95 554.318L2080 557.273L2060.57 572.636Z" stroke="white"/>
<path d="M689.5 383L690.324 389.864L698 390.955L691.058 395.981L692.5 408L686.266 399.45L677.595 405.727L683.134 395.154L678 388.114L686.211 389.28L689.5 383Z" fill="white"/>
<path d="M677 406.864L677.595 405.727M677.595 405.727L689.5 383L692.5 408L678 388.114L698 390.955L677.595 405.727Z" stroke="white"/>
<path d="M680.905 932L681.689 938.864L689 939.955L682.388 944.981L683.762 957L677.825 948.45L669.567 954.727L674.841 944.154L669.952 937.114L677.772 938.28L680.905 932Z" fill="white"/>
<path d="M669 955.864L669.567 954.727M669.567 954.727L680.905 932L683.762 957L669.952 937.114L689 939.955L669.567 954.727Z" stroke="white"/>
<path d="M1075.5 373L1076.32 379.315L1084 380.318L1077.06 384.942L1078.5 396L1072.27 388.134L1063.6 393.909L1069.13 384.182L1064 377.705L1072.21 378.778L1075.5 373Z" fill="white"/>
<path d="M1063 394.955L1063.6 393.909M1063.6 393.909L1075.5 373L1078.5 396L1064 377.705L1084 380.318L1063.6 393.909Z" stroke="white"/>
<path d="M1068.5 921L1069.32 927.864L1077 928.955L1070.06 933.981L1071.5 946L1065.27 937.45L1056.6 943.727L1062.13 933.154L1057 926.114L1065.21 927.28L1068.5 921Z" fill="white"/>
<path d="M1056 944.864L1056.6 943.727M1056.6 943.727L1068.5 921L1071.5 946L1057 926.114L1077 928.955L1056.6 943.727Z" stroke="white"/>
<path d="M1230.5 985L1231.32 991.59L1239 992.636L1232.06 997.461L1233.5 1009L1227.27 1000.79L1218.6 1006.82L1224.13 996.668L1219 989.909L1227.21 991.029L1230.5 985Z" fill="white"/>
<path d="M1218 1007.91L1218.6 1006.82M1218.6 1006.82L1230.5 985L1233.5 1009L1219 989.909L1239 992.636L1218.6 1006.82Z" stroke="white"/>
<path d="M1463.5 361L1464.32 368.139L1472 369.273L1465.06 374.5L1466.5 387L1460.27 378.108L1451.6 384.636L1457.13 373.64L1452 366.318L1460.21 367.531L1463.5 361Z" fill="white"/>
<path d="M1451 385.818L1451.6 384.636M1451.6 384.636L1463.5 361L1466.5 387L1452 366.318L1472 369.273L1451.6 384.636Z" stroke="white"/>
<path d="M1456.5 911L1457.32 917.864L1465 918.955L1458.06 923.981L1459.5 936L1453.27 927.45L1444.6 933.727L1450.13 923.154L1445 916.114L1453.21 917.28L1456.5 911Z" fill="white"/>
<path d="M1444 934.864L1444.6 933.727M1444.6 933.727L1456.5 911L1459.5 936L1445 916.114L1465 918.955L1444.6 933.727Z" stroke="white"/>
<path d="M1572.5 781L1573.32 787.864L1581 788.955L1574.06 793.981L1575.5 806L1569.27 797.45L1560.6 803.727L1566.13 793.154L1561 786.114L1569.21 787.28L1572.5 781Z" fill="white"/>
<path d="M1560 804.864L1560.6 803.727M1560.6 803.727L1572.5 781L1575.5 806L1561 786.114L1581 788.955L1560.6 803.727Z" stroke="white"/>
<path d="M1952.1 240L1952.96 246.864L1961 247.955L1953.73 252.981L1955.24 265L1948.71 256.45L1939.62 262.727L1945.43 252.154L1940.05 245.114L1948.65 246.28L1952.1 240Z" fill="white"/>
<path d="M1939 263.864L1939.62 262.727M1939.62 262.727L1952.1 240L1955.24 265L1940.05 245.114L1961 247.955L1939.62 262.727Z" stroke="white"/>
<path d="M1845.1 901L1845.96 907.59L1854 908.636L1846.73 913.461L1848.24 925L1841.71 916.792L1832.62 922.818L1838.43 912.668L1833.05 905.909L1841.65 907.029L1845.1 901Z" fill="white"/>
<path d="M1832 923.909L1832.62 922.818M1832.62 922.818L1845.1 901L1848.24 925L1833.05 905.909L1854 908.636L1832.62 922.818Z" stroke="white"/>
<path d="M1668.5 1034L1669.32 1040.86L1677 1041.95L1670.06 1046.98L1671.5 1059L1665.27 1050.45L1656.6 1056.73L1662.13 1046.15L1657 1039.11L1665.21 1040.28L1668.5 1034Z" fill="white"/>
<path d="M1656 1057.86L1656.6 1056.73M1656.6 1056.73L1668.5 1034L1671.5 1059L1657 1039.11L1677 1041.95L1656.6 1056.73Z" stroke="white"/>
<path d="M1968.5 443L1969.32 450.139L1977 451.273L1970.06 456.5L1971.5 469L1965.27 460.108L1956.6 466.636L1962.13 455.64L1957 448.318L1965.21 449.531L1968.5 443Z" fill="white"/>
<path d="M1956 467.818L1956.6 466.636M1956.6 466.636L1968.5 443L1971.5 469L1957 448.318L1977 451.273L1956.6 466.636Z" stroke="white"/>
<path d="M1962.5 992L1963.32 999.139L1971 1000.27L1964.06 1005.5L1965.5 1018L1959.27 1009.11L1950.6 1015.64L1956.13 1004.64L1951 997.318L1959.21 998.531L1962.5 992Z" fill="white"/>
<path d="M1950 1016.82L1950.6 1015.64M1950.6 1015.64L1962.5 992L1965.5 1018L1951 997.318L1971 1000.27L1950.6 1015.64Z" stroke="white"/>
<path d="M2068.5 316L2069.32 322.864L2077 323.955L2070.06 328.981L2071.5 341L2065.27 332.45L2056.6 338.727L2062.13 328.154L2057 321.114L2065.21 322.28L2068.5 316Z" fill="white"/>
<path d="M2056 339.864L2056.6 338.727M2056.6 338.727L2068.5 316L2071.5 341L2057 321.114L2077 323.955L2056.6 338.727Z" stroke="white"/>
<path d="M2056.5 872L2057.32 879.139L2065 880.273L2058.06 885.5L2059.5 898L2053.27 889.108L2044.6 895.636L2050.13 884.64L2045 877.318L2053.21 878.531L2056.5 872Z" fill="white"/>
<path d="M2044 896.818L2044.6 895.636M2044.6 895.636L2056.5 872L2059.5 898L2045 877.318L2065 880.273L2044.6 895.636Z" stroke="white"/>
<path d="M585.095 118L585.958 124.864L594 125.955L586.727 130.981L588.238 143L581.707 134.45L572.624 140.727L578.426 130.154L573.048 123.114L581.649 124.28L585.095 118Z" fill="white"/>
<path d="M572 141.864L572.624 140.727M572.624 140.727L585.095 118L588.238 143L573.048 123.114L594 125.955L572.624 140.727Z" stroke="white"/>
<path d="M574.5 647L575.324 653.864L583 654.955L576.058 659.981L577.5 672L571.266 663.45L562.595 669.727L568.134 659.154L563 652.114L571.211 653.28L574.5 647Z" fill="white"/>
<path d="M562 670.864L562.595 669.727M562.595 669.727L574.5 647L577.5 672L563 652.114L583 654.955L562.595 669.727Z" stroke="white"/>
<path d="M916.5 31L917.324 37.8642L925 38.9545L918.058 43.9807L919.5 56L913.266 47.4499L904.595 53.7273L910.134 43.1542L905 36.1136L913.211 37.2799L916.5 31Z" fill="white"/>
<path d="M904 54.8636L904.595 53.7273M904.595 53.7273L916.5 31L919.5 56L905 36.1136L925 38.9545L904.595 53.7273Z" stroke="white"/>
<path d="M907.5 580L908.324 586.864L916 587.955L909.058 592.981L910.5 605L904.266 596.45L895.595 602.727L901.134 592.154L896 585.114L904.211 586.28L907.5 580Z" fill="white"/>
<path d="M895 603.864L895.595 602.727M895.595 602.727L907.5 580L910.5 605L896 585.114L916 587.955L895.595 602.727Z" stroke="white"/>
<path d="M787.095 480L787.958 487.139L796 488.273L788.727 493.5L790.238 506L783.707 497.108L774.624 503.636L780.426 492.64L775.048 485.318L783.649 486.531L787.095 480Z" fill="white"/>
<path d="M774 504.818L774.624 503.636M774.624 503.636L787.095 480L790.238 506L775.048 485.318L796 488.273L774.624 503.636Z" stroke="white"/>
<path d="M569.5 475L570.324 481.864L578 482.955L571.058 487.981L572.5 500L566.266 491.45L557.595 497.727L563.134 487.154L558 480.114L566.211 481.28L569.5 475Z" fill="white"/>
<path d="M557 498.864L557.595 497.727M557.595 497.727L569.5 475L572.5 500L558 480.114L578 482.955L557.595 497.727Z" stroke="white"/>
<path d="M1304.9 20L1305.69 27.1387L1313 28.2727L1306.39 33.4999L1307.76 46L1301.82 37.1079L1293.57 43.6364L1298.84 32.6403L1293.95 25.3182L1301.77 26.5311L1304.9 20Z" fill="white"/>
<path d="M1293 44.8182L1293.57 43.6364M1293.57 43.6364L1304.9 20L1307.76 46L1293.95 25.3182L1313 28.2727L1293.57 43.6364Z" stroke="white"/>
<path d="M1478.1 530L1478.96 537.139L1487 538.273L1479.73 543.5L1481.24 556L1474.71 547.108L1465.62 553.636L1471.43 542.64L1466.05 535.318L1474.65 536.531L1478.1 530Z" fill="white"/>
<path d="M1465 554.818L1465.62 553.636M1465.62 553.636L1478.1 530L1481.24 556L1466.05 535.318L1487 538.273L1465.62 553.636Z" stroke="white"/>
<path d="M1078.5 549L1079.32 556.139L1087 557.273L1080.06 562.5L1081.5 575L1075.27 566.108L1066.6 572.636L1072.13 561.64L1067 554.318L1075.21 555.531L1078.5 549Z" fill="white"/>
<path d="M1066 573.818L1066.6 572.636M1066.6 572.636L1078.5 549L1081.5 575L1067 554.318L1087 557.273L1066.6 572.636Z" stroke="white"/>
<path d="M1690.5 10L1691.32 16.8642L1699 17.9545L1692.06 22.9807L1693.5 35L1687.27 26.4499L1678.6 32.7273L1684.13 22.1542L1679 15.1136L1687.21 16.2799L1690.5 10Z" fill="white"/>
<path d="M1678 33.8636L1678.6 32.7273M1678.6 32.7273L1690.5 10L1693.5 35L1679 15.1136L1699 17.9545L1678.6 32.7273Z" stroke="white"/>
<path d="M1823.5 408L1824.32 414.864L1832 415.955L1825.06 420.981L1826.5 433L1820.27 424.45L1811.6 430.727L1817.13 420.154L1812 413.114L1820.21 414.28L1823.5 408Z" fill="white"/>
<path d="M1811 431.864L1811.6 430.727M1811.6 430.727L1823.5 408L1826.5 433L1812 413.114L1832 415.955L1811.6 430.727Z" stroke="white"/>
<path d="M1658.9 338L1659.69 345.139L1667 346.273L1660.39 351.5L1661.76 364L1655.82 355.108L1647.57 361.636L1652.84 350.64L1647.95 343.318L1655.77 344.531L1658.9 338Z" fill="white"/>
<path d="M1647 362.818L1647.57 361.636M1647.57 361.636L1658.9 338L1661.76 364L1647.95 343.318L1667 346.273L1647.57 361.636Z" stroke="white"/>
<path d="M631.905 270L632.689 276.864L640 277.955L633.388 282.981L634.762 295L628.825 286.45L620.567 292.727L625.841 282.154L620.952 275.114L628.772 276.28L631.905 270Z" fill="white"/>
<path d="M620 293.864L620.567 292.727M620.567 292.727L631.905 270L634.762 295L620.952 275.114L640 277.955L620.567 292.727Z" stroke="white"/>
<path d="M585.095 807L585.958 813.59L594 814.636L586.727 819.461L588.238 831L581.707 822.792L572.624 828.818L578.426 818.668L573.048 811.909L581.649 813.029L585.095 807Z" fill="white"/>
<path d="M572 829.909L572.624 828.818M572.624 828.818L585.095 807L588.238 831L573.048 811.909L594 814.636L572.624 828.818Z" stroke="white"/>
<path d="M980.5 247L981.324 253.864L989 254.955L982.058 259.981L983.5 272L977.266 263.45L968.595 269.727L974.134 259.154L969 252.114L977.211 253.28L980.5 247Z" fill="white"/>
<path d="M968 270.864L968.595 269.727M968.595 269.727L980.5 247L983.5 272L969 252.114L989 254.955L968.595 269.727Z" stroke="white"/>
<path d="M972.905 796L973.689 803.139L981 804.273L974.388 809.5L975.762 822L969.825 813.108L961.567 819.636L966.841 808.64L961.952 801.318L969.772 802.531L972.905 796Z" fill="white"/>
<path d="M961 820.818L961.567 819.636M961.567 819.636L972.905 796L975.762 822L961.952 801.318L981 804.273L961.567 819.636Z" stroke="white"/>
<path d="M886.905 925L887.689 932.139L895 933.273L888.388 938.5L889.762 951L883.825 942.108L875.567 948.636L880.841 937.64L875.952 930.318L883.772 931.531L886.905 925Z" fill="white"/>
<path d="M875 949.818L875.567 948.636M875.567 948.636L886.905 925L889.762 951L875.952 930.318L895 933.273L875.567 948.636Z" stroke="white"/>
<path d="M764.905 997L765.689 1004.14L773 1005.27L766.388 1010.5L767.762 1023L761.825 1014.11L753.567 1020.64L758.841 1009.64L753.952 1002.32L761.772 1003.53L764.905 997Z" fill="white"/>
<path d="M753 1021.82L753.567 1020.64M753.567 1020.64L764.905 997L767.762 1023L753.952 1002.32L773 1005.27L753.567 1020.64Z" stroke="white"/>
<path d="M1367.5 237L1368.32 244.139L1376 245.273L1369.06 250.5L1370.5 263L1364.27 254.108L1355.6 260.636L1361.13 249.64L1356 242.318L1364.21 243.531L1367.5 237Z" fill="white"/>
<path d="M1355 261.818L1355.6 260.636M1355.6 260.636L1367.5 237L1370.5 263L1356 242.318L1376 245.273L1355.6 260.636Z" stroke="white"/>
<path d="M1360.1 787L1360.96 793.864L1369 794.955L1361.73 799.981L1363.24 812L1356.71 803.45L1347.62 809.727L1353.43 799.154L1348.05 792.114L1356.65 793.28L1360.1 787Z" fill="white"/>
<path d="M1347 810.864L1347.62 809.727M1347.62 809.727L1360.1 787L1363.24 812L1348.05 792.114L1369 794.955L1347.62 809.727Z" stroke="white"/>
<path d="M1755.5 228L1756.32 234.59L1764 235.636L1757.06 240.461L1758.5 252L1752.27 243.792L1743.6 249.818L1749.13 239.668L1744 232.909L1752.21 234.029L1755.5 228Z" fill="white"/>
<path d="M1743 250.909L1743.6 249.818M1743.6 249.818L1755.5 228L1758.5 252L1744 232.909L1764 235.636L1743.6 249.818Z" stroke="white"/>
<path d="M1784.1 762L1784.96 768.864L1793 769.955L1785.73 774.981L1787.24 787L1780.71 778.45L1771.62 784.727L1777.43 774.154L1772.05 767.114L1780.65 768.28L1784.1 762Z" fill="white"/>
<path d="M1771 785.864L1771.62 784.727M1771.62 784.727L1784.1 762L1787.24 787L1772.05 767.114L1793 769.955L1771.62 784.727Z" stroke="white"/>
<path d="M968.5 503.5C968.5 823.81 631.121 1084.5 213.5 1084.5C-204.121 1084.5 -541.5 823.81 -541.5 503.5C-541.5 183.19 -204.121 -77.5 213.5 -77.5C631.121 -77.5 968.5 183.19 968.5 503.5Z" fill="#FBF9FF" stroke="black" stroke-width="5"/>
</g>
<defs>
<clipPath id="clip0_1_2">
<rect width="2087" height="1059" fill="white"/>
</clipPath>
</defs>
</svg>
