<svg width="2087" height="1059" viewBox="0 0 2087 1059" fill="none" xmlns="http://www.w3.org/2000/svg">
<g clip-path="url(#clip0_1_2)">
<rect x="-38" width="2125" height="1082" fill="#000807"/>
<path d="M270.071 819L271.13 826.139L281 827.273L272.074 832.5L273.929 845L265.913 836.108L254.765 842.636L261.886 831.64L255.286 824.318L265.842 825.531L270.071 819Z" fill="white"/>
<path d="M254 843.818L254.765 842.636M254.765 842.636L270.071 819L273.929 845L255.286 824.318L281 827.273L254.765 842.636Z" stroke="white"/>
<path d="M1006.26 605L1007.4 612.139L1018 613.273L1008.41 618.5L1010.4 631L1001.8 622.108L989.822 628.636L997.47 617.64L990.381 610.318L1001.72 611.531L1006.26 605Z" fill="white"/>
<path d="M989 629.818L989.822 628.636M989.822 628.636L1006.26 605L1010.4 631L990.381 610.318L1018 613.273L989.822 628.636Z" stroke="white"/>
<path d="M1309.07 118L1310.13 124.864L1320 125.955L1311.07 130.981L1312.93 143L1304.91 134.45L1293.77 140.727L1300.89 130.154L1294.29 123.114L1304.84 124.28L1309.07 118Z" fill="white"/>
<path d="M1293 141.864L1293.77 140.727M1293.77 140.727L1309.07 118L1312.93 143L1294.29 123.114L1320 125.955L1293.77 140.727Z" stroke="white"/>
<path d="M791.667 750L792.765 756.864L803 757.955L793.744 762.981L795.667 775L787.354 766.45L775.794 772.727L783.178 762.154L776.333 755.114L787.281 756.28L791.667 750Z" fill="white"/>
<path d="M775 773.864L775.794 772.727M775.794 772.727L791.667 750L795.667 775L776.333 755.114L803 757.955L775.794 772.727Z" stroke="white"/>
<path d="M1836.67 107L1837.76 113.59L1848 114.636L1838.74 119.461L1840.67 131L1832.35 122.792L1820.79 128.818L1828.18 118.668L1821.33 111.909L1832.28 113.029L1836.67 107Z" fill="white"/>
<path d="M1820 129.909L1820.79 128.818M1820.79 128.818L1836.67 107L1840.67 131L1821.33 111.909L1848 114.636L1820.79 128.818Z" stroke="white"/>
<path d="M1836.07 647L1837.13 653.864L1847 654.955L1838.07 659.981L1839.93 672L1831.91 663.45L1820.77 669.727L1827.89 659.154L1821.29 652.114L1831.84 653.28L1836.07 647Z" fill="white"/>
<path d="M1820 670.864L1820.77 669.727M1820.77 669.727L1836.07 647L1839.93 672L1821.29 652.114L1847 654.955L1820.77 669.727Z" stroke="white"/>
<path d="M1019.67 20L1020.76 27.1387L1031 28.2727L1021.74 33.4999L1023.67 46L1015.35 37.1079L1003.79 43.6364L1011.18 32.6403L1004.33 25.3182L1015.28 26.5311L1019.67 20Z" fill="white"/>
<path d="M1003 44.8182L1003.79 43.6364M1003.79 43.6364L1019.67 20L1023.67 46L1004.33 25.3182L1031 28.2727L1003.79 43.6364Z" stroke="white"/>
<path d="M1012.86 387L1014.03 394.139L1025 395.273L1015.08 400.5L1017.14 413L1008.24 404.108L995.85 410.636L1003.76 399.64L996.429 392.318L1008.16 393.531L1012.86 387Z" fill="white"/>
<path d="M995 411.818L995.85 410.636M995.85 410.636L1012.86 387L1017.14 413L996.429 392.318L1025 395.273L995.85 410.636Z" stroke="white"/>
<path d="M1545.07 10L1546.13 16.8642L1556 17.9545L1547.07 22.9807L1548.93 35L1540.91 26.4499L1529.77 32.7273L1536.89 22.1542L1530.29 15.1136L1540.84 16.2799L1545.07 10Z" fill="white"/>
<path d="M1529 33.8636L1529.77 32.7273M1529.77 32.7273L1545.07 10L1548.93 35L1530.29 15.1136L1556 17.9545L1529.77 32.7273Z" stroke="white"/>
<path d="M1536.67 559L1537.76 565.864L1548 566.955L1538.74 571.981L1540.67 584L1532.35 575.45L1520.79 581.727L1528.18 571.154L1521.33 564.114L1532.28 565.28L1536.67 559Z" fill="white"/>
<path d="M1520 582.864L1520.79 581.727M1520.79 581.727L1536.67 559L1540.67 584L1521.33 564.114L1548 566.955L1520.79 581.727Z" stroke="white"/>
<path d="M2075.26 0L2076.4 6.86416L2087 7.95455L2077.41 12.9807L2079.4 25L2070.8 16.4499L2058.82 22.7273L2066.47 12.1542L2059.38 5.11364L2070.72 6.2799L2075.26 0Z" fill="white"/>
<path d="M2058 23.8636L2058.82 22.7273M2058.82 22.7273L2075.26 0L2079.4 25L2059.38 5.11364L2087 7.95455L2058.82 22.7273Z" stroke="white"/>
<path d="M2066.07 549L2067.13 556.139L2077 557.273L2068.07 562.5L2069.93 575L2061.91 566.108L2050.77 572.636L2057.89 561.64L2051.29 554.318L2061.84 555.531L2066.07 549Z" fill="white"/>
<path d="M2050 573.818L2050.77 572.636M2050.77 572.636L2066.07 549L2069.93 575L2051.29 554.318L2077 557.273L2050.77 572.636Z" stroke="white"/>
<path d="M169.071 932L170.13 938.864L180 939.955L171.074 944.981L172.929 957L164.913 948.45L153.765 954.727L160.886 944.154L154.286 937.114L164.842 938.28L169.071 932Z" fill="white"/>
<path d="M153 955.864L153.765 954.727M153.765 954.727L169.071 932L172.929 957L154.286 937.114L180 939.955L153.765 954.727Z" stroke="white"/>
<path d="M697.667 921L698.765 927.864L709 928.955L699.744 933.981L701.667 946L693.354 937.45L681.794 943.727L689.178 933.154L682.333 926.114L693.281 927.28L697.667 921Z" fill="white"/>
<path d="M681 944.864L681.794 943.727M681.794 943.727L697.667 921L701.667 946L682.333 926.114L709 928.955L681.794 943.727Z" stroke="white"/>
<path d="M918.667 985L919.765 991.59L930 992.636L920.744 997.461L922.667 1009L914.354 1000.79L902.794 1006.82L910.178 996.668L903.333 989.909L914.281 991.029L918.667 985Z" fill="white"/>
<path d="M902 1007.91L902.794 1006.82M902.794 1006.82L918.667 985L922.667 1009L903.333 989.909L930 992.636L902.794 1006.82Z" stroke="white"/>
<path d="M1236.26 361L1237.4 368.139L1248 369.273L1238.41 374.5L1240.4 387L1231.8 378.108L1219.82 384.636L1227.47 373.64L1220.38 366.318L1231.72 367.531L1236.26 361Z" fill="white"/>
<path d="M1219 385.818L1219.82 384.636M1219.82 384.636L1236.26 361L1240.4 387L1220.38 366.318L1248 369.273L1219.82 384.636Z" stroke="white"/>
<path d="M1227.26 911L1228.4 917.864L1239 918.955L1229.41 923.981L1231.4 936L1222.8 927.45L1210.82 933.727L1218.47 923.154L1211.38 916.114L1222.72 917.28L1227.26 911Z" fill="white"/>
<path d="M1210 934.864L1210.82 933.727M1210.82 933.727L1227.26 911L1231.4 936L1211.38 916.114L1239 918.955L1210.82 933.727Z" stroke="white"/>
<path d="M1385.26 781L1386.4 787.864L1397 788.955L1387.41 793.981L1389.4 806L1380.8 797.45L1368.82 803.727L1376.47 793.154L1369.38 786.114L1380.72 787.28L1385.26 781Z" fill="white"/>
<path d="M1368 804.864L1368.82 803.727M1368.82 803.727L1385.26 781L1389.4 806L1369.38 786.114L1397 788.955L1368.82 803.727Z" stroke="white"/>
<path d="M1902.86 240L1904.03 246.864L1915 247.955L1905.08 252.981L1907.14 265L1898.24 256.45L1885.85 262.727L1893.76 252.154L1886.43 245.114L1898.16 246.28L1902.86 240Z" fill="white"/>
<path d="M1885 263.864L1885.85 262.727M1885.85 262.727L1902.86 240L1907.14 265L1886.43 245.114L1915 247.955L1885.85 262.727Z" stroke="white"/>
<path d="M1756.86 901L1758.03 907.59L1769 908.636L1759.08 913.461L1761.14 925L1752.24 916.792L1739.85 922.818L1747.76 912.668L1740.43 905.909L1752.16 907.029L1756.86 901Z" fill="white"/>
<path d="M1739 923.909L1739.85 922.818M1739.85 922.818L1756.86 901L1761.14 925L1740.43 905.909L1769 908.636L1739.85 922.818Z" stroke="white"/>
<path d="M1516.26 1034L1517.4 1040.86L1528 1041.95L1518.41 1046.98L1520.4 1059L1511.8 1050.45L1499.82 1056.73L1507.47 1046.15L1500.38 1039.11L1511.72 1040.28L1516.26 1034Z" fill="white"/>
<path d="M1499 1057.86L1499.82 1056.73M1499.82 1056.73L1516.26 1034L1520.4 1059L1500.38 1039.11L1528 1041.95L1499.82 1056.73Z" stroke="white"/>
<path d="M1925.26 443L1926.4 450.139L1937 451.273L1927.41 456.5L1929.4 469L1920.8 460.108L1908.82 466.636L1916.47 455.64L1909.38 448.318L1920.72 449.531L1925.26 443Z" fill="white"/>
<path d="M1908 467.818L1908.82 466.636M1908.82 466.636L1925.26 443L1929.4 469L1909.38 448.318L1937 451.273L1908.82 466.636Z" stroke="white"/>
<path d="M1917.26 992L1918.4 999.139L1929 1000.27L1919.41 1005.5L1921.4 1018L1912.8 1009.11L1900.82 1015.64L1908.47 1004.64L1901.38 997.318L1912.72 998.531L1917.26 992Z" fill="white"/>
<path d="M1900 1016.82L1900.82 1015.64M1900.82 1015.64L1917.26 992L1921.4 1018L1901.38 997.318L1929 1000.27L1900.82 1015.64Z" stroke="white"/>
<path d="M2061.67 316L2062.76 322.864L2073 323.955L2063.74 328.981L2065.67 341L2057.35 332.45L2045.79 338.727L2053.18 328.154L2046.33 321.114L2057.28 322.28L2061.67 316Z" fill="white"/>
<path d="M2045 339.864L2045.79 338.727M2045.79 338.727L2061.67 316L2065.67 341L2046.33 321.114L2073 323.955L2045.79 338.727Z" stroke="white"/>
<path d="M2045.26 872L2046.4 879.139L2057 880.273L2047.41 885.5L2049.4 898L2040.8 889.108L2028.82 895.636L2036.47 884.64L2029.38 877.318L2040.72 878.531L2045.26 872Z" fill="white"/>
<path d="M2028 896.818L2028.82 895.636M2028.82 895.636L2045.26 872L2049.4 898L2029.38 877.318L2057 880.273L2028.82 895.636Z" stroke="white"/>
<path d="M1020.07 20L1021.13 27.1387L1031 28.2727L1022.07 33.4999L1023.93 46L1015.91 37.1079L1004.77 43.6364L1011.89 32.6403L1005.29 25.3182L1015.84 26.5311L1020.07 20Z" fill="white"/>
<path d="M1004 44.8182L1004.77 43.6364M1004.77 43.6364L1020.07 20L1023.93 46L1005.29 25.3182L1031 28.2727L1004.77 43.6364Z" stroke="white"/>
<path d="M1256.86 530L1258.03 537.139L1269 538.273L1259.08 543.5L1261.14 556L1252.24 547.108L1239.85 553.636L1247.76 542.64L1240.43 535.318L1252.16 536.531L1256.86 530Z" fill="white"/>
<path d="M1239 554.818L1239.85 553.636M1239.85 553.636L1256.86 530L1261.14 556L1240.43 535.318L1269 538.273L1239.85 553.636Z" stroke="white"/>
<path d="M1546.26 10L1547.4 16.8642L1558 17.9545L1548.41 22.9807L1550.4 35L1541.8 26.4499L1529.82 32.7273L1537.47 22.1542L1530.38 15.1136L1541.72 16.2799L1546.26 10Z" fill="white"/>
<path d="M1529 33.8636L1529.82 32.7273M1529.82 32.7273L1546.26 10L1550.4 35L1530.38 15.1136L1558 17.9545L1529.82 32.7273Z" stroke="white"/>
<path d="M1727.67 408L1728.76 414.864L1739 415.955L1729.74 420.981L1731.67 433L1723.35 424.45L1711.79 430.727L1719.18 420.154L1712.33 413.114L1723.28 414.28L1727.67 408Z" fill="white"/>
<path d="M1711 431.864L1711.79 430.727M1711.79 430.727L1727.67 408L1731.67 433L1712.33 413.114L1739 415.955L1711.79 430.727Z" stroke="white"/>
<path d="M1503.07 338L1504.13 345.139L1514 346.273L1505.07 351.5L1506.93 364L1498.91 355.108L1487.77 361.636L1494.89 350.64L1488.29 343.318L1498.84 344.531L1503.07 338Z" fill="white"/>
<path d="M1487 362.818L1487.77 361.636M1487.77 361.636L1503.07 338L1506.93 364L1488.29 343.318L1514 346.273L1487.77 361.636Z" stroke="white"/>
<path d="M37.8571 807L39.0339 813.59L50 814.636L40.0824 819.461L42.1429 831L33.2368 822.792L20.8503 828.818L28.7622 818.668L21.4286 811.909L33.1579 813.029L37.8571 807Z" fill="white"/>
<path d="M20 829.909L20.8503 828.818M20.8503 828.818L37.8571 807L42.1429 831L21.4286 811.909L50 814.636L20.8503 828.818Z" stroke="white"/>
<path d="M567.071 796L568.13 803.139L578 804.273L569.074 809.5L570.929 822L562.913 813.108L551.765 819.636L558.886 808.64L552.286 801.318L562.842 802.531L567.071 796Z" fill="white"/>
<path d="M551 820.818L551.765 819.636M551.765 819.636L567.071 796L570.929 822L552.286 801.318L578 804.273L551.765 819.636Z" stroke="white"/>
<path d="M450.071 925L451.13 932.139L461 933.273L452.074 938.5L453.929 951L445.913 942.108L434.765 948.636L441.886 937.64L435.286 930.318L445.842 931.531L450.071 925Z" fill="white"/>
<path d="M434 949.818L434.765 948.636M434.765 948.636L450.071 925L453.929 951L435.286 930.318L461 933.273L434.765 948.636Z" stroke="white"/>
<path d="M283.667 997L284.765 1004.14L295 1005.27L285.744 1010.5L287.667 1023L279.354 1014.11L267.794 1020.64L275.178 1009.64L268.333 1002.32L279.281 1003.53L283.667 997Z" fill="white"/>
<path d="M267 1021.82L267.794 1020.64M267.794 1020.64L283.667 997L287.667 1023L268.333 1002.32L295 1005.27L267.794 1020.64Z" stroke="white"/>
<path d="M1105.67 237L1106.76 244.139L1117 245.273L1107.74 250.5L1109.67 263L1101.35 254.108L1089.79 260.636L1097.18 249.64L1090.33 242.318L1101.28 243.531L1105.67 237Z" fill="white"/>
<path d="M1089 261.818L1089.79 260.636M1089.79 260.636L1105.67 237L1109.67 263L1090.33 242.318L1117 245.273L1089.79 260.636Z" stroke="white"/>
<path d="M1095.86 787L1097.03 793.864L1108 794.955L1098.08 799.981L1100.14 812L1091.24 803.45L1078.85 809.727L1086.76 799.154L1079.43 792.114L1091.16 793.28L1095.86 787Z" fill="white"/>
<path d="M1078 810.864L1078.85 809.727M1078.85 809.727L1095.86 787L1100.14 812L1079.43 792.114L1108 794.955L1078.85 809.727Z" stroke="white"/>
<path d="M1634.67 228L1635.76 234.59L1646 235.636L1636.74 240.461L1638.67 252L1630.35 243.792L1618.79 249.818L1626.18 239.668L1619.33 232.909L1630.28 234.029L1634.67 228Z" fill="white"/>
<path d="M1618 250.909L1618.79 249.818M1618.79 249.818L1634.67 228L1638.67 252L1619.33 232.909L1646 235.636L1618.79 249.818Z" stroke="white"/>
<path d="M1673.86 762L1675.03 768.864L1686 769.955L1676.08 774.981L1678.14 787L1669.24 778.45L1656.85 784.727L1664.76 774.154L1657.43 767.114L1669.16 768.28L1673.86 762Z" fill="white"/>
<path d="M1656 785.864L1656.85 784.727M1656.85 784.727L1673.86 762L1678.14 787L1657.43 767.114L1686 769.955L1656.85 784.727Z" stroke="white"/>
<path d="M1044 111.192C1044 470.623 747.551 762 381.863 762C16.1754 762 -303 457.239 -303 97.8079C-303 -261.623 -6.55136 -553 359.137 -553C724.825 -553 1044 -248.239 1044 111.192Z" fill="#FBF9FF"/>
<path d="M292.667 92L293.765 98.8642L304 99.9545L294.744 104.981L296.667 117L288.354 108.45L276.794 114.727L284.178 104.154L277.333 97.1136L288.281 98.2799L292.667 92Z" fill="black"/>
<path d="M276 115.864L276.794 114.727M276.794 114.727L292.667 92L296.667 117L277.333 97.1136L304 99.9545L276.794 114.727Z" stroke="black"/>
<path d="M321.857 518L323.034 524.864L334 525.955L324.082 530.981L326.143 543L317.237 534.45L304.85 540.727L312.762 530.154L305.429 523.114L317.158 524.28L321.857 518Z" fill="black"/>
<path d="M304 541.864L304.85 540.727M304.85 540.727L321.857 518L326.143 543L305.429 523.114L334 525.955L304.85 540.727Z" stroke="black"/>
<path d="M510.262 469L511.399 476.139L522 477.273L512.413 482.5L514.405 495L505.796 486.108L493.822 492.636L501.47 481.64L494.381 474.318L505.719 475.531L510.262 469Z" fill="black"/>
<path d="M493 493.818L493.822 492.636M493.822 492.636L510.262 469L514.405 495L494.381 474.318L522 477.273L493.822 492.636Z" stroke="black"/>
<path d="M932.262 51L933.399 58.1387L944 59.2727L934.413 64.4999L936.405 77L927.796 68.1079L915.822 74.6364L923.47 63.6403L916.381 56.3182L927.719 57.5311L932.262 51Z" fill="black"/>
<path d="M915 75.8182L915.822 74.6364M915.822 74.6364L932.262 51L936.405 77L916.381 56.3182L944 59.2727L915.822 74.6364Z" stroke="black"/>
<path d="M584.262 26L585.399 32.8642L596 33.9545L586.413 38.9807L588.405 51L579.796 42.4499L567.822 48.7273L575.47 38.1542L568.381 31.1136L579.719 32.2799L584.262 26Z" fill="black"/>
<path d="M567 49.8636L567.822 48.7273M567.822 48.7273L584.262 26L588.405 51L568.381 31.1136L596 33.9545L567.822 48.7273Z" stroke="black"/>
<path d="M683.071 617L684.13 623.864L694 624.955L685.074 629.981L686.929 642L678.913 633.45L667.765 639.727L674.886 629.154L668.286 622.114L678.842 623.28L683.071 617Z" fill="black"/>
<path d="M667 640.864L667.765 639.727M667.765 639.727L683.071 617L686.929 642L668.286 622.114L694 624.955L667.765 639.727Z" stroke="black"/>
<path d="M306.667 275L307.765 281.864L318 282.955L308.744 287.981L310.667 300L302.354 291.45L290.794 297.727L298.178 287.154L291.333 280.114L302.281 281.28L306.667 275Z" fill="black"/>
<path d="M290 298.864L290.794 297.727M290.794 297.727L306.667 275L310.667 300L291.333 280.114L318 282.955L290.794 297.727Z" stroke="black"/>
<path d="M983.262 192L984.399 198.315L995 199.318L985.413 203.942L987.405 215L978.796 207.134L966.822 212.909L974.47 203.182L967.381 196.705L978.719 197.778L983.262 192Z" fill="black"/>
<path d="M966 213.955L966.822 212.909M966.822 212.909L983.262 192L987.405 215L967.381 196.705L995 199.318L966.822 212.909Z" stroke="black"/>
<path d="M82.8571 51L84.0339 57.8642L95 58.9545L85.0824 63.9807L87.1429 76L78.2368 67.4499L65.8503 73.7273L73.7622 63.1542L66.4286 56.1136L78.1579 57.2799L82.8571 51Z" fill="black"/>
<path d="M65 74.8636L65.8503 73.7273M65.8503 73.7273L82.8571 51L87.1429 76L66.4286 56.1136L95 58.9545L65.8503 73.7273Z" stroke="black"/>
<path d="M118.667 642L119.765 648.864L130 649.955L120.744 654.981L122.667 667L114.354 658.45L102.794 664.727L110.178 654.154L103.333 647.114L114.281 648.28L118.667 642Z" fill="black"/>
<path d="M102 665.864L102.794 664.727M102.794 664.727L118.667 642L122.667 667L103.333 647.114L130 649.955L102.794 664.727Z" stroke="black"/>
<path d="M539.262 263L540.399 269.864L551 270.955L541.413 275.981L543.405 288L534.796 279.45L522.822 285.727L530.47 275.154L523.381 268.114L534.719 269.28L539.262 263Z" fill="black"/>
<path d="M522 286.864L522.822 285.727M522.822 285.727L539.262 263L543.405 288L523.381 268.114L551 270.955L522.822 285.727Z" stroke="black"/>
<path d="M655.262 365L656.399 371.864L667 372.955L657.413 377.981L659.405 390L650.796 381.45L638.822 387.727L646.47 377.154L639.381 370.114L650.719 371.28L655.262 365Z" fill="black"/>
<path d="M638 388.864L638.822 387.727M638.822 387.727L655.262 365L659.405 390L639.381 370.114L667 372.955L638.822 387.727Z" stroke="black"/>
<path d="M407.857 694L409.034 701.139L420 702.273L410.082 707.5L412.143 720L403.237 711.108L390.85 717.636L398.762 706.64L391.429 699.318L403.158 700.531L407.857 694Z" fill="black"/>
<path d="M390 718.818L390.85 717.636M390.85 717.636L407.857 694L412.143 720L391.429 699.318L420 702.273L390.85 717.636Z" stroke="black"/>
<path d="M120.262 408L121.399 414.864L132 415.955L122.413 420.981L124.405 433L115.796 424.45L103.822 430.727L111.47 420.154L104.381 413.114L115.719 414.28L120.262 408Z" fill="black"/>
<path d="M103 431.864L103.822 430.727M103.822 430.727L120.262 408L124.405 433L104.381 413.114L132 415.955L103.822 430.727Z" stroke="black"/>
<path d="M852.262 420L853.399 427.139L864 428.273L854.413 433.5L856.405 446L847.796 437.108L835.822 443.636L843.47 432.64L836.381 425.318L847.719 426.531L852.262 420Z" fill="black"/>
<path d="M835 444.818L835.822 443.636M835.822 443.636L852.262 420L856.405 446L836.381 425.318L864 428.273L835.822 443.636Z" stroke="black"/>
<path d="M119.071 212L120.13 218.864L130 219.955L121.074 224.981L122.929 237L114.913 228.45L103.765 234.727L110.886 224.154L104.286 217.114L114.842 218.28L119.071 212Z" fill="black"/>
<path d="M103 235.864L103.765 234.727M103.765 234.727L119.071 212L122.929 237L104.286 217.114L130 219.955L103.765 234.727Z" stroke="black"/>
<path d="M763.667 143L764.765 149.864L775 150.955L765.744 155.981L767.667 168L759.354 159.45L747.794 165.727L755.178 155.154L748.333 148.114L759.281 149.28L763.667 143Z" fill="black"/>
<path d="M747 166.864L747.794 165.727M747.794 165.727L763.667 143L767.667 168L748.333 148.114L775 150.955L747.794 165.727Z" stroke="black"/>
</g>
<defs>
<clipPath id="clip0_1_2">
<rect width="2087" height="1059" fill="white"/>
</clipPath>
</defs>
</svg>
