<svg width="1620" height="1152" viewBox="0 0 1620 1152" fill="none" xmlns="http://www.w3.org/2000/svg">
<rect width="1620" height="1152" fill="white"/>
<rect width="162" height="144" fill="#92BFB1"/>
<rect y="288" width="162" height="144" fill="#92BFB1"/>
<rect y="576" width="162" height="144" fill="#92BFB1"/>
<rect y="864" width="162" height="144" fill="#92BFB1"/>
<rect x="162" y="144" width="162" height="144" fill="#92BFB1"/>
<rect x="162" y="432" width="162" height="144" fill="#92BFB1"/>
<rect x="162" y="720" width="162" height="144" fill="#92BFB1"/>
<rect x="162" y="1008" width="162" height="144" fill="#92BFB1"/>
<rect x="324" width="162" height="144" fill="#92BFB1"/>
<rect x="324" y="288" width="162" height="144" fill="#92BFB1"/>
<rect x="324" y="576" width="162" height="144" fill="#92BFB1"/>
<rect x="324" y="864" width="162" height="144" fill="#92BFB1"/>
<rect x="486" y="144" width="162" height="144" fill="#92BFB1"/>
<rect x="486" y="432" width="162" height="144" fill="#92BFB1"/>
<rect x="486" y="720" width="162" height="144" fill="#92BFB1"/>
<rect x="486" y="1008" width="162" height="144" fill="#92BFB1"/>
<rect x="648" width="162" height="144" fill="#92BFB1"/>
<rect x="648" y="288" width="162" height="144" fill="#92BFB1"/>
<rect x="648" y="576" width="162" height="144" fill="#92BFB1"/>
<rect x="648" y="864" width="162" height="144" fill="#92BFB1"/>
<rect x="810" y="144" width="162" height="144" fill="#92BFB1"/>
<rect x="810" y="432" width="162" height="144" fill="#92BFB1"/>
<rect x="810" y="720" width="162" height="144" fill="#92BFB1"/>
<rect x="810" y="1008" width="162" height="144" fill="#92BFB1"/>
<rect x="972" width="162" height="144" fill="#92BFB1"/>
<rect x="972" y="288" width="162" height="144" fill="#92BFB1"/>
<rect x="972" y="576" width="162" height="144" fill="#92BFB1"/>
<rect x="972" y="864" width="162" height="144" fill="#92BFB1"/>
<rect x="1134" y="144" width="162" height="144" fill="#92BFB1"/>
<rect x="1134" y="432" width="162" height="144" fill="#92BFB1"/>
<rect x="1134" y="720" width="162" height="144" fill="#92BFB1"/>
<rect x="1134" y="1008" width="162" height="144" fill="#92BFB1"/>
<rect x="1458" y="144" width="162" height="144" fill="#92BFB1"/>
<rect x="1458" y="432" width="162" height="144" fill="#92BFB1"/>
<rect x="1458" y="720" width="162" height="144" fill="#92BFB1"/>
<rect x="1458" y="1008" width="162" height="144" fill="#92BFB1"/>
<rect x="1296" width="162" height="144" fill="#92BFB1"/>
<rect x="1296" y="288" width="162" height="144" fill="#92BFB1"/>
<rect x="1296" y="576" width="162" height="144" fill="#92BFB1"/>
<rect x="1296" y="864" width="162" height="144" fill="#92BFB1"/>
<rect x="162" width="162" height="144" fill="#FF8966"/>
<rect x="162" y="288" width="162" height="144" fill="#FF8966"/>
<rect x="162" y="576" width="162" height="144" fill="#FF8966"/>
<rect x="162" y="864" width="162" height="144" fill="#FF8966"/>
<rect y="144" width="162" height="144" fill="#FF8966"/>
<rect y="432" width="162" height="144" fill="#FF8966"/>
<rect y="720" width="162" height="144" fill="#FF8966"/>
<rect y="1008" width="162" height="144" fill="#FF8966"/>
<rect x="486" width="162" height="144" fill="#FF8966"/>
<rect x="486" y="288" width="162" height="144" fill="#FF8966"/>
<rect x="486" y="576" width="162" height="144" fill="#FF8966"/>
<rect x="486" y="864" width="162" height="144" fill="#FF8966"/>
<rect x="324" y="144" width="162" height="144" fill="#FF8966"/>
<rect x="324" y="432" width="162" height="144" fill="#FF8966"/>
<rect x="324" y="720" width="162" height="144" fill="#FF8966"/>
<rect x="324" y="1008" width="162" height="144" fill="#FF8966"/>
<rect x="810" width="162" height="144" fill="#FF8966"/>
<rect x="810" y="288" width="162" height="144" fill="#FF8966"/>
<rect x="810" y="576" width="162" height="144" fill="#FF8966"/>
<rect x="810" y="864" width="162" height="144" fill="#FF8966"/>
<rect x="648" y="144" width="162" height="144" fill="#FF8966"/>
<rect x="648" y="432" width="162" height="144" fill="#FF8966"/>
<rect x="648" y="720" width="162" height="144" fill="#FF8966"/>
<rect x="648" y="1008" width="162" height="144" fill="#FF8966"/>
<rect x="1134" width="162" height="144" fill="#FF8966"/>
<rect x="1134" y="288" width="162" height="144" fill="#FF8966"/>
<rect x="1134" y="576" width="162" height="144" fill="#FF8966"/>
<rect x="1134" y="864" width="162" height="144" fill="#FF8966"/>
<rect x="1458" width="162" height="144" fill="#FF8966"/>
<rect x="1458" y="288" width="162" height="144" fill="#FF8966"/>
<rect x="1458" y="576" width="162" height="144" fill="#FF8966"/>
<rect x="1458" y="864" width="162" height="144" fill="#FF8966"/>
<rect x="972" y="144" width="162" height="144" fill="#FF8966"/>
<rect x="972" y="432" width="162" height="144" fill="#FF8966"/>
<rect x="972" y="720" width="162" height="144" fill="#FF8966"/>
<rect x="972" y="1008" width="162" height="144" fill="#FF8966"/>
<rect x="1296" y="144" width="162" height="144" fill="#FF8966"/>
<rect x="1296" y="432" width="162" height="144" fill="#FF8966"/>
<rect x="1296" y="720" width="162" height="144" fill="#FF8966"/>
<rect x="1296" y="1008" width="162" height="144" fill="#FF8966"/>
</svg>
