<svg width="1920" height="1024" viewBox="0 0 1920 1024" fill="none" xmlns="http://www.w3.org/2000/svg">
<g clip-path="url(#clip0_6_2)">
<rect width="1920" height="1024" fill="#6F6F6F"/>
<g filter="url(#filter0_d_6_2)">
<path d="M495.516 181.888C495.516 199.499 479.564 213.776 459.887 213.776C440.209 213.776 424.258 199.499 424.258 181.888C424.258 164.277 440.209 150 459.887 150C479.564 150 495.516 164.277 495.516 181.888Z" fill="#D9D9D9"/>
<path d="M537.717 197.329C537.717 214.94 521.61 229.217 501.742 229.217C481.874 229.217 465.767 214.94 465.767 197.329C465.767 179.717 481.874 165.441 501.742 165.441C521.61 165.441 537.717 179.717 537.717 197.329Z" fill="#D9D9D9"/>
<path d="M460.233 197.329C460.233 214.94 444.126 229.217 424.258 229.217C404.39 229.217 388.283 214.94 388.283 197.329C388.283 179.717 404.39 165.441 424.258 165.441C444.126 165.441 460.233 179.717 460.233 197.329Z" fill="#D9D9D9"/>
<path d="M573 214.112C573 231.723 557.048 246 537.371 246C517.694 246 501.742 231.723 501.742 214.112C501.742 196.501 517.694 182.224 537.371 182.224C557.048 182.224 573 196.501 573 214.112Z" fill="#D9D9D9"/>
<path d="M424.258 214.112C424.258 231.723 408.306 246 388.629 246C368.952 246 353 231.723 353 214.112C353 196.501 368.952 182.224 388.629 182.224C408.306 182.224 424.258 196.501 424.258 214.112Z" fill="#D9D9D9"/>
<path d="M471.302 214.112C471.302 231.723 455.505 246 436.019 246C416.533 246 400.736 231.723 400.736 214.112C400.736 196.501 416.533 182.224 436.019 182.224C455.505 182.224 471.302 196.501 471.302 214.112Z" fill="#D9D9D9"/>
<path d="M519.038 214.112C519.038 231.723 503.086 246 483.409 246C463.731 246 447.78 231.723 447.78 214.112C447.78 196.501 463.731 182.224 483.409 182.224C503.086 182.224 519.038 196.501 519.038 214.112Z" fill="#D9D9D9"/>
</g>
<g filter="url(#filter1_d_6_2)">
<path d="M1784.52 181.888C1784.52 199.499 1768.56 213.776 1748.89 213.776C1729.21 213.776 1713.26 199.499 1713.26 181.888C1713.26 164.277 1729.21 150 1748.89 150C1768.56 150 1784.52 164.277 1784.52 181.888Z" fill="#D9D9D9"/>
<path d="M1826.72 197.329C1826.72 214.94 1810.61 229.217 1790.74 229.217C1770.87 229.217 1754.77 214.94 1754.77 197.329C1754.77 179.717 1770.87 165.441 1790.74 165.441C1810.61 165.441 1826.72 179.717 1826.72 197.329Z" fill="#D9D9D9"/>
<path d="M1749.23 197.329C1749.23 214.94 1733.13 229.217 1713.26 229.217C1693.39 229.217 1677.28 214.94 1677.28 197.329C1677.28 179.717 1693.39 165.441 1713.26 165.441C1733.13 165.441 1749.23 179.717 1749.23 197.329Z" fill="#D9D9D9"/>
<path d="M1862 214.112C1862 231.723 1846.05 246 1826.37 246C1806.69 246 1790.74 231.723 1790.74 214.112C1790.74 196.501 1806.69 182.224 1826.37 182.224C1846.05 182.224 1862 196.501 1862 214.112Z" fill="#D9D9D9"/>
<path d="M1713.26 214.112C1713.26 231.723 1697.31 246 1677.63 246C1657.95 246 1642 231.723 1642 214.112C1642 196.501 1657.95 182.224 1677.63 182.224C1697.31 182.224 1713.26 196.501 1713.26 214.112Z" fill="#D9D9D9"/>
<path d="M1760.3 214.112C1760.3 231.723 1744.51 246 1725.02 246C1705.53 246 1689.74 231.723 1689.74 214.112C1689.74 196.501 1705.53 182.224 1725.02 182.224C1744.51 182.224 1760.3 196.501 1760.3 214.112Z" fill="#D9D9D9"/>
<path d="M1808.04 214.112C1808.04 231.723 1792.09 246 1772.41 246C1752.73 246 1736.78 231.723 1736.78 214.112C1736.78 196.501 1752.73 182.224 1772.41 182.224C1792.09 182.224 1808.04 196.501 1808.04 214.112Z" fill="#D9D9D9"/>
</g>
<g filter="url(#filter2_d_6_2)">
<path d="M715.516 402.888C715.516 420.499 699.564 434.776 679.887 434.776C660.209 434.776 644.258 420.499 644.258 402.888C644.258 385.277 660.209 371 679.887 371C699.564 371 715.516 385.277 715.516 402.888Z" fill="#D9D9D9"/>
<path d="M757.717 418.329C757.717 435.94 741.61 450.217 721.742 450.217C701.874 450.217 685.767 435.94 685.767 418.329C685.767 400.717 701.874 386.441 721.742 386.441C741.61 386.441 757.717 400.717 757.717 418.329Z" fill="#D9D9D9"/>
<path d="M680.233 418.329C680.233 435.94 664.126 450.217 644.258 450.217C624.39 450.217 608.283 435.94 608.283 418.329C608.283 400.717 624.39 386.441 644.258 386.441C664.126 386.441 680.233 400.717 680.233 418.329Z" fill="#D9D9D9"/>
<path d="M793 435.112C793 452.723 777.048 467 757.371 467C737.694 467 721.742 452.723 721.742 435.112C721.742 417.501 737.694 403.224 757.371 403.224C777.048 403.224 793 417.501 793 435.112Z" fill="#D9D9D9"/>
<path d="M644.258 435.112C644.258 452.723 628.306 467 608.629 467C588.952 467 573 452.723 573 435.112C573 417.501 588.952 403.224 608.629 403.224C628.306 403.224 644.258 417.501 644.258 435.112Z" fill="#D9D9D9"/>
<path d="M691.302 435.112C691.302 452.723 675.505 467 656.019 467C636.533 467 620.736 452.723 620.736 435.112C620.736 417.501 636.533 403.224 656.019 403.224C675.505 403.224 691.302 417.501 691.302 435.112Z" fill="#D9D9D9"/>
<path d="M739.038 435.112C739.038 452.723 723.086 467 703.409 467C683.731 467 667.78 452.723 667.78 435.112C667.78 417.501 683.731 403.224 703.409 403.224C723.086 403.224 739.038 417.501 739.038 435.112Z" fill="#D9D9D9"/>
</g>
<g filter="url(#filter3_d_6_2)">
<path d="M1502.52 421.888C1502.52 439.499 1486.56 453.776 1466.89 453.776C1447.21 453.776 1431.26 439.499 1431.26 421.888C1431.26 404.277 1447.21 390 1466.89 390C1486.56 390 1502.52 404.277 1502.52 421.888Z" fill="#D9D9D9"/>
<path d="M1544.72 437.329C1544.72 454.94 1528.61 469.217 1508.74 469.217C1488.87 469.217 1472.77 454.94 1472.77 437.329C1472.77 419.717 1488.87 405.441 1508.74 405.441C1528.61 405.441 1544.72 419.717 1544.72 437.329Z" fill="#D9D9D9"/>
<path d="M1467.23 437.329C1467.23 454.94 1451.13 469.217 1431.26 469.217C1411.39 469.217 1395.28 454.94 1395.28 437.329C1395.28 419.717 1411.39 405.441 1431.26 405.441C1451.13 405.441 1467.23 419.717 1467.23 437.329Z" fill="#D9D9D9"/>
<path d="M1580 454.112C1580 471.723 1564.05 486 1544.37 486C1524.69 486 1508.74 471.723 1508.74 454.112C1508.74 436.501 1524.69 422.224 1544.37 422.224C1564.05 422.224 1580 436.501 1580 454.112Z" fill="#D9D9D9"/>
<path d="M1431.26 454.112C1431.26 471.723 1415.31 486 1395.63 486C1375.95 486 1360 471.723 1360 454.112C1360 436.501 1375.95 422.224 1395.63 422.224C1415.31 422.224 1431.26 436.501 1431.26 454.112Z" fill="#D9D9D9"/>
<path d="M1478.3 454.112C1478.3 471.723 1462.51 486 1443.02 486C1423.53 486 1407.74 471.723 1407.74 454.112C1407.74 436.501 1423.53 422.224 1443.02 422.224C1462.51 422.224 1478.3 436.501 1478.3 454.112Z" fill="#D9D9D9"/>
<path d="M1526.04 454.112C1526.04 471.723 1510.09 486 1490.41 486C1470.73 486 1454.78 471.723 1454.78 454.112C1454.78 436.501 1470.73 422.224 1490.41 422.224C1510.09 422.224 1526.04 436.501 1526.04 454.112Z" fill="#D9D9D9"/>
</g>
<g filter="url(#filter4_d_6_2)">
<path d="M198.516 325.888C198.516 343.499 182.564 357.776 162.887 357.776C143.209 357.776 127.258 343.499 127.258 325.888C127.258 308.277 143.209 294 162.887 294C182.564 294 198.516 308.277 198.516 325.888Z" fill="#D9D9D9"/>
<path d="M240.717 341.329C240.717 358.94 224.61 373.217 204.742 373.217C184.874 373.217 168.767 358.94 168.767 341.329C168.767 323.717 184.874 309.441 204.742 309.441C224.61 309.441 240.717 323.717 240.717 341.329Z" fill="#D9D9D9"/>
<path d="M163.233 341.329C163.233 358.94 147.126 373.217 127.258 373.217C107.39 373.217 91.283 358.94 91.283 341.329C91.283 323.717 107.39 309.441 127.258 309.441C147.126 309.441 163.233 323.717 163.233 341.329Z" fill="#D9D9D9"/>
<path d="M276 358.112C276 375.723 260.048 390 240.371 390C220.694 390 204.742 375.723 204.742 358.112C204.742 340.501 220.694 326.224 240.371 326.224C260.048 326.224 276 340.501 276 358.112Z" fill="#D9D9D9"/>
<path d="M127.258 358.112C127.258 375.723 111.306 390 91.6289 390C71.9516 390 56 375.723 56 358.112C56 340.501 71.9516 326.224 91.6289 326.224C111.306 326.224 127.258 340.501 127.258 358.112Z" fill="#D9D9D9"/>
<path d="M174.302 358.112C174.302 375.723 158.505 390 139.019 390C119.533 390 103.736 375.723 103.736 358.112C103.736 340.501 119.533 326.224 139.019 326.224C158.505 326.224 174.302 340.501 174.302 358.112Z" fill="#D9D9D9"/>
<path d="M222.038 358.112C222.038 375.723 206.086 390 186.409 390C166.731 390 150.78 375.723 150.78 358.112C150.78 340.501 166.731 326.224 186.409 326.224C206.086 326.224 222.038 340.501 222.038 358.112Z" fill="#D9D9D9"/>
</g>
<g filter="url(#filter5_d_6_2)">
<path d="M1170.52 277.888C1170.52 295.499 1154.56 309.776 1134.89 309.776C1115.21 309.776 1099.26 295.499 1099.26 277.888C1099.26 260.277 1115.21 246 1134.89 246C1154.56 246 1170.52 260.277 1170.52 277.888Z" fill="#D9D9D9"/>
<path d="M1212.72 293.329C1212.72 310.94 1196.61 325.217 1176.74 325.217C1156.87 325.217 1140.77 310.94 1140.77 293.329C1140.77 275.717 1156.87 261.441 1176.74 261.441C1196.61 261.441 1212.72 275.717 1212.72 293.329Z" fill="#D9D9D9"/>
<path d="M1135.23 293.329C1135.23 310.94 1119.13 325.217 1099.26 325.217C1079.39 325.217 1063.28 310.94 1063.28 293.329C1063.28 275.717 1079.39 261.441 1099.26 261.441C1119.13 261.441 1135.23 275.717 1135.23 293.329Z" fill="#D9D9D9"/>
<path d="M1248 310.112C1248 327.723 1232.05 342 1212.37 342C1192.69 342 1176.74 327.723 1176.74 310.112C1176.74 292.501 1192.69 278.224 1212.37 278.224C1232.05 278.224 1248 292.501 1248 310.112Z" fill="#D9D9D9"/>
<path d="M1099.26 310.112C1099.26 327.723 1083.31 342 1063.63 342C1043.95 342 1028 327.723 1028 310.112C1028 292.501 1043.95 278.224 1063.63 278.224C1083.31 278.224 1099.26 292.501 1099.26 310.112Z" fill="#D9D9D9"/>
<path d="M1146.3 310.112C1146.3 327.723 1130.51 342 1111.02 342C1091.53 342 1075.74 327.723 1075.74 310.112C1075.74 292.501 1091.53 278.224 1111.02 278.224C1130.51 278.224 1146.3 292.501 1146.3 310.112Z" fill="#D9D9D9"/>
<path d="M1194.04 310.112C1194.04 327.723 1178.09 342 1158.41 342C1138.73 342 1122.78 327.723 1122.78 310.112C1122.78 292.501 1138.73 278.224 1158.41 278.224C1178.09 278.224 1194.04 292.501 1194.04 310.112Z" fill="#D9D9D9"/>
</g>
<ellipse cx="38.5" cy="964.5" rx="152.5" ry="142.5" fill="#D9D9D9"/>
<ellipse cx="190.5" cy="909.5" rx="152.5" ry="142.5" fill="#D9D9D9"/>
<ellipse cx="370.5" cy="944.5" rx="152.5" ry="142.5" fill="#D9D9D9"/>
<ellipse cx="606.5" cy="916.5" rx="186.5" ry="170.5" fill="#D9D9D9"/>
<ellipse cx="841.5" cy="936.5" rx="186.5" ry="170.5" fill="#D9D9D9"/>
<ellipse cx="1104.5" cy="881.5" rx="186.5" ry="170.5" fill="#D9D9D9"/>
<ellipse cx="1283.5" cy="964.5" rx="186.5" ry="170.5" fill="#D9D9D9"/>
<ellipse cx="1477.5" cy="972.5" rx="186.5" ry="170.5" fill="#D9D9D9"/>
<ellipse cx="1790" cy="899.5" rx="210" ry="187.5" fill="#D9D9D9"/>
</g>
<defs>
<filter id="filter0_d_6_2" x="306" y="127" width="294" height="170" filterUnits="userSpaceOnUse" color-interpolation-filters="sRGB">
<feFlood flood-opacity="0" result="BackgroundImageFix"/>
<feColorMatrix in="SourceAlpha" type="matrix" values="0 0 0 0 0 0 0 0 0 0 0 0 0 0 0 0 0 0 127 0" result="hardAlpha"/>
<feMorphology radius="11" operator="dilate" in="SourceAlpha" result="effect1_dropShadow_6_2"/>
<feOffset dx="-10" dy="14"/>
<feGaussianBlur stdDeviation="13"/>
<feComposite in2="hardAlpha" operator="out"/>
<feColorMatrix type="matrix" values="0 0 0 0 0 0 0 0 0 0 0 0 0 0 0 0 0 0 0.25 0"/>
<feBlend mode="normal" in2="BackgroundImageFix" result="effect1_dropShadow_6_2"/>
<feBlend mode="normal" in="SourceGraphic" in2="effect1_dropShadow_6_2" result="shape"/>
</filter>
<filter id="filter1_d_6_2" x="1595" y="127" width="294" height="170" filterUnits="userSpaceOnUse" color-interpolation-filters="sRGB">
<feFlood flood-opacity="0" result="BackgroundImageFix"/>
<feColorMatrix in="SourceAlpha" type="matrix" values="0 0 0 0 0 0 0 0 0 0 0 0 0 0 0 0 0 0 127 0" result="hardAlpha"/>
<feMorphology radius="11" operator="dilate" in="SourceAlpha" result="effect1_dropShadow_6_2"/>
<feOffset dx="-10" dy="14"/>
<feGaussianBlur stdDeviation="13"/>
<feComposite in2="hardAlpha" operator="out"/>
<feColorMatrix type="matrix" values="0 0 0 0 0 0 0 0 0 0 0 0 0 0 0 0 0 0 0.25 0"/>
<feBlend mode="normal" in2="BackgroundImageFix" result="effect1_dropShadow_6_2"/>
<feBlend mode="normal" in="SourceGraphic" in2="effect1_dropShadow_6_2" result="shape"/>
</filter>
<filter id="filter2_d_6_2" x="526" y="348" width="294" height="170" filterUnits="userSpaceOnUse" color-interpolation-filters="sRGB">
<feFlood flood-opacity="0" result="BackgroundImageFix"/>
<feColorMatrix in="SourceAlpha" type="matrix" values="0 0 0 0 0 0 0 0 0 0 0 0 0 0 0 0 0 0 127 0" result="hardAlpha"/>
<feMorphology radius="11" operator="dilate" in="SourceAlpha" result="effect1_dropShadow_6_2"/>
<feOffset dx="-10" dy="14"/>
<feGaussianBlur stdDeviation="13"/>
<feComposite in2="hardAlpha" operator="out"/>
<feColorMatrix type="matrix" values="0 0 0 0 0 0 0 0 0 0 0 0 0 0 0 0 0 0 0.25 0"/>
<feBlend mode="normal" in2="BackgroundImageFix" result="effect1_dropShadow_6_2"/>
<feBlend mode="normal" in="SourceGraphic" in2="effect1_dropShadow_6_2" result="shape"/>
</filter>
<filter id="filter3_d_6_2" x="1313" y="367" width="294" height="170" filterUnits="userSpaceOnUse" color-interpolation-filters="sRGB">
<feFlood flood-opacity="0" result="BackgroundImageFix"/>
<feColorMatrix in="SourceAlpha" type="matrix" values="0 0 0 0 0 0 0 0 0 0 0 0 0 0 0 0 0 0 127 0" result="hardAlpha"/>
<feMorphology radius="11" operator="dilate" in="SourceAlpha" result="effect1_dropShadow_6_2"/>
<feOffset dx="-10" dy="14"/>
<feGaussianBlur stdDeviation="13"/>
<feComposite in2="hardAlpha" operator="out"/>
<feColorMatrix type="matrix" values="0 0 0 0 0 0 0 0 0 0 0 0 0 0 0 0 0 0 0.25 0"/>
<feBlend mode="normal" in2="BackgroundImageFix" result="effect1_dropShadow_6_2"/>
<feBlend mode="normal" in="SourceGraphic" in2="effect1_dropShadow_6_2" result="shape"/>
</filter>
<filter id="filter4_d_6_2" x="9" y="271" width="294" height="170" filterUnits="userSpaceOnUse" color-interpolation-filters="sRGB">
<feFlood flood-opacity="0" result="BackgroundImageFix"/>
<feColorMatrix in="SourceAlpha" type="matrix" values="0 0 0 0 0 0 0 0 0 0 0 0 0 0 0 0 0 0 127 0" result="hardAlpha"/>
<feMorphology radius="11" operator="dilate" in="SourceAlpha" result="effect1_dropShadow_6_2"/>
<feOffset dx="-10" dy="14"/>
<feGaussianBlur stdDeviation="13"/>
<feComposite in2="hardAlpha" operator="out"/>
<feColorMatrix type="matrix" values="0 0 0 0 0 0 0 0 0 0 0 0 0 0 0 0 0 0 0.25 0"/>
<feBlend mode="normal" in2="BackgroundImageFix" result="effect1_dropShadow_6_2"/>
<feBlend mode="normal" in="SourceGraphic" in2="effect1_dropShadow_6_2" result="shape"/>
</filter>
<filter id="filter5_d_6_2" x="981" y="223" width="294" height="170" filterUnits="userSpaceOnUse" color-interpolation-filters="sRGB">
<feFlood flood-opacity="0" result="BackgroundImageFix"/>
<feColorMatrix in="SourceAlpha" type="matrix" values="0 0 0 0 0 0 0 0 0 0 0 0 0 0 0 0 0 0 127 0" result="hardAlpha"/>
<feMorphology radius="11" operator="dilate" in="SourceAlpha" result="effect1_dropShadow_6_2"/>
<feOffset dx="-10" dy="14"/>
<feGaussianBlur stdDeviation="13"/>
<feComposite in2="hardAlpha" operator="out"/>
<feColorMatrix type="matrix" values="0 0 0 0 0 0 0 0 0 0 0 0 0 0 0 0 0 0 0.25 0"/>
<feBlend mode="normal" in2="BackgroundImageFix" result="effect1_dropShadow_6_2"/>
<feBlend mode="normal" in="SourceGraphic" in2="effect1_dropShadow_6_2" result="shape"/>
</filter>
<clipPath id="clip0_6_2">
<rect width="1920" height="1024" fill="white"/>
</clipPath>
</defs>
</svg>
