<svg width="1440" height="1024" viewBox="0 0 1440 1024" fill="none" xmlns="http://www.w3.org/2000/svg">
<rect width="1440" height="1024" fill="#E5E5E5"/>
<g clip-path="url(#clip0_0_1)">
<rect width="1440" height="1024" fill="white"/>
<rect width="1440" height="1024" fill="#F2E9EA"/>
<circle cx="37.5" cy="32.5" r="4" fill="#FDFBFB" stroke="white"/>
<circle cx="389.5" cy="23.5" r="4" fill="#FDFBFB" stroke="white"/>
<path d="M745.5 14C745.5 16.5361 743.661 18.5 741.5 18.5C739.339 18.5 737.5 16.5361 737.5 14C737.5 11.4639 739.339 9.5 741.5 9.5C743.661 9.5 745.5 11.4639 745.5 14Z" fill="#FDFBFB" stroke="white"/>
<circle cx="1093.5" cy="4.5" r="4" fill="#FDFBFB" stroke="white"/>
<path d="M43.5 750C43.5 752.536 41.6609 754.5 39.5 754.5C37.3391 754.5 35.5 752.536 35.5 750C35.5 747.464 37.3391 745.5 39.5 745.5C41.6609 745.5 43.5 747.464 43.5 750Z" fill="#FDFBFB" stroke="white"/>
<circle cx="398.5" cy="211.5" r="4" fill="#FDFBFB" stroke="white"/>
<circle cx="391.5" cy="740.5" r="4" fill="#FDFBFB" stroke="white"/>
<circle cx="785.5" cy="188.5" r="4" fill="#FDFBFB" stroke="white"/>
<circle cx="743.5" cy="731.5" r="4" fill="#FDFBFB" stroke="white"/>
<path d="M1143.5 194C1143.5 196.536 1141.66 198.5 1139.5 198.5C1137.34 198.5 1135.5 196.536 1135.5 194C1135.5 191.464 1137.34 189.5 1139.5 189.5C1141.66 189.5 1143.5 191.464 1143.5 194Z" fill="#FDFBFB" stroke="white"/>
<path d="M1129.5 693C1129.5 695.536 1127.66 697.5 1125.5 697.5C1123.34 697.5 1121.5 695.536 1121.5 693C1121.5 690.464 1123.34 688.5 1125.5 688.5C1127.66 688.5 1129.5 690.464 1129.5 693Z" fill="#FDFBFB" stroke="white"/>
<circle cx="46.5" cy="415.5" r="4" fill="#FDFBFB" stroke="white"/>
<circle cx="39.5" cy="914.5" r="4" fill="#FDFBFB" stroke="white"/>
<path d="M402.5 406C402.5 408.536 400.661 410.5 398.5 410.5C396.339 410.5 394.5 408.536 394.5 406C394.5 403.464 396.339 401.5 398.5 401.5C400.661 401.5 402.5 403.464 402.5 406Z" fill="#FDFBFB" stroke="white"/>
<path d="M395.5 905C395.5 907.536 393.661 909.5 391.5 909.5C389.339 909.5 387.5 907.536 387.5 905C387.5 902.464 389.339 900.5 391.5 900.5C393.661 900.5 395.5 902.464 395.5 905Z" fill="#FDFBFB" stroke="white"/>
<circle cx="750.5" cy="396.5" r="4" fill="#FDFBFB" stroke="white"/>
<circle cx="743.5" cy="895.5" r="4" fill="#FDFBFB" stroke="white"/>
<path d="M1106.5 387C1106.5 389.536 1104.66 391.5 1102.5 391.5C1100.34 391.5 1098.5 389.536 1098.5 387C1098.5 384.464 1100.34 382.5 1102.5 382.5C1104.66 382.5 1106.5 384.464 1106.5 387Z" fill="#FDFBFB" stroke="white"/>
<path d="M1099.5 886C1099.5 888.536 1097.66 890.5 1095.5 890.5C1093.34 890.5 1091.5 888.536 1091.5 886C1091.5 883.464 1093.34 881.5 1095.5 881.5C1097.66 881.5 1099.5 883.464 1099.5 886Z" fill="#FDFBFB" stroke="white"/>
<path d="M126.5 121C126.5 123.536 124.661 125.5 122.5 125.5C120.339 125.5 118.5 123.536 118.5 121C118.5 118.464 120.339 116.5 122.5 116.5C124.661 116.5 126.5 118.464 126.5 121Z" fill="#FDFBFB" stroke="white"/>
<path d="M97.5 612C97.5 614.536 95.6609 616.5 93.5 616.5C91.3391 616.5 89.5 614.536 89.5 612C89.5 609.464 91.3391 607.5 93.5 607.5C95.6609 607.5 97.5 609.464 97.5 612Z" fill="#FDFBFB" stroke="white"/>
<circle cx="474.5" cy="111.5" r="4" fill="#FDFBFB" stroke="white"/>
<circle cx="467.5" cy="610.5" r="4" fill="#FDFBFB" stroke="white"/>
<circle cx="826.5" cy="102.5" r="4" fill="#FDFBFB" stroke="white"/>
<circle cx="819.5" cy="601.5" r="4" fill="#FDFBFB" stroke="white"/>
<circle cx="831.5" cy="682.5" r="4" fill="#FDFBFB" stroke="white"/>
<path d="M1182.5 93C1182.5 95.5361 1180.66 97.5 1178.5 97.5C1176.34 97.5 1174.5 95.5361 1174.5 93C1174.5 90.4639 1176.34 88.5 1178.5 88.5C1180.66 88.5 1182.5 90.4639 1182.5 93Z" fill="#FDFBFB" stroke="white"/>
<path d="M1175.5 592C1175.5 594.536 1173.66 596.5 1171.5 596.5C1169.34 596.5 1167.5 594.536 1167.5 592C1167.5 589.464 1169.34 587.5 1171.5 587.5C1173.66 587.5 1175.5 589.464 1175.5 592Z" fill="#FDFBFB" stroke="white"/>
<circle cx="-2.5" cy="993.5" r="4" fill="#FDFBFB" stroke="white"/>
<path d="M360.5 485C360.5 487.536 358.661 489.5 356.5 489.5C354.339 489.5 352.5 487.536 352.5 485C352.5 482.464 354.339 480.5 356.5 480.5C358.661 480.5 360.5 482.464 360.5 485Z" fill="#FDFBFB" stroke="white"/>
<path d="M298.5 984C298.5 986.536 296.661 988.5 294.5 988.5C292.339 988.5 290.5 986.536 290.5 984C290.5 981.464 292.339 979.5 294.5 979.5C296.661 979.5 298.5 981.464 298.5 984Z" fill="#FDFBFB" stroke="white"/>
<circle cx="708.5" cy="475.5" r="4" fill="#FDFBFB" stroke="white"/>
<circle cx="701.5" cy="974.5" r="4" fill="#FDFBFB" stroke="white"/>
<circle cx="1426.5" cy="471.5" r="4" fill="#FDFBFB" stroke="white"/>
<circle cx="1419.5" cy="1026.5" r="4" fill="#FDFBFB" stroke="white"/>
<path d="M1064.5 466C1064.5 468.536 1062.66 470.5 1060.5 470.5C1058.34 470.5 1056.5 468.536 1056.5 466C1056.5 463.464 1058.34 461.5 1060.5 461.5C1062.66 461.5 1064.5 463.464 1064.5 466Z" fill="#FDFBFB" stroke="white"/>
<path d="M1057.5 965C1057.5 967.536 1055.66 969.5 1053.5 969.5C1051.34 969.5 1049.5 967.536 1049.5 965C1049.5 962.464 1051.34 960.5 1053.5 960.5C1055.66 960.5 1057.5 962.464 1057.5 965Z" fill="#FDFBFB" stroke="white"/>
<path d="M942.5 984C942.5 986.536 940.661 988.5 938.5 988.5C936.339 988.5 934.5 986.536 934.5 984C934.5 981.464 936.339 979.5 938.5 979.5C940.661 979.5 942.5 981.464 942.5 984Z" fill="#FDFBFB" stroke="white"/>
<circle cx="215.5" cy="322.5" r="4" fill="#FDFBFB" stroke="white"/>
<circle cx="150.5" cy="766.5" r="4" fill="#FDFBFB" stroke="white"/>
<circle cx="567.5" cy="313.5" r="4" fill="#FDFBFB" stroke="white"/>
<circle cx="560.5" cy="812.5" r="4" fill="#FDFBFB" stroke="white"/>
<circle cx="504.5" cy="754.5" r="4" fill="#FDFBFB" stroke="white"/>
<path d="M923.5 304C923.5 306.536 921.661 308.5 919.5 308.5C917.339 308.5 915.5 306.536 915.5 304C915.5 301.464 917.339 299.5 919.5 299.5C921.661 299.5 923.5 301.464 923.5 304Z" fill="#FDFBFB" stroke="white"/>
<path d="M879.5 810C879.5 812.536 877.661 814.5 875.5 814.5C873.339 814.5 871.5 812.536 871.5 810C871.5 807.464 873.339 805.5 875.5 805.5C877.661 805.5 879.5 807.464 879.5 810Z" fill="#FDFBFB" stroke="white"/>
<circle cx="1271.5" cy="294.5" r="4" fill="#FDFBFB" stroke="white"/>
<circle cx="1264.5" cy="793.5" r="4" fill="#FDFBFB" stroke="white"/>
<circle cx="317" cy="283" r="4.5" fill="#FDFBFB" stroke="white"/>
<circle cx="317" cy="750" r="4.5" fill="#FDFBFB" stroke="white"/>
<circle cx="676.5" cy="241.5" r="4" fill="#FDFBFB" stroke="white"/>
<circle cx="669.5" cy="740.5" r="4" fill="#FDFBFB" stroke="white"/>
<circle cx="1028.5" cy="232.5" r="4" fill="#FDFBFB" stroke="white"/>
<circle cx="1021.5" cy="731.5" r="4" fill="#FDFBFB" stroke="white"/>
<path d="M1386.5 206C1386.5 208.536 1384.66 210.5 1382.5 210.5C1380.34 210.5 1378.5 208.536 1378.5 206C1378.5 203.464 1380.34 201.5 1382.5 201.5C1384.66 201.5 1386.5 203.464 1386.5 206Z" fill="#FDFBFB" stroke="white"/>
<path d="M1377.5 722C1377.5 724.536 1375.66 726.5 1373.5 726.5C1371.34 726.5 1369.5 724.536 1369.5 722C1369.5 719.464 1371.34 717.5 1373.5 717.5C1375.66 717.5 1377.5 719.464 1377.5 722Z" fill="#FDFBFB" stroke="white"/>
<path d="M279.5 387C279.5 389.536 277.661 391.5 275.5 391.5C273.339 391.5 271.5 389.536 271.5 387C271.5 384.464 273.339 382.5 275.5 382.5C277.661 382.5 279.5 384.464 279.5 387Z" fill="#FDFBFB" stroke="white"/>
<path d="M272.5 886C272.5 888.536 270.661 890.5 268.5 890.5C266.339 890.5 264.5 888.536 264.5 886C264.5 883.464 266.339 881.5 268.5 881.5C270.661 881.5 272.5 883.464 272.5 886Z" fill="#FDFBFB" stroke="white"/>
<path d="M332.5 814C332.5 816.536 330.661 818.5 328.5 818.5C326.339 818.5 324.5 816.536 324.5 814C324.5 811.464 326.339 809.5 328.5 809.5C330.661 809.5 332.5 811.464 332.5 814Z" fill="#FDFBFB" stroke="white"/>
<circle cx="627.5" cy="377.5" r="4" fill="#FDFBFB" stroke="white"/>
<circle cx="620.5" cy="876.5" r="4" fill="#FDFBFB" stroke="white"/>
<circle cx="692.5" cy="817.5" r="4" fill="#FDFBFB" stroke="white"/>
<circle cx="979.5" cy="368.5" r="4" fill="#FDFBFB" stroke="white"/>
<circle cx="972.5" cy="867.5" r="4" fill="#FDFBFB" stroke="white"/>
<circle cx="1068.5" cy="800.5" r="4" fill="#FDFBFB" stroke="white"/>
<path d="M1335.5 359C1335.5 361.536 1333.66 363.5 1331.5 363.5C1329.34 363.5 1327.5 361.536 1327.5 359C1327.5 356.464 1329.34 354.5 1331.5 354.5C1333.66 354.5 1335.5 356.464 1335.5 359Z" fill="#FDFBFB" stroke="white"/>
<path d="M1328.5 858C1328.5 860.536 1326.66 862.5 1324.5 862.5C1322.34 862.5 1320.5 860.536 1320.5 858C1320.5 855.464 1322.34 853.5 1324.5 853.5C1326.66 853.5 1328.5 855.464 1328.5 858Z" fill="#FDFBFB" stroke="white"/>
<path d="M1439.5 1003C1439.5 1005.54 1437.66 1007.5 1435.5 1007.5C1433.34 1007.5 1431.5 1005.54 1431.5 1003C1431.5 1000.46 1433.34 998.5 1435.5 998.5C1437.66 998.5 1439.5 1000.46 1439.5 1003Z" fill="#FDFBFB" stroke="white"/>
<path d="M1415.5 801C1415.5 803.536 1413.66 805.5 1411.5 805.5C1409.34 805.5 1407.5 803.536 1407.5 801C1407.5 798.464 1409.34 796.5 1411.5 796.5C1413.66 796.5 1415.5 798.464 1415.5 801Z" fill="#FDFBFB" stroke="white"/>
<circle cx="141.5" cy="523.5" r="4" fill="#FDFBFB" stroke="white"/>
<circle cx="134.5" cy="1022.5" r="4" fill="#FDFBFB" stroke="white"/>
<path d="M497.5 514C497.5 516.536 495.661 518.5 493.5 518.5C491.339 518.5 489.5 516.536 489.5 514C489.5 511.464 491.339 509.5 493.5 509.5C495.661 509.5 497.5 511.464 497.5 514Z" fill="#FDFBFB" stroke="white"/>
<path d="M441.5 999C441.5 1001.54 439.661 1003.5 437.5 1003.5C435.339 1003.5 433.5 1001.54 433.5 999C433.5 996.464 435.339 994.5 437.5 994.5C439.661 994.5 441.5 996.464 441.5 999Z" fill="#FDFBFB" stroke="white"/>
<circle cx="845.5" cy="504.5" r="4" fill="#FDFBFB" stroke="white"/>
<circle cx="838.5" cy="1003.5" r="4" fill="#FDFBFB" stroke="white"/>
<circle cx="1197.5" cy="495.5" r="4" fill="#FDFBFB" stroke="white"/>
<circle cx="1190.5" cy="994.5" r="4" fill="#FDFBFB" stroke="white"/>
<path d="M182.5 42C182.5 44.5361 180.661 46.5 178.5 46.5C176.339 46.5 174.5 44.5361 174.5 42C174.5 39.4639 176.339 37.5 178.5 37.5C180.661 37.5 182.5 39.4639 182.5 42Z" fill="#FDFBFB" stroke="white"/>
<circle cx="530.5" cy="32.5" r="4" fill="#FDFBFB" stroke="white"/>
<circle cx="882.5" cy="23.5" r="4" fill="#FDFBFB" stroke="white"/>
<path d="M1238.5 14C1238.5 16.5361 1236.66 18.5 1234.5 18.5C1232.34 18.5 1230.5 16.5361 1230.5 14C1230.5 11.4639 1232.34 9.5 1234.5 9.5C1236.66 9.5 1238.5 11.4639 1238.5 14Z" fill="#FDFBFB" stroke="white"/>
<circle cx="289.5" cy="100.5" r="4" fill="#FDFBFB" stroke="white"/>
<circle cx="282.5" cy="599.5" r="4" fill="#FDFBFB" stroke="white"/>
<path d="M645.5 91C645.5 93.5361 643.661 95.5 641.5 95.5C639.339 95.5 637.5 93.5361 637.5 91C637.5 88.4639 639.339 86.5 641.5 86.5C643.661 86.5 645.5 88.4639 645.5 91Z" fill="#FDFBFB" stroke="white"/>
<path d="M638.5 590C638.5 592.536 636.661 594.5 634.5 594.5C632.339 594.5 630.5 592.536 630.5 590C630.5 587.464 632.339 585.5 634.5 585.5C636.661 585.5 638.5 587.464 638.5 590Z" fill="#FDFBFB" stroke="white"/>
<circle cx="993.5" cy="81.5" r="4" fill="#FDFBFB" stroke="white"/>
<circle cx="948.5" cy="587.5" r="4" fill="#FDFBFB" stroke="white"/>
<circle cx="1012.5" cy="655.5" r="4" fill="#FDFBFB" stroke="white"/>
<circle cx="966.5" cy="486.5" r="4" fill="#FDFBFB" stroke="white"/>
<circle cx="1345.5" cy="72.5" r="4" fill="#FDFBFB" stroke="white"/>
<circle cx="1338.5" cy="571.5" r="4" fill="#FDFBFB" stroke="white"/>
<path d="M217.31 197L218.055 203.315L225 204.318L218.719 208.942L220.024 220L214.383 212.134L206.539 217.909L211.549 208.182L206.905 201.705L214.333 202.778L217.31 197Z" fill="white"/>
<path d="M206 218.955L206.539 217.909M206.539 217.909L217.31 197L220.024 220L206.905 201.705L225 204.318L206.539 217.909Z" stroke="white"/>
<path d="M210.31 696L211.055 702.315L218 703.318L211.719 707.942L213.024 719L207.383 711.134L199.539 716.909L204.549 707.182L199.905 700.705L207.333 701.778L210.31 696Z" fill="white"/>
<path d="M199 717.955L199.539 716.909M199.539 716.909L210.31 696L213.024 719L199.905 700.705L218 703.318L199.539 716.909Z" stroke="white"/>
<path d="M231.31 817L232.055 823.315L239 824.318L232.719 828.942L234.024 840L228.383 832.134L220.539 837.909L225.549 828.182L220.905 821.705L228.333 822.778L231.31 817Z" fill="white"/>
<path d="M220 838.955L220.539 837.909M220.539 837.909L231.31 817L234.024 840L220.905 821.705L239 824.318L220.539 837.909Z" stroke="white"/>
<path d="M182.31 587L183.055 593.315L190 594.318L183.719 598.942L185.024 610L179.383 602.134L171.539 607.909L176.549 598.182L171.905 591.705L179.333 592.778L182.31 587Z" fill="white"/>
<path d="M171 608.955L171.539 607.909M171.539 607.909L182.31 587L185.024 610L171.905 591.705L190 594.318L171.539 607.909Z" stroke="white"/>
<path d="M569.31 188L570.055 194.315L577 195.318L570.719 199.942L572.024 211L566.383 203.134L558.539 208.909L563.549 199.182L558.905 192.705L566.333 193.778L569.31 188Z" fill="white"/>
<path d="M558 209.955L558.539 208.909M558.539 208.909L569.31 188L572.024 211L558.905 192.705L577 195.318L558.539 208.909Z" stroke="white"/>
<path d="M562.31 687L563.055 693.315L570 694.318L563.719 698.942L565.024 710L559.383 702.134L551.539 707.909L556.549 698.182L551.905 691.705L559.333 692.778L562.31 687Z" fill="white"/>
<path d="M551 708.955L551.539 707.909M551.539 707.909L562.31 687L565.024 710L551.905 691.705L570 694.318L551.539 707.909Z" stroke="white"/>
<path d="M922.31 179L923.055 185.315L930 186.318L923.719 190.942L925.024 202L919.383 194.134L911.539 199.909L916.549 190.182L911.905 183.705L919.333 184.778L922.31 179Z" fill="white"/>
<path d="M911 200.955L911.539 199.909M911.539 199.909L922.31 179L925.024 202L911.905 183.705L930 186.318L911.539 199.909Z" stroke="white"/>
<path d="M915.31 678L916.055 684.315L923 685.318L916.719 689.942L918.024 701L912.383 693.134L904.539 698.909L909.549 689.182L904.905 682.705L912.333 683.778L915.31 678Z" fill="white"/>
<path d="M904 699.955L904.539 698.909M904.539 698.909L915.31 678L918.024 701L904.905 682.705L923 685.318L904.539 698.909Z" stroke="white"/>
<path d="M1274.31 169L1275.05 175.315L1282 176.318L1275.72 180.942L1277.02 192L1271.38 184.134L1263.54 189.909L1268.55 180.182L1263.9 173.705L1271.33 174.778L1274.31 169Z" fill="white"/>
<path d="M1263 190.955L1263.54 189.909M1263.54 189.909L1274.31 169L1277.02 192L1263.9 173.705L1282 176.318L1263.54 189.909Z" stroke="white"/>
<path d="M1273.31 660L1274.05 666.315L1281 667.318L1274.72 671.942L1276.02 683L1270.38 675.134L1262.54 680.909L1267.55 671.182L1262.9 664.705L1270.33 665.778L1273.31 660Z" fill="white"/>
<path d="M1262 681.955L1262.54 680.909M1262.54 680.909L1273.31 660L1276.02 683L1262.9 664.705L1281 667.318L1262.54 680.909Z" stroke="white"/>
<path d="M376.31 100L377.055 106.315L384 107.318L377.719 111.942L379.024 123L373.383 115.134L365.539 120.909L370.549 111.182L365.905 104.705L373.333 105.778L376.31 100Z" fill="white"/>
<path d="M365 121.955L365.539 120.909M365.539 120.909L376.31 100L379.024 123L365.905 104.705L384 107.318L365.539 120.909Z" stroke="white"/>
<path d="M369.31 599L370.055 605.315L377 606.318L370.719 610.942L372.024 622L366.383 614.134L358.539 619.909L363.549 610.182L358.905 603.705L366.333 604.778L369.31 599Z" fill="white"/>
<path d="M358 620.955L358.539 619.909M358.539 619.909L369.31 599L372.024 622L358.905 603.705L377 606.318L358.539 619.909Z" stroke="white"/>
<path d="M728.31 90L729.055 96.315L736 97.3182L729.719 101.942L731.024 113L725.383 105.134L717.539 110.909L722.549 101.182L717.905 94.7045L725.333 95.7775L728.31 90Z" fill="white"/>
<path d="M717 111.955L717.539 110.909M717.539 110.909L728.31 90L731.024 113L717.905 94.7045L736 97.3182L717.539 110.909Z" stroke="white"/>
<path d="M721.31 589L722.055 595.315L729 596.318L722.719 600.942L724.024 612L718.383 604.134L710.539 609.909L715.549 600.182L710.905 593.705L718.333 594.778L721.31 589Z" fill="white"/>
<path d="M710 610.955L710.539 609.909M710.539 609.909L721.31 589L724.024 612L710.905 593.705L729 596.318L710.539 609.909Z" stroke="white"/>
<path d="M1080.31 81L1081.05 87.315L1088 88.3182L1081.72 92.9422L1083.02 104L1077.38 96.1339L1069.54 101.909L1074.55 92.1818L1069.9 85.7045L1077.33 86.7775L1080.31 81Z" fill="white"/>
<path d="M1069 102.955L1069.54 101.909M1069.54 101.909L1080.31 81L1083.02 104L1069.9 85.7045L1088 88.3182L1069.54 101.909Z" stroke="white"/>
<path d="M1073.31 580L1074.05 586.315L1081 587.318L1074.72 591.942L1076.02 603L1070.38 595.134L1062.54 600.909L1067.55 591.182L1062.9 584.705L1070.33 585.778L1073.31 580Z" fill="white"/>
<path d="M1062 601.955L1062.54 600.909M1062.54 600.909L1073.31 580L1076.02 603L1062.9 584.705L1081 587.318L1062.54 600.909Z" stroke="white"/>
<path d="M1432.31 72L1433.05 78.315L1440 79.3182L1433.72 83.9422L1435.02 95L1429.38 87.1339L1421.54 92.9091L1426.55 83.1818L1421.9 76.7045L1429.33 77.7775L1432.31 72Z" fill="white"/>
<path d="M1421 93.9545L1421.54 92.9091M1421.54 92.9091L1432.31 72L1435.02 95L1421.9 76.7045L1440 79.3182L1421.54 92.9091Z" stroke="white"/>
<path d="M1425.31 571L1426.05 577.315L1433 578.318L1426.72 582.942L1428.02 594L1422.38 586.134L1414.54 591.909L1419.55 582.182L1414.9 575.705L1422.33 576.778L1425.31 571Z" fill="white"/>
<path d="M1414 592.955L1414.54 591.909M1414.54 591.909L1425.31 571L1428.02 594L1414.9 575.705L1433 578.318L1414.54 591.909Z" stroke="white"/>
<path d="M170.31 420L171.055 426.315L178 427.318L171.719 431.942L173.024 443L167.383 435.134L159.539 440.909L164.549 431.182L159.905 424.705L167.333 425.778L170.31 420Z" fill="white"/>
<path d="M159 441.955L159.539 440.909M159.539 440.909L170.31 420L173.024 443L159.905 424.705L178 427.318L159.539 440.909Z" stroke="white"/>
<path d="M163.31 919L164.055 925.315L171 926.318L164.719 930.942L166.024 942L160.383 934.134L152.539 939.909L157.549 930.182L152.905 923.705L160.333 924.778L163.31 919Z" fill="white"/>
<path d="M152 940.955L152.539 939.909M152.539 939.909L163.31 919L166.024 942L152.905 923.705L171 926.318L152.539 939.909Z" stroke="white"/>
<path d="M522.31 411L523.055 417.04L530 418L523.719 422.423L525.024 433L519.383 425.476L511.539 431L516.549 421.696L511.905 415.5L519.333 416.526L522.31 411Z" fill="white"/>
<path d="M511 432L511.539 431M511.539 431L522.31 411L525.024 433L511.905 415.5L530 418L511.539 431Z" stroke="white"/>
<path d="M515.31 910L516.055 916.04L523 917L516.719 921.423L518.024 932L512.383 924.476L504.539 930L509.549 920.696L504.905 914.5L512.333 915.526L515.31 910Z" fill="white"/>
<path d="M504 931L504.539 930M504.539 930L515.31 910L518.024 932L504.905 914.5L523 917L504.539 930Z" stroke="white"/>
<path d="M574.31 979L575.055 985.04L582 986L575.719 990.423L577.024 1001L571.383 993.476L563.539 999L568.549 989.696L563.905 983.5L571.333 984.526L574.31 979Z" fill="white"/>
<path d="M563 1000L563.539 999M563.539 999L574.31 979L577.024 1001L563.905 983.5L582 986L563.539 999Z" stroke="white"/>
<path d="M874.31 401L875.055 407.315L882 408.318L875.719 412.942L877.024 424L871.383 416.134L863.539 421.909L868.549 412.182L863.905 405.705L871.333 406.778L874.31 401Z" fill="white"/>
<path d="M863 422.955L863.539 421.909M863.539 421.909L874.31 401L877.024 424L863.905 405.705L882 408.318L863.539 421.909Z" stroke="white"/>
<path d="M867.31 900L868.055 906.315L875 907.318L868.719 911.942L870.024 923L864.383 915.134L856.539 920.909L861.549 911.182L856.905 904.705L864.333 905.778L867.31 900Z" fill="white"/>
<path d="M856 921.955L856.539 920.909M856.539 920.909L867.31 900L870.024 923L856.905 904.705L875 907.318L856.539 920.909Z" stroke="white"/>
<path d="M972.31 782L973.055 788.315L980 789.318L973.719 793.942L975.024 805L969.383 797.134L961.539 802.909L966.549 793.182L961.905 786.705L969.333 787.778L972.31 782Z" fill="white"/>
<path d="M961 803.955L961.539 802.909M961.539 802.909L972.31 782L975.024 805L961.905 786.705L980 789.318L961.539 802.909Z" stroke="white"/>
<path d="M1227.31 392L1228.05 398.315L1235 399.318L1228.72 403.942L1230.02 415L1224.38 407.134L1216.54 412.909L1221.55 403.182L1216.9 396.705L1224.33 397.778L1227.31 392Z" fill="white"/>
<path d="M1216 413.955L1216.54 412.909M1216.54 412.909L1227.31 392L1230.02 415L1216.9 396.705L1235 399.318L1216.54 412.909Z" stroke="white"/>
<path d="M1220.31 891L1221.05 897.315L1228 898.318L1221.72 902.942L1223.02 914L1217.38 906.134L1209.54 911.909L1214.55 902.182L1209.9 895.705L1217.33 896.778L1220.31 891Z" fill="white"/>
<path d="M1209 912.955L1209.54 911.909M1209.54 911.909L1220.31 891L1223.02 914L1209.9 895.705L1228 898.318L1209.54 911.909Z" stroke="white"/>
<path d="M1060.31 1012L1061.05 1018.32L1068 1019.32L1061.72 1023.94L1063.02 1035L1057.38 1027.13L1049.54 1032.91L1054.55 1023.18L1049.9 1016.7L1057.33 1017.78L1060.31 1012Z" fill="white"/>
<path d="M1049 1033.95L1049.54 1032.91M1049.54 1032.91L1060.31 1012L1063.02 1035L1049.9 1016.7L1068 1019.32L1049.54 1032.91Z" stroke="white"/>
<path d="M1333.31 475L1334.05 481.315L1341 482.318L1334.72 486.942L1336.02 498L1330.38 490.134L1322.54 495.909L1327.55 486.182L1322.9 479.705L1330.33 480.778L1333.31 475Z" fill="white"/>
<path d="M1322 496.955L1322.54 495.909M1322.54 495.909L1333.31 475L1336.02 498L1322.9 479.705L1341 482.318L1322.54 495.909Z" stroke="white"/>
<path d="M1326.31 974L1327.05 980.315L1334 981.318L1327.72 985.942L1329.02 997L1323.38 989.134L1315.54 994.909L1320.55 985.182L1315.9 978.705L1323.33 979.778L1326.31 974Z" fill="white"/>
<path d="M1315 995.955L1315.54 994.909M1315.54 994.909L1326.31 974L1329.02 997L1315.9 978.705L1334 981.318L1315.54 994.909Z" stroke="white"/>
<path d="M1423.31 359L1424.05 365.315L1431 366.318L1424.72 370.942L1426.02 382L1420.38 374.134L1412.54 379.909L1417.55 370.182L1412.9 363.705L1420.33 364.778L1423.31 359Z" fill="white"/>
<path d="M1412 380.955L1412.54 379.909M1412.54 379.909L1423.31 359L1426.02 382L1412.9 363.705L1431 366.318L1412.54 379.909Z" stroke="white"/>
<path d="M1412.31 865L1413.05 871.315L1420 872.318L1413.72 876.942L1415.02 888L1409.38 880.134L1401.54 885.909L1406.55 876.182L1401.9 869.705L1409.33 870.778L1412.31 865Z" fill="white"/>
<path d="M1401 886.955L1401.54 885.909M1401.54 885.909L1412.31 865L1415.02 888L1401.9 869.705L1420 872.318L1401.54 885.909Z" stroke="white"/>
<path d="M76.3095 179L77.0548 185.315L84 186.318L77.7189 190.942L79.0238 202L73.3833 194.134L65.5385 199.909L70.5494 190.182L65.9048 183.705L73.3333 184.778L76.3095 179Z" fill="white"/>
<path d="M65 200.955L65.5385 199.909M65.5385 199.909L76.3095 179L79.0238 202L65.9048 183.705L84 186.318L65.5385 199.909Z" stroke="white"/>
<path d="M67.3095 660L68.0548 666.315L75 667.318L68.7189 671.942L70.0238 683L64.3833 675.134L56.5385 680.909L61.5494 671.182L56.9048 664.705L64.3333 665.778L67.3095 660Z" fill="white"/>
<path d="M56 681.955L56.5385 680.909M56.5385 680.909L67.3095 660L70.0238 683L56.9048 664.705L75 667.318L56.5385 680.909Z" stroke="white"/>
<path d="M377.31 100L378.055 106.315L385 107.318L378.719 111.942L380.024 123L374.383 115.134L366.539 120.909L371.549 111.182L366.905 104.705L374.333 105.778L377.31 100Z" fill="white"/>
<path d="M366 121.955L366.539 120.909M366.539 120.909L377.31 100L380.024 123L366.905 104.705L385 107.318L366.539 120.909Z" stroke="white"/>
<path d="M370.31 599L371.055 605.315L378 606.318L371.719 610.942L373.024 622L367.383 614.134L359.539 619.909L364.549 610.182L359.905 603.705L367.333 604.778L370.31 599Z" fill="white"/>
<path d="M359 620.955L359.539 619.909M359.539 619.909L370.31 599L373.024 622L359.905 603.705L378 606.318L359.539 619.909Z" stroke="white"/>
<path d="M260.31 509L261.055 515.315L268 516.318L261.719 520.942L263.024 532L257.383 524.134L249.539 529.909L254.549 520.182L249.905 513.705L257.333 514.778L260.31 509Z" fill="white"/>
<path d="M249 530.955L249.539 529.909M249.539 529.909L260.31 509L263.024 532L249.905 513.705L268 516.318L249.539 529.909Z" stroke="white"/>
<path d="M62.3095 504L63.0548 510.315L70 511.318L63.7189 515.942L65.0238 527L59.3833 519.134L51.5385 524.909L56.5494 515.182L51.9048 508.705L59.3333 509.778L62.3095 504Z" fill="white"/>
<path d="M51 525.955L51.5385 524.909M51.5385 524.909L62.3095 504L65.0238 527L51.9048 508.705L70 511.318L51.5385 524.909Z" stroke="white"/>
<path d="M729.31 90L730.055 96.315L737 97.3182L730.719 101.942L732.024 113L726.383 105.134L718.539 110.909L723.549 101.182L718.905 94.7045L726.333 95.7775L729.31 90Z" fill="white"/>
<path d="M718 111.955L718.539 110.909M718.539 110.909L729.31 90L732.024 113L718.905 94.7045L737 97.3182L718.539 110.909Z" stroke="white"/>
<path d="M722.31 589L723.055 595.315L730 596.318L723.719 600.942L725.024 612L719.383 604.134L711.539 609.909L716.549 600.182L711.905 593.705L719.333 594.778L722.31 589Z" fill="white"/>
<path d="M711 610.955L711.539 609.909M711.539 609.909L722.31 589L725.024 612L711.905 593.705L730 596.318L711.539 609.909Z" stroke="white"/>
<path d="M631.31 512L632.055 518.315L639 519.318L632.719 523.942L634.024 535L628.383 527.134L620.539 532.909L625.549 523.182L620.905 516.705L628.333 517.778L631.31 512Z" fill="white"/>
<path d="M620 533.955L620.539 532.909M620.539 532.909L631.31 512L634.024 535L620.905 516.705L639 519.318L620.539 532.909Z" stroke="white"/>
<path d="M1081.31 81L1082.05 87.315L1089 88.3182L1082.72 92.9422L1084.02 104L1078.38 96.1339L1070.54 101.909L1075.55 92.1818L1070.9 85.7045L1078.33 86.7775L1081.31 81Z" fill="white"/>
<path d="M1070 102.955L1070.54 101.909M1070.54 101.909L1081.31 81L1084.02 104L1070.9 85.7045L1089 88.3182L1070.54 101.909Z" stroke="white"/>
<path d="M1074.31 580L1075.05 586.315L1082 587.318L1075.72 591.942L1077.02 603L1071.38 595.134L1063.54 600.909L1068.55 591.182L1063.9 584.705L1071.33 585.778L1074.31 580Z" fill="white"/>
<path d="M1063 601.955L1063.54 600.909M1063.54 600.909L1074.31 580L1077.02 603L1063.9 584.705L1082 587.318L1063.54 600.909Z" stroke="white"/>
<path d="M1132.31 509L1133.05 515.315L1140 516.318L1133.72 520.942L1135.02 532L1129.38 524.134L1121.54 529.909L1126.55 520.182L1121.9 513.705L1129.33 514.778L1132.31 509Z" fill="white"/>
<path d="M1121 530.955L1121.54 529.909M1121.54 529.909L1132.31 509L1135.02 532L1121.9 513.705L1140 516.318L1121.54 529.909Z" stroke="white"/>
<path d="M119.31 318L120.055 324.04L127 325L120.719 329.423L122.024 340L116.383 332.476L108.539 338L113.549 328.696L108.905 322.5L116.333 323.526L119.31 318Z" fill="white"/>
<path d="M108 339L108.539 338M108.539 338L119.31 318L122.024 340L108.905 322.5L127 325L108.539 338Z" stroke="white"/>
<path d="M76.3095 806L77.0548 812.04L84 813L77.7189 817.423L79.0238 828L73.3833 820.476L65.5385 826L70.5494 816.696L65.9048 810.5L73.3333 811.526L76.3095 806Z" fill="white"/>
<path d="M65 827L65.5385 826M65.5385 826L76.3095 806L79.0238 828L65.9048 810.5L84 813L65.5385 826Z" stroke="white"/>
<path d="M435.31 297L436.055 303.315L443 304.318L436.719 308.942L438.024 320L432.383 312.134L424.539 317.909L429.549 308.182L424.905 301.705L432.333 302.778L435.31 297Z" fill="white"/>
<path d="M424 318.955L424.539 317.909M424.539 317.909L435.31 297L438.024 320L424.905 301.705L443 304.318L424.539 317.909Z" stroke="white"/>
<path d="M428.31 796L429.055 802.315L436 803.318L429.719 807.942L431.024 819L425.383 811.134L417.539 816.909L422.549 807.182L417.905 800.705L425.333 801.778L428.31 796Z" fill="white"/>
<path d="M417 817.955L417.539 816.909M417.539 816.909L428.31 796L431.024 819L417.905 800.705L436 803.318L417.539 816.909Z" stroke="white"/>
<path d="M787.31 288L788.055 294.315L795 295.318L788.719 299.942L790.024 311L784.383 303.134L776.539 308.909L781.549 299.182L776.905 292.705L784.333 293.778L787.31 288Z" fill="white"/>
<path d="M776 309.955L776.539 308.909M776.539 308.909L787.31 288L790.024 311L776.905 292.705L795 295.318L776.539 308.909Z" stroke="white"/>
<path d="M780.31 787L781.055 793.315L788 794.318L781.719 798.942L783.024 810L777.383 802.134L769.539 807.909L774.549 798.182L769.905 791.705L777.333 792.778L780.31 787Z" fill="white"/>
<path d="M769 808.955L769.539 807.909M769.539 807.909L780.31 787L783.024 810L769.905 791.705L788 794.318L769.539 807.909Z" stroke="white"/>
<path d="M1139.31 279L1140.05 285.04L1147 286L1140.72 290.423L1142.02 301L1136.38 293.476L1128.54 299L1133.55 289.696L1128.9 283.5L1136.33 284.526L1139.31 279Z" fill="white"/>
<path d="M1128 300L1128.54 299M1128.54 299L1139.31 279L1142.02 301L1128.9 283.5L1147 286L1128.54 299Z" stroke="white"/>
<path d="M1164.31 765L1165.05 771.04L1172 772L1165.72 776.423L1167.02 787L1161.38 779.476L1153.54 785L1158.55 775.696L1153.9 769.5L1161.33 770.526L1164.31 765Z" fill="white"/>
<path d="M1153 786L1153.54 785M1153.54 785L1164.31 765L1167.02 787L1153.9 769.5L1172 772L1153.54 785Z" stroke="white"/>
</g>
<defs>
<clipPath id="clip0_0_1">
<rect width="1440" height="1024" fill="white"/>
</clipPath>
</defs>
</svg>
