<svg width="300" height="440" viewBox="0 0 300 440" fill="none" xmlns="http://www.w3.org/2000/svg">
<rect width="300" height="440" fill="#175697"/>
<path d="M42 34.9286L37.8815 35.5169L37.2273 41L34.2116 36.0412L27 37.0714L32.13 32.6184L28.3636 26.4252L34.7075 30.3811L38.9318 26.7143L38.2321 32.5789L42 34.9286Z" fill="white"/>
<path d="M42 124.929L37.8815 125.517L37.2273 131L34.2116 126.041L27 127.071L32.13 122.618L28.3636 116.425L34.7075 120.381L38.9318 116.714L38.2321 122.579L42 124.929Z" fill="white"/>
<path d="M42 214.929L37.8815 215.517L37.2273 221L34.2116 216.041L27 217.071L32.13 212.618L28.3636 206.425L34.7075 210.381L38.9318 206.714L38.2321 212.579L42 214.929Z" fill="white"/>
<path d="M42 304.929L37.8815 305.517L37.2273 311L34.2116 306.041L27 307.071L32.13 302.618L28.3636 296.425L34.7075 300.381L38.9318 296.714L38.2321 302.579L42 304.929Z" fill="white"/>
<path d="M42 394.929L37.8815 395.517L37.2273 401L34.2116 396.041L27 397.071L32.13 392.618L28.3636 386.425L34.7075 390.381L38.9318 386.714L38.2321 392.579L42 394.929Z" fill="white"/>
<path d="M15 79.9286L10.8815 80.5169L10.2273 86L7.21159 81.0412L0 82.0714L5.13004 77.6184L1.36364 71.4252L7.70751 75.3811L11.9318 71.7143L11.2321 77.5789L15 79.9286Z" fill="#FF4137"/>
<path d="M15 169.929L10.8815 170.517L10.2273 176L7.21159 171.041L0 172.071L5.13004 167.618L1.36364 161.425L7.70751 165.381L11.9318 161.714L11.2321 167.579L15 169.929Z" fill="#FF4137"/>
<path d="M15 259.929L10.8815 260.517L10.2273 266L7.21159 261.041L0 262.071L5.13004 257.618L1.36364 251.425L7.70751 255.381L11.9318 251.714L11.2321 257.579L15 259.929Z" fill="#FF4137"/>
<path d="M15 349.929L10.8815 350.517L10.2273 356L7.21159 351.041L0 352.071L5.13004 347.618L1.36364 341.425L7.70751 345.381L11.9318 341.714L11.2321 347.579L15 349.929Z" fill="#FF4137"/>
<path d="M116 27.9286L111.882 28.5169L111.227 34L108.212 29.0412L101 30.0714L106.13 25.6184L102.364 19.4252L108.708 23.3811L112.932 19.7143L112.232 25.5789L116 27.9286Z" fill="#FF4137"/>
<path d="M116 117.929L111.882 118.517L111.227 124L108.212 119.041L101 120.071L106.13 115.618L102.364 109.425L108.708 113.381L112.932 109.714L112.232 115.579L116 117.929Z" fill="#FF4137"/>
<path d="M116 207.929L111.882 208.517L111.227 214L108.212 209.041L101 210.071L106.13 205.618L102.364 199.425L108.708 203.381L112.932 199.714L112.232 205.579L116 207.929Z" fill="#FF4137"/>
<path d="M116 297.929L111.882 298.517L111.227 304L108.212 299.041L101 300.071L106.13 295.618L102.364 289.425L108.708 293.381L112.932 289.714L112.232 295.579L116 297.929Z" fill="#FF4137"/>
<path d="M116 387.929L111.882 388.517L111.227 394L108.212 389.041L101 390.071L106.13 385.618L102.364 379.425L108.708 383.381L112.932 379.714L112.232 385.579L116 387.929Z" fill="#FF4137"/>
<path d="M89 72.9286L84.8815 73.5169L84.2273 79L81.2116 74.0412L74 75.0714L79.13 70.6184L75.3636 64.4252L81.7075 68.3811L85.9318 64.7143L85.2321 70.5789L89 72.9286Z" fill="#FDFD96"/>
<path d="M89 162.929L84.8815 163.517L84.2273 169L81.2116 164.041L74 165.071L79.13 160.618L75.3636 154.425L81.7075 158.381L85.9318 154.714L85.2321 160.579L89 162.929Z" fill="#FDFD96"/>
<path d="M89 252.929L84.8815 253.517L84.2273 259L81.2116 254.041L74 255.071L79.13 250.618L75.3636 244.425L81.7075 248.381L85.9318 244.714L85.2321 250.579L89 252.929Z" fill="#FDFD96"/>
<path d="M89 342.929L84.8815 343.517L84.2273 349L81.2116 344.041L74 345.071L79.13 340.618L75.3636 334.425L81.7075 338.381L85.9318 334.714L85.2321 340.579L89 342.929Z" fill="#FDFD96"/>
<path d="M190 34.9286L185.882 35.5169L185.227 41L182.212 36.0412L175 37.0714L180.13 32.6184L176.364 26.4252L182.708 30.3811L186.932 26.7143L186.232 32.5789L190 34.9286Z" fill="#FDFD96"/>
<path d="M190 124.929L185.882 125.517L185.227 131L182.212 126.041L175 127.071L180.13 122.618L176.364 116.425L182.708 120.381L186.932 116.714L186.232 122.579L190 124.929Z" fill="#FDFD96"/>
<path d="M190 214.929L185.882 215.517L185.227 221L182.212 216.041L175 217.071L180.13 212.618L176.364 206.425L182.708 210.381L186.932 206.714L186.232 212.579L190 214.929Z" fill="#FDFD96"/>
<path d="M190 304.929L185.882 305.517L185.227 311L182.212 306.041L175 307.071L180.13 302.618L176.364 296.425L182.708 300.381L186.932 296.714L186.232 302.579L190 304.929Z" fill="#FDFD96"/>
<path d="M190 394.929L185.882 395.517L185.227 401L182.212 396.041L175 397.071L180.13 392.618L176.364 386.425L182.708 390.381L186.932 386.714L186.232 392.579L190 394.929Z" fill="#FDFD96"/>
<path d="M163 79.9286L158.882 80.5169L158.227 86L155.212 81.0412L148 82.0714L153.13 77.6184L149.364 71.4252L155.708 75.3811L159.932 71.7143L159.232 77.5789L163 79.9286Z" fill="#FF4137"/>
<path d="M163 169.929L158.882 170.517L158.227 176L155.212 171.041L148 172.071L153.13 167.618L149.364 161.425L155.708 165.381L159.932 161.714L159.232 167.579L163 169.929Z" fill="#FF4137"/>
<path d="M163 259.929L158.882 260.517L158.227 266L155.212 261.041L148 262.071L153.13 257.618L149.364 251.425L155.708 255.381L159.932 251.714L159.232 257.579L163 259.929Z" fill="#FF4137"/>
<path d="M163 349.929L158.882 350.517L158.227 356L155.212 351.041L148 352.071L153.13 347.618L149.364 341.425L155.708 345.381L159.932 341.714L159.232 347.579L163 349.929Z" fill="#FF4137"/>
<path d="M268 27.9286L263.882 28.5169L263.227 34L260.212 29.0412L253 30.0714L258.13 25.6184L254.364 19.4252L260.708 23.3811L264.932 19.7143L264.232 25.5789L268 27.9286Z" fill="#FF4137"/>
<path d="M268 117.929L263.882 118.517L263.227 124L260.212 119.041L253 120.071L258.13 115.618L254.364 109.425L260.708 113.381L264.932 109.714L264.232 115.579L268 117.929Z" fill="#FF4137"/>
<path d="M268 207.929L263.882 208.517L263.227 214L260.212 209.041L253 210.071L258.13 205.618L254.364 199.425L260.708 203.381L264.932 199.714L264.232 205.579L268 207.929Z" fill="#FF4137"/>
<path d="M268 297.929L263.882 298.517L263.227 304L260.212 299.041L253 300.071L258.13 295.618L254.364 289.425L260.708 293.381L264.932 289.714L264.232 295.579L268 297.929Z" fill="#FF4137"/>
<path d="M268 387.929L263.882 388.517L263.227 394L260.212 389.041L253 390.071L258.13 385.618L254.364 379.425L260.708 383.381L264.932 379.714L264.232 385.579L268 387.929Z" fill="#FF4137"/>
<path d="M241 72.9286L236.882 73.5169L236.227 79L233.212 74.0412L226 75.0714L231.13 70.6184L227.364 64.4252L233.708 68.3811L237.932 64.7143L237.232 70.5789L241 72.9286Z" fill="white"/>
<path d="M241 162.929L236.882 163.517L236.227 169L233.212 164.041L226 165.071L231.13 160.618L227.364 154.425L233.708 158.381L237.932 154.714L237.232 160.579L241 162.929Z" fill="white"/>
<path d="M241 252.929L236.882 253.517L236.227 259L233.212 254.041L226 255.071L231.13 250.618L227.364 244.425L233.708 248.381L237.932 244.714L237.232 250.579L241 252.929Z" fill="white"/>
<path d="M241 342.929L236.882 343.517L236.227 349L233.212 344.041L226 345.071L231.13 340.618L227.364 334.425L233.708 338.381L237.932 334.714L237.232 340.579L241 342.929Z" fill="white"/>
<path d="M300 79.9286L295.882 80.5169L295.227 86L292.212 81.0412L285 82.0714L290.13 77.6184L286.364 71.4252L292.708 75.3811L296.932 71.7143L296.232 77.5789L300 79.9286Z" fill="#FDFD96"/>
<path d="M300 169.929L295.882 170.517L295.227 176L292.212 171.041L285 172.071L290.13 167.618L286.364 161.425L292.708 165.381L296.932 161.714L296.232 167.579L300 169.929Z" fill="#FDFD96"/>
<path d="M300 259.929L295.882 260.517L295.227 266L292.212 261.041L285 262.071L290.13 257.618L286.364 251.425L292.708 255.381L296.932 251.714L296.232 257.579L300 259.929Z" fill="#FDFD96"/>
<path d="M300 349.929L295.882 350.517L295.227 356L292.212 351.041L285 352.071L290.13 347.618L286.364 341.425L292.708 345.381L296.932 341.714L296.232 347.579L300 349.929Z" fill="#FDFD96"/>
<path d="M15 433.929L10.8815 434.517L10.2273 440L7.21159 435.041L0 436.071L5.13004 431.618L1.36364 425.425L7.70751 429.381L11.9318 425.714L11.2321 431.579L15 433.929Z" fill="#FF4137"/>
<path d="M89 426.929L84.8815 427.517L84.2273 433L81.2116 428.041L74 429.071L79.13 424.618L75.3636 418.425L81.7075 422.381L85.9318 418.714L85.2321 424.579L89 426.929Z" fill="#FDFD96"/>
<path d="M163 433.929L158.882 434.517L158.227 440L155.212 435.041L148 436.071L153.13 431.618L149.364 425.425L155.708 429.381L159.932 425.714L159.232 431.579L163 433.929Z" fill="#FF4137"/>
<path d="M241 426.929L236.882 427.517L236.227 433L233.212 428.041L226 429.071L231.13 424.618L227.364 418.425L233.708 422.381L237.932 418.714L237.232 424.579L241 426.929Z" fill="white"/>
<path d="M300 433.929L295.882 434.517L295.227 440L292.212 435.041L285 436.071L290.13 431.618L286.364 425.425L292.708 429.381L296.932 425.714L296.232 431.579L300 433.929Z" fill="#FDFD96"/>
</svg>
