<svg width="466" height="926" viewBox="0 0 466 926" fill="none" xmlns="http://www.w3.org/2000/svg">
<g clip-path="url(#clip0_1_3)">
<rect x="497" width="1292" height="701" transform="rotate(90 497 0)" fill="#000807"/>
<path d="M414 204.738L410.98 205.248L410.5 210L408.289 205.702L403 206.595L406.762 202.736L404 197.368L408.652 200.797L411.75 197.619L411.237 202.702L414 204.738Z" fill="white"/>
<path d="M403.5 197L404 197.368M404 197.368L414 204.738L403 206.595L411.75 197.619L410.5 210L404 197.368Z" stroke="white"/>
<path d="M130 152.738L126.98 153.248L126.5 158L124.289 153.702L119 154.595L122.762 150.736L120 145.368L124.652 148.797L127.75 145.619L127.237 150.702L130 152.738Z" fill="white"/>
<path d="M119.5 145L120 145.368M120 145.368L130 152.738L119 154.595L127.75 145.619L126.5 158L120 145.368Z" stroke="white"/>
<path d="M308 333.143L304.98 333.614L304.5 338L302.289 334.033L297 334.857L300.762 331.295L298 326.34L302.652 329.505L305.75 326.571L305.237 331.263L308 333.143Z" fill="white"/>
<path d="M297.5 326L298 326.34M298 326.34L308 333.143L297 334.857L305.75 326.571L304.5 338L298 326.34Z" stroke="white"/>
<path d="M200 110.738L196.705 111.248L196.182 116L193.769 111.702L188 112.595L192.104 108.736L189.091 103.368L194.166 106.797L197.545 103.619L196.986 108.702L200 110.738Z" fill="white"/>
<path d="M188.545 103L189.091 103.368M189.091 103.368L200 110.738L188 112.595L197.545 103.619L196.182 116L189.091 103.368Z" stroke="white"/>
<path d="M397 505.143L394.254 505.614L393.818 510L391.808 506.033L387 506.857L390.42 503.295L387.909 498.34L392.138 501.505L394.955 498.571L394.488 503.263L397 505.143Z" fill="white"/>
<path d="M387.455 498L387.909 498.34M387.909 498.34L397 505.143L387 506.857L394.955 498.571L393.818 510L387.909 498.34Z" stroke="white"/>
<path d="M200 446.548L196.705 446.979L196.182 451L193.769 447.364L188 448.119L192.104 444.854L189.091 440.312L194.166 443.213L197.545 440.524L196.986 444.825L200 446.548Z" fill="white"/>
<path d="M188.545 440L189.091 440.312M189.091 440.312L200 446.548L188 448.119L197.545 440.524L196.182 451L189.091 440.312Z" stroke="white"/>
<path d="M421 581.143L417.705 581.614L417.182 586L414.769 582.033L409 582.857L413.104 579.295L410.091 574.34L415.166 577.505L418.545 574.571L417.986 579.263L421 581.143Z" fill="white"/>
<path d="M409.545 574L410.091 574.34M410.091 574.34L421 581.143L409 582.857L418.545 574.571L417.182 586L410.091 574.34Z" stroke="white"/>
<path d="M136 351.738L132.98 352.248L132.5 357L130.289 352.702L125 353.595L128.762 349.736L126 344.368L130.652 347.797L133.75 344.619L133.237 349.702L136 351.738Z" fill="white"/>
<path d="M125.5 344L126 344.368M126 344.368L136 351.738L125 353.595L133.75 344.619L132.5 357L126 344.368Z" stroke="white"/>
<path d="M419 814.738L415.98 815.248L415.5 820L413.289 815.702L408 816.595L411.762 812.736L409 807.368L413.652 810.797L416.75 807.619L416.237 812.702L419 814.738Z" fill="white"/>
<path d="M408.5 807L409 807.368M409 807.368L419 814.738L408 816.595L416.75 807.619L415.5 820L409 807.368Z" stroke="white"/>
<path d="M182 814.738L178.705 815.248L178.182 820L175.769 815.702L170 816.595L174.104 812.736L171.091 807.368L176.166 810.797L179.545 807.619L178.986 812.702L182 814.738Z" fill="white"/>
<path d="M170.545 807L171.091 807.368M171.091 807.368L182 814.738L170 816.595L179.545 807.619L178.182 820L171.091 807.368Z" stroke="white"/>
<path d="M403 364.738L399.98 365.248L399.5 370L397.289 365.702L392 366.595L395.762 362.736L393 357.368L397.652 360.797L400.75 357.619L400.237 362.702L403 364.738Z" fill="white"/>
<path d="M392.5 357L393 357.368M393 357.368L403 364.738L392 366.595L400.75 357.619L399.5 370L393 357.368Z" stroke="white"/>
<path d="M211 211.738L207.98 212.248L207.5 217L205.289 212.702L200 213.595L203.762 209.736L201 204.368L205.652 207.797L208.75 204.619L208.237 209.702L211 211.738Z" fill="white"/>
<path d="M200.5 204L201 204.368M201 204.368L211 211.738L200 213.595L208.75 204.619L207.5 217L201 204.368Z" stroke="white"/>
<path d="M458 452.738L454.705 453.248L454.182 458L451.769 453.702L446 454.595L450.104 450.736L447.091 445.368L452.166 448.797L455.545 445.619L454.986 450.702L458 452.738Z" fill="white"/>
<path d="M446.545 445L447.091 445.368M447.091 445.368L458 452.738L446 454.595L455.545 445.619L454.182 458L447.091 445.368Z" stroke="white"/>
<path d="M278 479.333L274.705 479.882L274.182 485L271.769 480.372L266 481.333L270.104 477.177L267.091 471.397L272.166 475.089L275.545 471.667L274.986 477.14L278 479.333Z" fill="white"/>
<path d="M266.545 471L267.091 471.397M267.091 471.397L278 479.333L266 481.333L275.545 471.667L274.182 485L267.091 471.397Z" stroke="white"/>
<path d="M461 686.143L458.254 686.614L457.818 691L455.808 687.033L451 687.857L454.42 684.295L451.909 679.34L456.138 682.505L458.955 679.571L458.488 684.263L461 686.143Z" fill="white"/>
<path d="M451.455 679L451.909 679.34M451.909 679.34L461 686.143L451 687.857L458.955 679.571L457.818 691L451.909 679.34Z" stroke="white"/>
<path d="M220 681.738L216.98 682.248L216.5 687L214.289 682.702L209 683.595L212.762 679.736L210 674.368L214.652 677.797L217.75 674.619L217.237 679.702L220 681.738Z" fill="white"/>
<path d="M209.5 674L210 674.368M210 674.368L220 681.738L209 683.595L217.75 674.619L216.5 687L210 674.368Z" stroke="white"/>
<path d="M466 921.143L462.98 921.614L462.5 926L460.289 922.033L455 922.857L458.762 919.295L456 914.34L460.652 917.505L463.75 914.571L463.237 919.263L466 921.143Z" fill="white"/>
<path d="M455.5 914L456 914.34M456 914.34L466 921.143L455 922.857L463.75 914.571L462.5 926L456 914.34Z" stroke="white"/>
<path d="M225 916.738L221.705 917.248L221.182 922L218.769 917.702L213 918.595L217.104 914.736L214.091 909.368L219.166 912.797L222.545 909.619L221.986 914.702L225 916.738Z" fill="white"/>
<path d="M213.545 909L214.091 909.368M214.091 909.368L225 916.738L213 918.595L222.545 909.619L221.182 922L214.091 909.368Z" stroke="white"/>
<path d="M361 125.738L357.98 126.248L357.5 131L355.289 126.702L350 127.595L353.762 123.736L351 118.368L355.652 121.797L358.75 118.619L358.237 123.702L361 125.738Z" fill="white"/>
<path d="M350.5 118L351 118.368M351 118.368L361 125.738L350 127.595L358.75 118.619L357.5 131L351 118.368Z" stroke="white"/>
<path d="M56 74.5476L52.9798 74.9791L52.5 79L50.2885 75.3635L45 76.119L48.762 72.8535L46 68.3118L50.6522 71.2128L53.75 68.5238L53.2368 72.8246L56 74.5476Z" fill="white"/>
<path d="M45.5 68L46 68.3118M46 68.3118L56 74.5476L45 76.119L53.75 68.5238L52.5 79L46 68.3118Z" stroke="white"/>
<path d="M376 263.143L372.98 263.614L372.5 268L370.289 264.033L365 264.857L368.762 261.295L366 256.34L370.652 259.505L373.75 256.571L373.237 261.263L376 263.143Z" fill="white"/>
<path d="M365.5 256L366 256.34M366 256.34L376 263.143L365 264.857L373.75 256.571L372.5 268L366 256.34Z" stroke="white"/>
<path d="M61 309.738L57.9798 310.248L57.5 315L55.2885 310.702L50 311.595L53.762 307.736L51 302.368L55.6522 305.797L58.75 302.619L58.2368 307.702L61 309.738Z" fill="white"/>
<path d="M50.5 302L51 302.368M51 302.368L61 309.738L50 311.595L58.75 302.619L57.5 315L51 302.368Z" stroke="white"/>
<path d="M33 407.548L29.9798 407.979L29.5 412L27.2885 408.364L22 409.119L25.762 405.854L23 401.312L27.6522 404.213L30.75 401.524L30.2368 405.825L33 407.548Z" fill="white"/>
<path d="M22.5 401L23 401.312M23 401.312L33 407.548L22 409.119L30.75 401.524L29.5 412L23 401.312Z" stroke="white"/>
<path d="M331 557.738L327.705 558.248L327.182 563L324.769 558.702L319 559.595L323.104 555.736L320.091 550.368L325.166 553.797L328.545 550.619L327.986 555.702L331 557.738Z" fill="white"/>
<path d="M319.545 550L320.091 550.368M320.091 550.368L331 557.738L319 559.595L328.545 550.619L327.182 563L320.091 550.368Z" stroke="white"/>
<path d="M65 544.143L61.9798 544.614L61.5 549L59.2885 545.033L54 545.857L57.762 542.295L55 537.34L59.6522 540.505L62.75 537.571L62.2368 542.263L65 544.143Z" fill="white"/>
<path d="M54.5 537L55 537.34M55 537.34L65 544.143L54 545.857L62.75 537.571L61.5 549L55 537.34Z" stroke="white"/>
<path d="M123 614.143L119.705 614.614L119.182 619L116.769 615.033L111 615.857L115.104 612.295L112.091 607.34L117.166 610.505L120.545 607.571L119.986 612.263L123 614.143Z" fill="white"/>
<path d="M111.545 607L112.091 607.34M112.091 607.34L123 614.143L111 615.857L120.545 607.571L119.182 619L112.091 607.34Z" stroke="white"/>
<path d="M360 844.333L356.98 844.882L356.5 850L354.289 845.372L349 846.333L352.762 842.177L350 836.397L354.652 840.089L357.75 836.667L357.237 842.14L360 844.333Z" fill="white"/>
<path d="M349.5 836L350 836.397M350 836.397L360 844.333L349 846.333L357.75 836.667L356.5 850L350 836.397Z" stroke="white"/>
<path d="M70 780.333L66.9798 780.882L66.5 786L64.2885 781.372L59 782.333L62.762 778.177L60 772.397L64.6522 776.089L67.75 772.667L67.2368 778.14L70 780.333Z" fill="white"/>
<path d="M59.5 772L60 772.397M60 772.397L70 780.333L59 782.333L67.75 772.667L66.5 786L60 772.397Z" stroke="white"/>
<path d="M11 672.738L7.97977 673.248L7.5 678L5.2885 673.702L0 674.595L3.76203 670.736L1 665.368L5.65217 668.797L8.75 665.619L8.23684 670.702L11 672.738Z" fill="white"/>
<path d="M0.5 665L1 665.368M1 665.368L11 672.738L0 674.595L8.75 665.619L7.5 678L1 665.368Z" stroke="white"/>
<path d="M271 855.143L267.98 855.614L267.5 860L265.289 856.033L260 856.857L263.762 853.295L261 848.34L265.652 851.505L268.75 848.571L268.237 853.263L271 855.143Z" fill="white"/>
<path d="M260.5 848L261 848.34M261 848.34L271 855.143L260 856.857L268.75 848.571L267.5 860L261 848.34Z" stroke="white"/>
<path d="M30 850.738L26.7052 851.248L26.1818 856L23.7693 851.702L18 852.595L22.104 848.736L19.0909 843.368L24.166 846.797L27.5455 843.619L26.9856 848.702L30 850.738Z" fill="white"/>
<path d="M18.5455 843L19.0909 843.368M19.0909 843.368L30 850.738L18 852.595L27.5455 843.619L26.1818 856L19.0909 843.368Z" stroke="white"/>
<path d="M327 914.738L323.705 915.248L323.182 920L320.769 915.702L315 916.595L319.104 912.736L316.091 907.368L321.166 910.797L324.545 907.619L323.986 912.702L327 914.738Z" fill="white"/>
<path d="M315.545 907L316.091 907.368M316.091 907.368L327 914.738L315 916.595L324.545 907.619L323.182 920L316.091 907.368Z" stroke="white"/>
<path d="M82 907.738L78.9798 908.248L78.5 913L76.2885 908.702L71 909.595L74.762 905.736L72 900.368L76.6522 903.797L79.75 900.619L79.2368 905.702L82 907.738Z" fill="white"/>
<path d="M71.5 900L72 900.368M72 900.368L82 907.738L71 909.595L79.75 900.619L78.5 913L72 900.368Z" stroke="white"/>
<path d="M414 16.7381L410.98 17.248L410.5 22L408.289 17.7024L403 18.5952L406.762 14.736L404 9.36848L408.652 12.797L411.75 9.61905L411.237 14.7018L414 16.7381Z" fill="white"/>
<path d="M403.5 9L404 9.36848M404 9.36848L414 16.7381L403 18.5952L411.75 9.61905L410.5 22L404 9.36848Z" stroke="white"/>
<path d="M134 80.7381L130.98 81.248L130.5 86L128.289 81.7024L123 82.5952L126.762 78.736L124 73.3685L128.652 76.797L131.75 73.619L131.237 78.7018L134 80.7381Z" fill="white"/>
<path d="M123.5 73L124 73.3685M124 73.3685L134 80.7381L123 82.5952L131.75 73.619L130.5 86L124 73.3685Z" stroke="white"/>
<path d="M425 87.3333L421.98 87.8825L421.5 93L419.289 88.3718L414 89.3333L417.762 85.1772L415 79.3968L419.652 83.089L422.75 79.6667L422.237 85.1404L425 87.3333Z" fill="white"/>
<path d="M414.5 79L415 79.3968M415 79.3968L425 87.3333L414 89.3333L422.75 79.6667L421.5 93L415 79.3968Z" stroke="white"/>
<path d="M211 212.333L207.98 212.882L207.5 218L205.289 213.372L200 214.333L203.762 210.177L201 204.397L205.652 208.089L208.75 204.667L208.237 210.14L211 212.333Z" fill="white"/>
<path d="M200.5 204L201 204.397M201 204.397L211 212.333L200 214.333L208.75 204.667L207.5 218L201 204.397Z" stroke="white"/>
<path d="M255 139.333L251.98 139.882L251.5 145L249.289 140.372L244 141.333L247.762 137.177L245 131.397L249.652 135.089L252.75 131.667L252.237 137.14L255 139.333Z" fill="white"/>
<path d="M244.5 131L245 131.397M245 131.397L255 139.333L244 141.333L252.75 131.667L251.5 145L245 131.397Z" stroke="white"/>
<path d="M257 7.14286L253.98 7.61354L253.5 12L251.289 8.03296L246 8.85714L249.762 5.29473L247 0.340136L251.652 3.50488L254.75 0.571429L254.237 5.26316L257 7.14286Z" fill="white"/>
<path d="M246.5 0L247 0.340136M247 0.340136L257 7.14286L246 8.85714L254.75 0.571429L253.5 12L247 0.340136Z" stroke="white"/>
<path d="M458 453.143L454.705 453.614L454.182 458L451.769 454.033L446 454.857L450.104 451.295L447.091 446.34L452.166 449.505L455.545 446.571L454.986 451.263L458 453.143Z" fill="white"/>
<path d="M446.545 446L447.091 446.34M447.091 446.34L458 453.143L446 454.857L455.545 446.571L454.182 458L447.091 446.34Z" stroke="white"/>
<path d="M233 557.333L229.98 557.882L229.5 563L227.289 558.372L222 559.333L225.762 555.177L223 549.397L227.652 553.089L230.75 549.667L230.237 555.14L233 557.333Z" fill="white"/>
<path d="M222.5 549L223 549.397M223 549.397L233 557.333L222 559.333L230.75 549.667L229.5 563L223 549.397Z" stroke="white"/>
<path d="M225 315.738L221.705 316.248L221.182 321L218.769 316.702L213 317.595L217.104 313.736L214.091 308.368L219.166 311.797L222.545 308.619L221.986 313.702L225 315.738Z" fill="white"/>
<path d="M213.545 308L214.091 308.368M214.091 308.368L225 315.738L213 317.595L222.545 308.619L221.182 321L214.091 308.368Z" stroke="white"/>
<path d="M461 686.738L458.254 687.248L457.818 692L455.808 687.702L451 688.595L454.42 684.736L451.909 679.368L456.138 682.797L458.955 679.619L458.488 684.702L461 686.738Z" fill="white"/>
<path d="M451.455 679L451.909 679.368M451.909 679.368L461 686.738L451 688.595L458.955 679.619L457.818 692L451.909 679.368Z" stroke="white"/>
<path d="M287 767.143L283.705 767.614L283.182 772L280.769 768.033L275 768.857L279.104 765.295L276.091 760.34L281.166 763.505L284.545 760.571L283.986 765.263L287 767.143Z" fill="white"/>
<path d="M275.545 760L276.091 760.34M276.091 760.34L287 767.143L275 768.857L284.545 760.571L283.182 772L276.091 760.34Z" stroke="white"/>
<path d="M317 667.548L313.98 667.979L313.5 672L311.289 668.364L306 669.119L309.762 665.854L307 661.312L311.652 664.213L314.75 661.524L314.237 665.825L317 667.548Z" fill="white"/>
<path d="M306.5 661L307 661.312M307 661.312L317 667.548L306 669.119L314.75 661.524L313.5 672L307 661.312Z" stroke="white"/>
<path d="M347 45.7381L344.254 46.248L343.818 51L341.808 46.7024L337 47.5952L340.42 43.736L337.909 38.3685L342.138 41.797L344.955 38.619L344.488 43.7018L347 45.7381Z" fill="white"/>
<path d="M337.455 38L337.909 38.3685M337.909 38.3685L347 45.7381L337 47.5952L344.955 38.619L343.818 51L337.909 38.3685Z" stroke="white"/>
<path d="M111 16.7381L108.254 17.248L107.818 22L105.808 17.7024L101 18.5952L104.42 14.736L101.909 9.36848L106.138 12.797L108.955 9.61905L108.488 14.7018L111 16.7381Z" fill="white"/>
<path d="M101.455 9L101.909 9.36848M101.909 9.36848L111 16.7381L101 18.5952L108.955 9.61905L107.818 22L101.909 9.36848Z" stroke="white"/>
<path d="M302 239.738L298.98 240.248L298.5 245L296.289 240.702L291 241.595L294.762 237.736L292 232.368L296.652 235.797L299.75 232.619L299.237 237.702L302 239.738Z" fill="white"/>
<path d="M291.5 232L292 232.368M292 232.368L302 239.738L291 241.595L299.75 232.619L298.5 245L292 232.368Z" stroke="white"/>
<path d="M116 251.548L112.705 251.979L112.182 256L109.769 252.364L104 253.119L108.104 249.854L105.091 245.312L110.166 248.213L113.545 245.524L112.986 249.825L116 251.548Z" fill="white"/>
<path d="M104.545 245L105.091 245.312M105.091 245.312L116 251.548L104 253.119L113.545 245.524L112.182 256L105.091 245.312Z" stroke="white"/>
<path d="M59 199.143L55.7052 199.614L55.1818 204L52.7693 200.033L47 200.857L51.104 197.295L48.0909 192.34L53.166 195.505L56.5455 192.571L55.9856 197.263L59 199.143Z" fill="white"/>
<path d="M47.5455 192L48.0909 192.34M48.0909 192.34L59 199.143L47 200.857L56.5455 192.571L55.1818 204L48.0909 192.34Z" stroke="white"/>
<path d="M27 126.143L23.9798 126.614L23.5 131L21.2885 127.033L16 127.857L19.762 124.295L17 119.34L21.6522 122.505L24.75 119.571L24.2368 124.263L27 126.143Z" fill="white"/>
<path d="M16.5 119L17 119.34M17 119.34L27 126.143L16 127.857L24.75 119.571L23.5 131L17 119.34Z" stroke="white"/>
<path d="M342 419.738L338.98 420.248L338.5 425L336.289 420.702L331 421.595L334.762 417.736L332 412.368L336.652 415.797L339.75 412.619L339.237 417.702L342 419.738Z" fill="white"/>
<path d="M331.5 412L332 412.368M332 412.368L342 419.738L331 421.595L339.75 412.619L338.5 425L332 412.368Z" stroke="white"/>
<path d="M119 485.738L116.254 486.248L115.818 491L113.808 486.702L109 487.595L112.42 483.736L109.909 478.368L114.138 481.797L116.955 478.619L116.488 483.702L119 485.738Z" fill="white"/>
<path d="M109.455 478L109.909 478.368M109.909 478.368L119 485.738L109 487.595L116.955 478.619L115.818 491L109.909 478.368Z" stroke="white"/>
<path d="M365 725.333L362.254 725.882L361.818 731L359.808 726.372L355 727.333L358.42 723.177L355.909 717.397L360.138 721.089L362.955 717.667L362.488 723.14L365 725.333Z" fill="white"/>
<path d="M355.455 717L355.909 717.397M355.909 717.397L365 725.333L355 727.333L362.955 717.667L361.818 731L355.909 717.397Z" stroke="white"/>
<path d="M131 742.548L127.705 742.979L127.182 747L124.769 743.364L119 744.119L123.104 740.854L120.091 736.312L125.166 739.213L128.545 736.524L127.986 740.825L131 742.548Z" fill="white"/>
<path d="M119.545 736L120.091 736.312M120.091 736.312L131 742.548L119 744.119L128.545 736.524L127.182 747L120.091 736.312Z" stroke="white"/>
</g>
<defs>
<clipPath id="clip0_1_3">
<rect width="926" height="466" fill="white" transform="translate(466) rotate(90)"/>
</clipPath>
</defs>
</svg>
