<svg width="700" height="501" viewBox="0 0 700 501" fill="none" xmlns="http://www.w3.org/2000/svg">
<g clip-path="url(#clip0_1_17)">
<rect width="700" height="500" transform="translate(0 0.222229)" fill="#F05F5F"/>
<path d="M18.025 18.7479L24.7792 24.4691L31.5334 18.7479" stroke="#F99999" stroke-width="15.8923" stroke-linecap="round" style="mix-blend-mode:screen"/>
<path d="M18.025 97.0327L24.7792 102.754L31.5334 97.0327" stroke="#F99999" stroke-width="15.8923" stroke-linecap="round" style="mix-blend-mode:screen"/>
<path d="M48.5674 57.8021L55.3216 63.5233L62.0758 57.8021" stroke="#F99999" stroke-width="15.8923" stroke-linecap="round" style="mix-blend-mode:screen"/>
<path d="M48.5674 140.917L55.3216 146.639L62.0758 140.917" stroke="#F99999" stroke-width="15.8923" stroke-linecap="round" style="mix-blend-mode:screen"/>
<path d="M48.5674 214.519L55.3216 220.241L62.0758 214.519" stroke="#F99999" stroke-width="15.8923" stroke-linecap="round" style="mix-blend-mode:screen"/>
<path d="M48.5674 292.628L55.3216 298.349L62.0758 292.628" stroke="#F99999" stroke-width="15.8923" stroke-linecap="round" style="mix-blend-mode:screen"/>
<path d="M48.5674 370.736L55.3216 376.457L62.0758 370.736" stroke="#F99999" stroke-width="15.8923" stroke-linecap="round" style="mix-blend-mode:screen"/>
<path d="M48.5674 449.345L55.3216 455.066L62.0758 449.345" stroke="#F99999" stroke-width="15.8923" stroke-linecap="round" style="mix-blend-mode:screen"/>
<path d="M18.025 175.317L24.7792 181.039L31.5334 175.317" stroke="#F99999" stroke-width="15.8923" stroke-linecap="round" style="mix-blend-mode:screen"/>
<path d="M18.025 253.602L24.7792 259.323L31.5334 253.602" stroke="#F99999" stroke-width="15.8923" stroke-linecap="round" style="mix-blend-mode:screen"/>
<path d="M18.025 331.887L24.7792 337.608L31.5334 331.887" stroke="#F99999" stroke-width="15.8923" stroke-linecap="round" style="mix-blend-mode:screen"/>
<path d="M18.025 410.172L24.7792 415.893L31.5334 410.172" stroke="#F99999" stroke-width="15.8923" stroke-linecap="round" style="mix-blend-mode:screen"/>
<path d="M18.025 488.456L24.7792 494.178L31.5334 488.456" stroke="#F99999" stroke-width="15.8923" stroke-linecap="round" style="mix-blend-mode:screen"/>
<path d="M262.1 18.7479L268.854 24.4691L275.608 18.7479" stroke="#F99999" stroke-width="15.8923" stroke-linecap="round" style="mix-blend-mode:screen"/>
<path d="M262.1 97.0327L268.854 102.754L275.608 97.0327" stroke="#F99999" stroke-width="15.8923" stroke-linecap="round" style="mix-blend-mode:screen"/>
<path d="M292.642 57.8021L299.397 63.5233L306.151 57.8021" stroke="#F99999" stroke-width="15.8923" stroke-linecap="round" style="mix-blend-mode:screen"/>
<path d="M292.642 140.917L299.397 146.639L306.151 140.917" stroke="#F99999" stroke-width="15.8923" stroke-linecap="round" style="mix-blend-mode:screen"/>
<path d="M292.642 214.519L299.397 220.241L306.151 214.519" stroke="#F99999" stroke-width="15.8923" stroke-linecap="round" style="mix-blend-mode:screen"/>
<path d="M292.642 292.628L299.397 298.349L306.151 292.628" stroke="#F99999" stroke-width="15.8923" stroke-linecap="round" style="mix-blend-mode:screen"/>
<path d="M292.642 370.736L299.397 376.457L306.151 370.736" stroke="#F99999" stroke-width="15.8923" stroke-linecap="round" style="mix-blend-mode:screen"/>
<path d="M292.642 449.345L299.397 455.066L306.151 449.345" stroke="#F99999" stroke-width="15.8923" stroke-linecap="round" style="mix-blend-mode:screen"/>
<path d="M262.1 175.317L268.854 181.039L275.608 175.317" stroke="#F99999" stroke-width="15.8923" stroke-linecap="round" style="mix-blend-mode:screen"/>
<path d="M262.1 253.602L268.854 259.323L275.608 253.602" stroke="#F99999" stroke-width="15.8923" stroke-linecap="round" style="mix-blend-mode:screen"/>
<path d="M262.1 331.887L268.854 337.608L275.608 331.887" stroke="#F99999" stroke-width="15.8923" stroke-linecap="round" style="mix-blend-mode:screen"/>
<path d="M262.1 410.172L268.854 415.893L275.608 410.172" stroke="#F99999" stroke-width="15.8923" stroke-linecap="round" style="mix-blend-mode:screen"/>
<path d="M262.1 488.456L268.854 494.178L275.608 488.456" stroke="#F99999" stroke-width="15.8923" stroke-linecap="round" style="mix-blend-mode:screen"/>
<path d="M506.175 18.7479L512.929 24.4691L519.683 18.7479" stroke="#F99999" stroke-width="15.8923" stroke-linecap="round" style="mix-blend-mode:screen"/>
<path d="M506.175 97.0327L512.929 102.754L519.683 97.0327" stroke="#F99999" stroke-width="15.8923" stroke-linecap="round" style="mix-blend-mode:screen"/>
<path d="M536.717 57.8021L543.472 63.5233L550.226 57.8021" stroke="#F99999" stroke-width="15.8923" stroke-linecap="round" style="mix-blend-mode:screen"/>
<path d="M536.717 140.917L543.472 146.639L550.226 140.917" stroke="#F99999" stroke-width="15.8923" stroke-linecap="round" style="mix-blend-mode:screen"/>
<path d="M536.717 214.519L543.472 220.241L550.226 214.519" stroke="#F99999" stroke-width="15.8923" stroke-linecap="round" style="mix-blend-mode:screen"/>
<path d="M536.717 292.628L543.472 298.349L550.226 292.628" stroke="#F99999" stroke-width="15.8923" stroke-linecap="round" style="mix-blend-mode:screen"/>
<path d="M536.717 370.736L543.472 376.457L550.226 370.736" stroke="#F99999" stroke-width="15.8923" stroke-linecap="round" style="mix-blend-mode:screen"/>
<path d="M536.717 449.345L543.472 455.066L550.226 449.345" stroke="#F99999" stroke-width="15.8923" stroke-linecap="round" style="mix-blend-mode:screen"/>
<path d="M506.175 175.317L512.929 181.039L519.683 175.317" stroke="#F99999" stroke-width="15.8923" stroke-linecap="round" style="mix-blend-mode:screen"/>
<path d="M506.175 253.602L512.929 259.323L519.683 253.602" stroke="#F99999" stroke-width="15.8923" stroke-linecap="round" style="mix-blend-mode:screen"/>
<path d="M506.175 331.887L512.929 337.608L519.683 331.887" stroke="#F99999" stroke-width="15.8923" stroke-linecap="round" style="mix-blend-mode:screen"/>
<path d="M506.175 410.172L512.929 415.893L519.683 410.172" stroke="#F99999" stroke-width="15.8923" stroke-linecap="round" style="mix-blend-mode:screen"/>
<path d="M506.175 488.456L512.929 494.178L519.683 488.456" stroke="#F99999" stroke-width="15.8923" stroke-linecap="round" style="mix-blend-mode:screen"/>
<path d="M79.0514 18.7479L85.8056 24.4691L92.5599 18.7479" stroke="#F99999" stroke-width="15.8923" stroke-linecap="round" style="mix-blend-mode:screen"/>
<path d="M79.0514 97.0327L85.8056 102.754L92.5599 97.0327" stroke="#F99999" stroke-width="15.8923" stroke-linecap="round" style="mix-blend-mode:screen"/>
<path d="M109.594 57.8021L116.348 63.5233L123.102 57.8021" stroke="#F99999" stroke-width="15.8923" stroke-linecap="round" style="mix-blend-mode:screen"/>
<path d="M109.594 140.917L116.348 146.639L123.102 140.917" stroke="#F99999" stroke-width="15.8923" stroke-linecap="round" style="mix-blend-mode:screen"/>
<path d="M109.594 214.519L116.348 220.241L123.102 214.519" stroke="#F99999" stroke-width="15.8923" stroke-linecap="round" style="mix-blend-mode:screen"/>
<path d="M109.594 292.628L116.348 298.349L123.102 292.628" stroke="#F99999" stroke-width="15.8923" stroke-linecap="round" style="mix-blend-mode:screen"/>
<path d="M109.594 370.736L116.348 376.457L123.102 370.736" stroke="#F99999" stroke-width="15.8923" stroke-linecap="round" style="mix-blend-mode:screen"/>
<path d="M109.594 449.345L116.348 455.066L123.102 449.345" stroke="#F99999" stroke-width="15.8923" stroke-linecap="round" style="mix-blend-mode:screen"/>
<path d="M79.0514 175.317L85.8056 181.039L92.5599 175.317" stroke="#F99999" stroke-width="15.8923" stroke-linecap="round" style="mix-blend-mode:screen"/>
<path d="M79.0514 253.602L85.8056 259.323L92.5599 253.602" stroke="#F99999" stroke-width="15.8923" stroke-linecap="round" style="mix-blend-mode:screen"/>
<path d="M79.0514 331.887L85.8056 337.608L92.5599 331.887" stroke="#F99999" stroke-width="15.8923" stroke-linecap="round" style="mix-blend-mode:screen"/>
<path d="M79.0514 410.172L85.8056 415.893L92.5599 410.172" stroke="#F99999" stroke-width="15.8923" stroke-linecap="round" style="mix-blend-mode:screen"/>
<path d="M79.0514 488.456L85.8056 494.178L92.5599 488.456" stroke="#F99999" stroke-width="15.8923" stroke-linecap="round" style="mix-blend-mode:screen"/>
<path d="M323.126 18.7479L329.881 24.4691L336.635 18.7479" stroke="#F99999" stroke-width="15.8923" stroke-linecap="round" style="mix-blend-mode:screen"/>
<path d="M323.126 97.0327L329.881 102.754L336.635 97.0327" stroke="#F99999" stroke-width="15.8923" stroke-linecap="round" style="mix-blend-mode:screen"/>
<path d="M353.669 57.8021L360.423 63.5233L367.177 57.8021" stroke="#F99999" stroke-width="15.8923" stroke-linecap="round" style="mix-blend-mode:screen"/>
<path d="M353.669 140.917L360.423 146.639L367.177 140.917" stroke="#F99999" stroke-width="15.8923" stroke-linecap="round" style="mix-blend-mode:screen"/>
<path d="M353.669 214.519L360.423 220.241L367.177 214.519" stroke="#F99999" stroke-width="15.8923" stroke-linecap="round" style="mix-blend-mode:screen"/>
<path d="M353.669 292.628L360.423 298.349L367.177 292.628" stroke="#F99999" stroke-width="15.8923" stroke-linecap="round" style="mix-blend-mode:screen"/>
<path d="M353.669 370.736L360.423 376.457L367.177 370.736" stroke="#F99999" stroke-width="15.8923" stroke-linecap="round" style="mix-blend-mode:screen"/>
<path d="M353.669 449.345L360.423 455.066L367.177 449.345" stroke="#F99999" stroke-width="15.8923" stroke-linecap="round" style="mix-blend-mode:screen"/>
<path d="M323.126 175.317L329.881 181.039L336.635 175.317" stroke="#F99999" stroke-width="15.8923" stroke-linecap="round" style="mix-blend-mode:screen"/>
<path d="M323.126 253.602L329.881 259.323L336.635 253.602" stroke="#F99999" stroke-width="15.8923" stroke-linecap="round" style="mix-blend-mode:screen"/>
<path d="M323.126 331.887L329.881 337.608L336.635 331.887" stroke="#F99999" stroke-width="15.8923" stroke-linecap="round" style="mix-blend-mode:screen"/>
<path d="M323.126 410.172L329.881 415.893L336.635 410.172" stroke="#F99999" stroke-width="15.8923" stroke-linecap="round" style="mix-blend-mode:screen"/>
<path d="M323.126 488.456L329.881 494.178L336.635 488.456" stroke="#F99999" stroke-width="15.8923" stroke-linecap="round" style="mix-blend-mode:screen"/>
<path d="M567.201 18.7479L573.956 24.4691L580.71 18.7479" stroke="#F99999" stroke-width="15.8923" stroke-linecap="round" style="mix-blend-mode:screen"/>
<path d="M567.201 97.0327L573.956 102.754L580.71 97.0327" stroke="#F99999" stroke-width="15.8923" stroke-linecap="round" style="mix-blend-mode:screen"/>
<path d="M597.744 57.8021L604.498 63.5233L611.252 57.8021" stroke="#F99999" stroke-width="15.8923" stroke-linecap="round" style="mix-blend-mode:screen"/>
<path d="M597.744 140.917L604.498 146.639L611.252 140.917" stroke="#F99999" stroke-width="15.8923" stroke-linecap="round" style="mix-blend-mode:screen"/>
<path d="M597.744 214.519L604.498 220.241L611.252 214.519" stroke="#F99999" stroke-width="15.8923" stroke-linecap="round" style="mix-blend-mode:screen"/>
<path d="M597.744 292.628L604.498 298.349L611.252 292.628" stroke="#F99999" stroke-width="15.8923" stroke-linecap="round" style="mix-blend-mode:screen"/>
<path d="M597.744 370.736L604.498 376.457L611.252 370.736" stroke="#F99999" stroke-width="15.8923" stroke-linecap="round" style="mix-blend-mode:screen"/>
<path d="M597.744 449.345L604.498 455.066L611.252 449.345" stroke="#F99999" stroke-width="15.8923" stroke-linecap="round" style="mix-blend-mode:screen"/>
<path d="M567.201 175.317L573.956 181.039L580.71 175.317" stroke="#F99999" stroke-width="15.8923" stroke-linecap="round" style="mix-blend-mode:screen"/>
<path d="M567.201 253.602L573.956 259.323L580.71 253.602" stroke="#F99999" stroke-width="15.8923" stroke-linecap="round" style="mix-blend-mode:screen"/>
<path d="M567.201 331.887L573.956 337.608L580.71 331.887" stroke="#F99999" stroke-width="15.8923" stroke-linecap="round" style="mix-blend-mode:screen"/>
<path d="M567.201 410.172L573.956 415.893L580.71 410.172" stroke="#F99999" stroke-width="15.8923" stroke-linecap="round" style="mix-blend-mode:screen"/>
<path d="M567.201 488.456L573.956 494.178L580.71 488.456" stroke="#F99999" stroke-width="15.8923" stroke-linecap="round" style="mix-blend-mode:screen"/>
<path d="M140.078 18.7479L146.832 24.4691L153.586 18.7479" stroke="#F99999" stroke-width="15.8923" stroke-linecap="round" style="mix-blend-mode:screen"/>
<path d="M140.078 97.0327L146.832 102.754L153.586 97.0327" stroke="#F99999" stroke-width="15.8923" stroke-linecap="round" style="mix-blend-mode:screen"/>
<path d="M170.62 57.8021L177.374 63.5233L184.129 57.8021" stroke="#F99999" stroke-width="15.8923" stroke-linecap="round" style="mix-blend-mode:screen"/>
<path d="M170.62 140.917L177.374 146.639L184.129 140.917" stroke="#F99999" stroke-width="15.8923" stroke-linecap="round" style="mix-blend-mode:screen"/>
<path d="M170.62 214.519L177.374 220.241L184.129 214.519" stroke="#F99999" stroke-width="15.8923" stroke-linecap="round" style="mix-blend-mode:screen"/>
<path d="M170.62 292.628L177.374 298.349L184.129 292.628" stroke="#F99999" stroke-width="15.8923" stroke-linecap="round" style="mix-blend-mode:screen"/>
<path d="M170.62 370.736L177.374 376.457L184.129 370.736" stroke="#F99999" stroke-width="15.8923" stroke-linecap="round" style="mix-blend-mode:screen"/>
<path d="M170.62 449.345L177.374 455.066L184.129 449.345" stroke="#F99999" stroke-width="15.8923" stroke-linecap="round" style="mix-blend-mode:screen"/>
<path d="M140.078 175.317L146.832 181.039L153.586 175.317" stroke="#F99999" stroke-width="15.8923" stroke-linecap="round" style="mix-blend-mode:screen"/>
<path d="M140.078 253.602L146.832 259.323L153.586 253.602" stroke="#F99999" stroke-width="15.8923" stroke-linecap="round" style="mix-blend-mode:screen"/>
<path d="M140.078 331.887L146.832 337.608L153.586 331.887" stroke="#F99999" stroke-width="15.8923" stroke-linecap="round" style="mix-blend-mode:screen"/>
<path d="M140.078 410.172L146.832 415.893L153.586 410.172" stroke="#F99999" stroke-width="15.8923" stroke-linecap="round" style="mix-blend-mode:screen"/>
<path d="M140.078 488.456L146.832 494.178L153.586 488.456" stroke="#F99999" stroke-width="15.8923" stroke-linecap="round" style="mix-blend-mode:screen"/>
<path d="M384.153 18.7479L390.907 24.4691L397.661 18.7479" stroke="#F99999" stroke-width="15.8923" stroke-linecap="round" style="mix-blend-mode:screen"/>
<path d="M384.153 97.0327L390.907 102.754L397.661 97.0327" stroke="#F99999" stroke-width="15.8923" stroke-linecap="round" style="mix-blend-mode:screen"/>
<path d="M414.695 57.8021L421.449 63.5233L428.204 57.8021" stroke="#F99999" stroke-width="15.8923" stroke-linecap="round" style="mix-blend-mode:screen"/>
<path d="M414.695 140.917L421.449 146.639L428.204 140.917" stroke="#F99999" stroke-width="15.8923" stroke-linecap="round" style="mix-blend-mode:screen"/>
<path d="M414.695 214.519L421.449 220.241L428.204 214.519" stroke="#F99999" stroke-width="15.8923" stroke-linecap="round" style="mix-blend-mode:screen"/>
<path d="M414.695 292.628L421.449 298.349L428.204 292.628" stroke="#F99999" stroke-width="15.8923" stroke-linecap="round" style="mix-blend-mode:screen"/>
<path d="M414.695 370.736L421.449 376.457L428.204 370.736" stroke="#F99999" stroke-width="15.8923" stroke-linecap="round" style="mix-blend-mode:screen"/>
<path d="M414.695 449.345L421.449 455.066L428.204 449.345" stroke="#F99999" stroke-width="15.8923" stroke-linecap="round" style="mix-blend-mode:screen"/>
<path d="M384.153 175.317L390.907 181.039L397.661 175.317" stroke="#F99999" stroke-width="15.8923" stroke-linecap="round" style="mix-blend-mode:screen"/>
<path d="M384.153 253.602L390.907 259.323L397.661 253.602" stroke="#F99999" stroke-width="15.8923" stroke-linecap="round" style="mix-blend-mode:screen"/>
<path d="M384.153 331.887L390.907 337.608L397.661 331.887" stroke="#F99999" stroke-width="15.8923" stroke-linecap="round" style="mix-blend-mode:screen"/>
<path d="M384.153 410.172L390.907 415.893L397.661 410.172" stroke="#F99999" stroke-width="15.8923" stroke-linecap="round" style="mix-blend-mode:screen"/>
<path d="M384.153 488.456L390.907 494.178L397.661 488.456" stroke="#F99999" stroke-width="15.8923" stroke-linecap="round" style="mix-blend-mode:screen"/>
<path d="M628.228 18.7479L634.982 24.4691L641.736 18.7479" stroke="#F99999" stroke-width="15.8923" stroke-linecap="round" style="mix-blend-mode:screen"/>
<path d="M628.228 97.0327L634.982 102.754L641.736 97.0327" stroke="#F99999" stroke-width="15.8923" stroke-linecap="round" style="mix-blend-mode:screen"/>
<path d="M658.77 57.8021L665.524 63.5233L672.278 57.8021" stroke="#F99999" stroke-width="15.8923" stroke-linecap="round" style="mix-blend-mode:screen"/>
<path d="M658.77 140.917L665.524 146.639L672.278 140.917" stroke="#F99999" stroke-width="15.8923" stroke-linecap="round" style="mix-blend-mode:screen"/>
<path d="M658.77 214.519L665.524 220.241L672.278 214.519" stroke="#F99999" stroke-width="15.8923" stroke-linecap="round" style="mix-blend-mode:screen"/>
<path d="M658.77 292.628L665.524 298.349L672.278 292.628" stroke="#F99999" stroke-width="15.8923" stroke-linecap="round" style="mix-blend-mode:screen"/>
<path d="M658.77 370.736L665.524 376.457L672.278 370.736" stroke="#F99999" stroke-width="15.8923" stroke-linecap="round" style="mix-blend-mode:screen"/>
<path d="M658.77 449.345L665.524 455.066L672.278 449.345" stroke="#F99999" stroke-width="15.8923" stroke-linecap="round" style="mix-blend-mode:screen"/>
<path d="M628.228 175.317L634.982 181.039L641.736 175.317" stroke="#F99999" stroke-width="15.8923" stroke-linecap="round" style="mix-blend-mode:screen"/>
<path d="M628.228 253.602L634.982 259.323L641.736 253.602" stroke="#F99999" stroke-width="15.8923" stroke-linecap="round" style="mix-blend-mode:screen"/>
<path d="M628.228 331.887L634.982 337.608L641.736 331.887" stroke="#F99999" stroke-width="15.8923" stroke-linecap="round" style="mix-blend-mode:screen"/>
<path d="M628.228 410.172L634.982 415.893L641.736 410.172" stroke="#F99999" stroke-width="15.8923" stroke-linecap="round" style="mix-blend-mode:screen"/>
<path d="M628.228 488.456L634.982 494.178L641.736 488.456" stroke="#F99999" stroke-width="15.8923" stroke-linecap="round" style="mix-blend-mode:screen"/>
<path d="M201.104 18.7479L207.858 24.4691L214.613 18.7479" stroke="#F99999" stroke-width="15.8923" stroke-linecap="round" style="mix-blend-mode:screen"/>
<path d="M201.104 97.0327L207.858 102.754L214.613 97.0327" stroke="#F99999" stroke-width="15.8923" stroke-linecap="round" style="mix-blend-mode:screen"/>
<path d="M231.646 57.8021L238.401 63.5233L245.155 57.8021" stroke="#F99999" stroke-width="15.8923" stroke-linecap="round" style="mix-blend-mode:screen"/>
<path d="M231.646 140.917L238.401 146.639L245.155 140.917" stroke="#F99999" stroke-width="15.8923" stroke-linecap="round" style="mix-blend-mode:screen"/>
<path d="M231.646 214.519L238.401 220.241L245.155 214.519" stroke="#F99999" stroke-width="15.8923" stroke-linecap="round" style="mix-blend-mode:screen"/>
<path d="M231.646 292.628L238.401 298.349L245.155 292.628" stroke="#F99999" stroke-width="15.8923" stroke-linecap="round" style="mix-blend-mode:screen"/>
<path d="M231.646 370.736L238.401 376.457L245.155 370.736" stroke="#F99999" stroke-width="15.8923" stroke-linecap="round" style="mix-blend-mode:screen"/>
<path d="M231.646 449.345L238.401 455.066L245.155 449.345" stroke="#F99999" stroke-width="15.8923" stroke-linecap="round" style="mix-blend-mode:screen"/>
<path d="M201.104 175.317L207.858 181.039L214.613 175.317" stroke="#F99999" stroke-width="15.8923" stroke-linecap="round" style="mix-blend-mode:screen"/>
<path d="M201.104 253.602L207.858 259.323L214.613 253.602" stroke="#F99999" stroke-width="15.8923" stroke-linecap="round" style="mix-blend-mode:screen"/>
<path d="M201.104 331.887L207.858 337.608L214.613 331.887" stroke="#F99999" stroke-width="15.8923" stroke-linecap="round" style="mix-blend-mode:screen"/>
<path d="M201.104 410.172L207.858 415.893L214.613 410.172" stroke="#F99999" stroke-width="15.8923" stroke-linecap="round" style="mix-blend-mode:screen"/>
<path d="M201.104 488.456L207.858 494.178L214.613 488.456" stroke="#F99999" stroke-width="15.8923" stroke-linecap="round" style="mix-blend-mode:screen"/>
<path d="M445.179 18.7479L451.933 24.4691L458.688 18.7479" stroke="#F99999" stroke-width="15.8923" stroke-linecap="round" style="mix-blend-mode:screen"/>
<path d="M445.179 97.0327L451.933 102.754L458.688 97.0327" stroke="#F99999" stroke-width="15.8923" stroke-linecap="round" style="mix-blend-mode:screen"/>
<path d="M475.721 57.8021L482.476 63.5233L489.23 57.8021" stroke="#F99999" stroke-width="15.8923" stroke-linecap="round" style="mix-blend-mode:screen"/>
<path d="M475.721 140.917L482.476 146.639L489.23 140.917" stroke="#F99999" stroke-width="15.8923" stroke-linecap="round" style="mix-blend-mode:screen"/>
<path d="M475.721 214.519L482.476 220.241L489.23 214.519" stroke="#F99999" stroke-width="15.8923" stroke-linecap="round" style="mix-blend-mode:screen"/>
<path d="M475.721 292.628L482.476 298.349L489.23 292.628" stroke="#F99999" stroke-width="15.8923" stroke-linecap="round" style="mix-blend-mode:screen"/>
<path d="M475.721 370.736L482.476 376.457L489.23 370.736" stroke="#F99999" stroke-width="15.8923" stroke-linecap="round" style="mix-blend-mode:screen"/>
<path d="M475.721 449.345L482.476 455.066L489.23 449.345" stroke="#F99999" stroke-width="15.8923" stroke-linecap="round" style="mix-blend-mode:screen"/>
<path d="M445.179 175.317L451.933 181.039L458.688 175.317" stroke="#F99999" stroke-width="15.8923" stroke-linecap="round" style="mix-blend-mode:screen"/>
<path d="M445.179 253.602L451.933 259.323L458.688 253.602" stroke="#F99999" stroke-width="15.8923" stroke-linecap="round" style="mix-blend-mode:screen"/>
<path d="M445.179 331.887L451.933 337.608L458.688 331.887" stroke="#F99999" stroke-width="15.8923" stroke-linecap="round" style="mix-blend-mode:screen"/>
<path d="M445.179 410.172L451.933 415.893L458.688 410.172" stroke="#F99999" stroke-width="15.8923" stroke-linecap="round" style="mix-blend-mode:screen"/>
<path d="M445.179 488.456L451.933 494.178L458.688 488.456" stroke="#F99999" stroke-width="15.8923" stroke-linecap="round" style="mix-blend-mode:screen"/>
<path d="M689.254 18.7479L696.008 24.4691L702.763 18.7479" stroke="#F99999" stroke-width="15.8923" stroke-linecap="round" style="mix-blend-mode:screen"/>
<path d="M689.254 97.0327L696.008 102.754L702.763 97.0327" stroke="#F99999" stroke-width="15.8923" stroke-linecap="round" style="mix-blend-mode:screen"/>
<path d="M689.254 175.317L696.008 181.039L702.763 175.317" stroke="#F99999" stroke-width="15.8923" stroke-linecap="round" style="mix-blend-mode:screen"/>
<path d="M689.254 253.602L696.008 259.323L702.763 253.602" stroke="#F99999" stroke-width="15.8923" stroke-linecap="round" style="mix-blend-mode:screen"/>
<path d="M689.254 331.887L696.008 337.608L702.763 331.887" stroke="#F99999" stroke-width="15.8923" stroke-linecap="round" style="mix-blend-mode:screen"/>
<path d="M689.254 410.172L696.008 415.893L702.763 410.172" stroke="#F99999" stroke-width="15.8923" stroke-linecap="round" style="mix-blend-mode:screen"/>
<path d="M689.254 488.456L696.008 494.178L702.763 488.456" stroke="#F99999" stroke-width="15.8923" stroke-linecap="round" style="mix-blend-mode:screen"/>
</g>
<defs>
<clipPath id="clip0_1_17">
<rect width="700" height="500" fill="white" transform="translate(0 0.222229)"/>
</clipPath>
</defs>
</svg>
