<svg width="700" height="554" viewBox="0 0 700 554" fill="none" xmlns="http://www.w3.org/2000/svg">
<rect width="700" height="554" fill="white"/>
<rect width="70" height="69" fill="#92BFB1"/>
<rect y="139" width="70" height="69" fill="#92BFB1"/>
<rect y="277" width="70" height="69" fill="#92BFB1"/>
<rect y="415" width="70" height="70" fill="#92BFB1"/>
<rect x="70" y="69" width="70" height="70" fill="#92BFB1"/>
<rect x="70" y="208" width="70" height="69" fill="#92BFB1"/>
<rect x="70" y="346" width="70" height="69" fill="#92BFB1"/>
<rect x="70" y="485" width="70" height="69" fill="#92BFB1"/>
<rect x="140" width="70" height="69" fill="#92BFB1"/>
<rect x="140" y="139" width="70" height="69" fill="#92BFB1"/>
<rect x="140" y="277" width="70" height="69" fill="#92BFB1"/>
<rect x="140" y="415" width="70" height="70" fill="#92BFB1"/>
<rect x="210" y="69" width="70" height="70" fill="#92BFB1"/>
<rect x="210" y="208" width="70" height="69" fill="#92BFB1"/>
<rect x="210" y="346" width="70" height="69" fill="#92BFB1"/>
<rect x="210" y="485" width="70" height="69" fill="#92BFB1"/>
<rect x="280" width="70" height="69" fill="#92BFB1"/>
<rect x="280" y="139" width="70" height="69" fill="#92BFB1"/>
<rect x="280" y="277" width="70" height="69" fill="#92BFB1"/>
<rect x="280" y="415" width="70" height="70" fill="#92BFB1"/>
<rect x="350" y="69" width="70" height="70" fill="#92BFB1"/>
<rect x="350" y="208" width="70" height="69" fill="#92BFB1"/>
<rect x="350" y="346" width="70" height="69" fill="#92BFB1"/>
<rect x="350" y="485" width="70" height="69" fill="#92BFB1"/>
<rect x="420" width="70" height="69" fill="#92BFB1"/>
<rect x="420" y="139" width="70" height="69" fill="#92BFB1"/>
<rect x="420" y="277" width="70" height="69" fill="#92BFB1"/>
<rect x="420" y="415" width="70" height="70" fill="#92BFB1"/>
<rect x="490" y="69" width="70" height="70" fill="#92BFB1"/>
<rect x="490" y="208" width="70" height="69" fill="#92BFB1"/>
<rect x="490" y="346" width="70" height="69" fill="#92BFB1"/>
<rect x="490" y="485" width="70" height="69" fill="#92BFB1"/>
<rect x="630" y="69" width="70" height="70" fill="#92BFB1"/>
<rect x="630" y="208" width="70" height="69" fill="#92BFB1"/>
<rect x="630" y="346" width="70" height="69" fill="#92BFB1"/>
<rect x="630" y="485" width="70" height="69" fill="#92BFB1"/>
<rect x="560" width="70" height="69" fill="#92BFB1"/>
<rect x="560" y="139" width="70" height="69" fill="#92BFB1"/>
<rect x="560" y="277" width="70" height="69" fill="#92BFB1"/>
<rect x="560" y="415" width="70" height="70" fill="#92BFB1"/>
<rect x="70" width="70" height="69" fill="#FF8966"/>
<rect x="70" y="139" width="70" height="69" fill="#FF8966"/>
<rect x="70" y="277" width="70" height="69" fill="#FF8966"/>
<rect x="70" y="415" width="70" height="70" fill="#FF8966"/>
<rect y="69" width="70" height="70" fill="#FF8966"/>
<rect y="208" width="70" height="69" fill="#FF8966"/>
<rect y="346" width="70" height="69" fill="#FF8966"/>
<rect y="485" width="70" height="69" fill="#FF8966"/>
<rect x="210" width="70" height="69" fill="#FF8966"/>
<rect x="210" y="139" width="70" height="69" fill="#FF8966"/>
<rect x="210" y="277" width="70" height="69" fill="#FF8966"/>
<rect x="210" y="415" width="70" height="70" fill="#FF8966"/>
<rect x="140" y="69" width="70" height="70" fill="#FF8966"/>
<rect x="140" y="208" width="70" height="69" fill="#FF8966"/>
<rect x="140" y="346" width="70" height="69" fill="#FF8966"/>
<rect x="140" y="485" width="70" height="69" fill="#FF8966"/>
<rect x="350" width="70" height="69" fill="#FF8966"/>
<rect x="350" y="139" width="70" height="69" fill="#FF8966"/>
<rect x="350" y="277" width="70" height="69" fill="#FF8966"/>
<rect x="350" y="415" width="70" height="70" fill="#FF8966"/>
<rect x="280" y="69" width="70" height="70" fill="#FF8966"/>
<rect x="280" y="208" width="70" height="69" fill="#FF8966"/>
<rect x="280" y="346" width="70" height="69" fill="#FF8966"/>
<rect x="280" y="485" width="70" height="69" fill="#FF8966"/>
<rect x="490" width="70" height="69" fill="#FF8966"/>
<rect x="490" y="139" width="70" height="69" fill="#FF8966"/>
<rect x="490" y="277" width="70" height="69" fill="#FF8966"/>
<rect x="490" y="415" width="70" height="70" fill="#FF8966"/>
<rect x="630" width="70" height="69" fill="#FF8966"/>
<rect x="630" y="139" width="70" height="69" fill="#FF8966"/>
<rect x="630" y="277" width="70" height="69" fill="#FF8966"/>
<rect x="630" y="415" width="70" height="70" fill="#FF8966"/>
<rect x="420" y="69" width="70" height="70" fill="#FF8966"/>
<rect x="420" y="208" width="70" height="69" fill="#FF8966"/>
<rect x="420" y="346" width="70" height="69" fill="#FF8966"/>
<rect x="420" y="485" width="70" height="69" fill="#FF8966"/>
<rect x="560" y="69" width="70" height="70" fill="#FF8966"/>
<rect x="560" y="208" width="70" height="69" fill="#FF8966"/>
<rect x="560" y="346" width="70" height="69" fill="#FF8966"/>
<rect x="560" y="485" width="70" height="69" fill="#FF8966"/>
</svg>
