<svg width="300" height="414" viewBox="0 0 300 414" fill="none" xmlns="http://www.w3.org/2000/svg">
<rect width="300" height="414" fill="white" fill-opacity="0.31"/>
<rect width="300" height="414" fill="#F56B6C"/>
<path d="M13 22L18 27L23 22" stroke="white" stroke-width="15.8923" stroke-linecap="round" style="mix-blend-mode:screen"/>
<path d="M13 90L18 95L23 90" stroke="white" stroke-width="15.8923" stroke-linecap="round" style="mix-blend-mode:screen"/>
<path d="M13 159L18 163L23 159" stroke="white" stroke-width="15.8923" stroke-linecap="round" style="mix-blend-mode:screen"/>
<path d="M13 227L18 231L23 227" stroke="white" stroke-width="15.8923" stroke-linecap="round" style="mix-blend-mode:screen"/>
<path d="M13 296L18 299L23 296" stroke="white" stroke-width="15.8923" stroke-linecap="round" style="mix-blend-mode:screen"/>
<path d="M13 363L18 367L23 363" stroke="white" stroke-width="15.8923" stroke-linecap="round" style="mix-blend-mode:screen"/>
<path d="M55 55L60 59L65 55" stroke="#FDFD96" stroke-width="15.8923" stroke-linecap="round" style="mix-blend-mode:screen"/>
<path d="M55 123L60 127L65 123" stroke="#FDFD96" stroke-width="15.8923" stroke-linecap="round" style="mix-blend-mode:screen"/>
<path d="M55 191L60 195L65 191" stroke="#FDFD96" stroke-width="15.8923" stroke-linecap="round" style="mix-blend-mode:screen"/>
<path d="M55 259L60 263L65 259" stroke="#FDFD96" stroke-width="15.8923" stroke-linecap="round" style="mix-blend-mode:screen"/>
<path d="M55 327L60 332L65 327" stroke="#FDFD96" stroke-width="15.8923" stroke-linecap="round" style="mix-blend-mode:screen"/>
<path d="M54 396L59 400L64 396" stroke="#FDFD96" stroke-width="15.8923" stroke-linecap="round" style="mix-blend-mode:screen"/>
<path d="M99 22L104 27L109 22" stroke="white" stroke-width="15.8923" stroke-linecap="round" style="mix-blend-mode:screen"/>
<path d="M99 90L104 95L109 90" stroke="white" stroke-width="15.8923" stroke-linecap="round" style="mix-blend-mode:screen"/>
<path d="M99 159L104 163L109 159" stroke="white" stroke-width="15.8923" stroke-linecap="round" style="mix-blend-mode:screen"/>
<path d="M99 227L104 231L109 227" stroke="white" stroke-width="15.8923" stroke-linecap="round" style="mix-blend-mode:screen"/>
<path d="M99 296L104 299L109 296" stroke="white" stroke-width="15.8923" stroke-linecap="round" style="mix-blend-mode:screen"/>
<path d="M99 363L104 367L109 363" stroke="white" stroke-width="15.8923" stroke-linecap="round" style="mix-blend-mode:screen"/>
<path d="M142 55L147 59L152 55" stroke="#FDFD96" stroke-width="15.8923" stroke-linecap="round" style="mix-blend-mode:screen"/>
<path d="M231 55L236 59L241 55" stroke="#FDFD96" stroke-width="15.8923" stroke-linecap="round" style="mix-blend-mode:screen"/>
<path d="M142 123L147 127L152 123" stroke="#FDFD96" stroke-width="15.8923" stroke-linecap="round" style="mix-blend-mode:screen"/>
<path d="M231 123L236 127L241 123" stroke="#FDFD96" stroke-width="15.8923" stroke-linecap="round" style="mix-blend-mode:screen"/>
<path d="M142 191L147 195L152 191" stroke="#FDFD96" stroke-width="15.8923" stroke-linecap="round" style="mix-blend-mode:screen"/>
<path d="M231 191L236 195L241 191" stroke="#FDFD96" stroke-width="15.8923" stroke-linecap="round" style="mix-blend-mode:screen"/>
<path d="M142 259L147 263L152 259" stroke="#FDFD96" stroke-width="15.8923" stroke-linecap="round" style="mix-blend-mode:screen"/>
<path d="M231 259L236 263L241 259" stroke="#FDFD96" stroke-width="15.8923" stroke-linecap="round" style="mix-blend-mode:screen"/>
<path d="M142 327L147 332L152 327" stroke="#FDFD96" stroke-width="15.8923" stroke-linecap="round" style="mix-blend-mode:screen"/>
<path d="M141 396L146 400L151 396" stroke="#FDFD96" stroke-width="15.8923" stroke-linecap="round" style="mix-blend-mode:screen"/>
<path d="M231 327L236 332L241 327" stroke="#FDFD96" stroke-width="15.8923" stroke-linecap="round" style="mix-blend-mode:screen"/>
<path d="M230 396L235 400L240 396" stroke="#FDFD96" stroke-width="15.8923" stroke-linecap="round" style="mix-blend-mode:screen"/>
<path d="M188 22L193 27L198 22" stroke="white" stroke-width="15.8923" stroke-linecap="round" style="mix-blend-mode:screen"/>
<path d="M277 22L282 27L287 22" stroke="white" stroke-width="15.8923" stroke-linecap="round" style="mix-blend-mode:screen"/>
<path d="M188 90L193 95L198 90" stroke="white" stroke-width="15.8923" stroke-linecap="round" style="mix-blend-mode:screen"/>
<path d="M277 90L282 95L287 90" stroke="white" stroke-width="15.8923" stroke-linecap="round" style="mix-blend-mode:screen"/>
<path d="M188 159L193 163L198 159" stroke="white" stroke-width="15.8923" stroke-linecap="round" style="mix-blend-mode:screen"/>
<path d="M277 159L282 163L287 159" stroke="white" stroke-width="15.8923" stroke-linecap="round" style="mix-blend-mode:screen"/>
<path d="M188 227L193 231L198 227" stroke="white" stroke-width="15.8923" stroke-linecap="round" style="mix-blend-mode:screen"/>
<path d="M277 227L282 231L287 227" stroke="white" stroke-width="15.8923" stroke-linecap="round" style="mix-blend-mode:screen"/>
<path d="M188 296L193 299L198 296" stroke="white" stroke-width="15.8923" stroke-linecap="round" style="mix-blend-mode:screen"/>
<path d="M277 296L282 299L287 296" stroke="white" stroke-width="15.8923" stroke-linecap="round" style="mix-blend-mode:screen"/>
<path d="M188 363L193 367L198 363" stroke="white" stroke-width="15.8923" stroke-linecap="round" style="mix-blend-mode:screen"/>
<path d="M277 363L282 367L287 363" stroke="white" stroke-width="15.8923" stroke-linecap="round" style="mix-blend-mode:screen"/>
</svg>
