<svg width="300" height="441" viewBox="0 0 300 441" fill="none" xmlns="http://www.w3.org/2000/svg">
<g clip-path="url(#clip0_1_2)">
<rect width="300" height="441" fill="white"/>
<rect width="60" height="55" fill="#175697"/>
<rect y="111" width="60" height="55" fill="#175697"/>
<rect y="220" width="60" height="55" fill="#175697"/>
<rect y="330" width="60" height="56" fill="#175697"/>
<rect x="60" y="55" width="60" height="56" fill="#175697"/>
<rect x="60" y="166" width="60" height="54" fill="#175697"/>
<rect x="60" y="275" width="60" height="55" fill="#175697"/>
<rect x="60" y="386" width="60" height="55" fill="#175697"/>
<rect x="120" width="61" height="55" fill="#175697"/>
<rect x="120" y="111" width="61" height="55" fill="#175697"/>
<rect x="120" y="220" width="61" height="55" fill="#175697"/>
<rect x="120" y="330" width="61" height="56" fill="#175697"/>
<rect x="181" y="55" width="60" height="56" fill="#175697"/>
<rect x="181" y="166" width="60" height="54" fill="#175697"/>
<rect x="181" y="275" width="60" height="55" fill="#175697"/>
<rect x="181" y="386" width="60" height="55" fill="#175697"/>
<rect x="241" width="60" height="55" fill="#175697"/>
<rect x="241" y="111" width="60" height="55" fill="#175697"/>
<rect x="241" y="220" width="60" height="55" fill="#175697"/>
<rect x="241" y="330" width="60" height="56" fill="#175697"/>
<rect x="60" width="60" height="55" fill="#EBAF4E"/>
<rect x="60" y="111" width="60" height="55" fill="#EBAF4E"/>
<rect x="60" y="220" width="60" height="55" fill="#EBAF4E"/>
<rect x="60" y="330" width="60" height="56" fill="#EBAF4E"/>
<rect y="55" width="60" height="56" fill="#EBAF4E"/>
<rect y="166" width="60" height="54" fill="#EBAF4E"/>
<rect y="275" width="60" height="55" fill="#EBAF4E"/>
<rect y="386" width="60" height="55" fill="#EBAF4E"/>
<rect x="181" width="60" height="55" fill="#EBAF4E"/>
<rect x="181" y="111" width="60" height="55" fill="#EBAF4E"/>
<rect x="181" y="220" width="60" height="55" fill="#EBAF4E"/>
<rect x="181" y="330" width="60" height="56" fill="#EBAF4E"/>
<rect x="120" y="55" width="61" height="56" fill="#EBAF4E"/>
<rect x="120" y="166" width="61" height="54" fill="#EBAF4E"/>
<rect x="120" y="275" width="61" height="55" fill="#EBAF4E"/>
<rect x="120" y="386" width="61" height="55" fill="#EBAF4E"/>
<rect x="241" y="55" width="60" height="56" fill="#EBAF4E"/>
<rect x="241" y="166" width="60" height="54" fill="#EBAF4E"/>
<rect x="241" y="275" width="60" height="55" fill="#EBAF4E"/>
<rect x="241" y="386" width="60" height="55" fill="#EBAF4E"/>
</g>
<defs>
<clipPath id="clip0_1_2">
<rect width="300" height="441" fill="white"/>
</clipPath>
</defs>
</svg>
